<svg width="1920" height="228" viewBox="0 0 1920 228" fill="none" xmlns="http://www.w3.org/2000/svg">
<path d="M1914.4 22.3406C1902.59 22.9581 1890.46 23.4914 1878.47 23.2107C1845.48 22.3967 1812.86 20.067 1779.79 19.9267C1744.03 19.7864 1708.27 20.7126 1672.55 21.5827C1602.8 23.2949 1532.95 23.8843 1463.15 24.6141C1426.07 25.0071 1385.24 23.1826 1348.91 28.0946C1350.98 26.3543 1354.2 25.3158 1357.06 24.0808C1359.93 22.8458 1362.71 21.1617 1363.1 19.0004C1366.19 17.7654 1369.72 16.9514 1373.38 16.6427C1376.68 16.362 1380.7 16.2778 1382.2 14.4253C1382.95 13.5271 1383.12 12.1798 1384.71 11.8991C1385.94 11.6746 1387.14 12.2921 1388.37 12.5728C1392.07 13.4429 1395.78 11.1694 1399.75 11.0571C1406.98 10.8325 1412.53 15.1831 1420.56 14.6779C1424.04 14.4534 1427.04 13.078 1430.04 11.9553C1438.55 8.83969 1448.78 7.57662 1458.52 8.50288C1461.17 8.75549 1463.9 9.14844 1466.55 8.86776C1469.41 8.55901 1471.88 7.46433 1474.62 6.81876C1484.85 4.43295 1494.86 8.50287 1504.82 9.45719C1513.55 10.2992 1526.91 9.96242 1535.6 8.95196C1538.77 8.58707 1542.26 7.9415 1545.03 8.95196C1546.93 9.65367 1548.03 10.9729 1549.75 11.7869C1552.44 13.078 1556.37 12.9657 1559.45 12.0956C1562.54 11.2255 1565.01 9.68174 1567.39 8.16605C1567.56 10.7203 1573.47 11.4781 1577.13 10.2993C1580.18 9.31686 1583.04 6.62229 1586.35 6.14513C1589.26 5.7241 1591.29 7.32399 1594.11 6.93104C1595.48 6.76263 1596.49 6.08899 1597.55 5.52762C1602.84 2.74885 1615.94 3.05762 1621.84 4.99434C1622.95 5.35922 1623.56 6.06093 1624.27 6.67843C1625.46 7.71696 1627.09 8.58707 1629.07 8.83969C1631.06 9.0923 1633.4 8.55902 1634.19 7.40821C1634.72 9.09232 1638.64 9.85015 1640.58 8.67128C1641.24 8.27832 1641.69 7.74503 1642.52 7.49242C1645.48 6.59423 1647.68 6.20126 1650.55 5.13466C1653.19 4.15227 1653.5 3.00146 1656.85 2.60851C1663.73 1.82259 1671.93 5.78024 1678.02 7.18366C1689.84 9.87822 1705.8 9.4572 1717.09 6.089C1718.54 5.6399 1720 5.13468 1721.63 4.99434C1724.01 4.76979 1726.43 5.41535 1728.86 5.33114C1732.74 5.16273 1736.09 3.11374 1739.93 3.33829C1743.14 3.53477 1745.61 5.30307 1748.74 5.83637C1751.74 6.3416 1754.83 5.69603 1757.92 5.41534C1767.97 4.51715 1777.58 7.77309 1786.84 10.3554C1800.47 14.1727 1811.44 12.5447 1825.42 11.3939C1829.52 11.0571 1833.58 10.5519 1837.55 9.87822C1839.22 9.59754 1840.94 9.28878 1842.44 8.72741C1843.24 8.44673 1843.99 8.08184 1844.82 7.8573C1847.73 7.12752 1850.91 8.13799 1853.99 8.3064C1857.35 8.47481 1860.65 7.63275 1864 7.57662C1866.43 7.57662 1868.81 7.9415 1871.24 8.16605C1876.35 8.64321 1883.36 8.4748 1888.43 7.9415C1892.14 7.54854 1897.38 5.5557 1901.04 5.89252C1902.14 6.0048 1903.11 6.31353 1904.17 6.53808C1907.83 7.23979 1912.2 6.14513 1914.05 4.04C1915.55 9.82208 1917.31 16.4182 1916.03 22.2283C1915.55 22.2283 1915.06 22.2844 1914.58 22.3125L1914.4 22.3406Z" fill="#EEF7FC"/>
<path d="M296.848 18.5061C291.793 18.9534 286.783 19.9877 281.683 20.0995C270.59 20.3511 259.809 16.1579 248.849 17.2481C245.315 17.6115 241.916 18.5061 238.292 18.6459C234.087 18.8136 229.927 17.8911 225.678 17.8631C218.968 17.8072 212.795 19.9597 206.487 21.3295C195.796 23.6777 181.929 21.05 170.835 20.2672C154.821 19.1491 138.717 18.1427 122.613 17.9749C109.775 17.8352 97.7862 19.0372 85.1268 20.1275C75.0619 20.9941 64.9075 21.3016 54.7531 21.4413C45.6723 21.5811 34.2207 19.2329 25.7214 21.0779C23.5295 21.5531 21.2481 22.252 18.9668 21.9166C17.088 21.6091 15.6565 20.6306 13.7777 20.2952C11.72 19.9318 9.5281 20.435 7.38092 20.6027C-3.26551 21.4972 1.38672 11.098 0 7.40801C0.939392 10.0078 12.9278 13.1388 16.8196 12.5237C17.9379 12.356 18.5642 11.6292 19.3246 11.0701C21.606 9.36486 26.124 9.14122 28.8527 10.5669C29.6132 10.9862 30.2842 11.4894 31.1789 11.741C34.0418 12.5517 36.7257 10.0917 38.8729 9.81213C41.1096 9.50463 42.8989 11.2658 45.8513 10.0637C47.1932 9.53259 48.8036 8.61007 50.0561 9.22508C50.6377 9.50463 50.8613 10.0917 51.5771 10.2315C52.427 10.3992 53.1875 9.84009 54.0821 9.72827C55.2004 9.56054 56.2293 10.1196 57.3476 10.2315C58.8685 10.3992 60.3447 9.81213 61.8209 9.53258C63.2971 9.25304 65.4443 9.6444 65.4443 10.6228C65.7127 10.0637 67.0099 10.0637 67.8598 10.3433C68.665 10.6228 69.4702 11.0701 70.4096 10.9862C71.3043 10.9303 71.9306 10.4271 72.7805 10.2594C75.5539 9.67236 78.1484 12.6635 80.7429 11.8528C81.3692 11.6572 81.7718 11.2658 82.3086 10.9583C86.2004 8.74986 91.8367 11.6572 95.9521 11.9367C100.962 12.2722 103.87 10.9024 108.075 9.30894C110.088 10.6228 112.816 12.0485 115.5 11.4056C116.44 11.1819 117.156 10.7626 117.961 10.3992C119.661 9.61644 121.808 9.11327 123.821 9.47668C125.923 9.8401 126.907 11.126 126.728 12.4119C132.186 12.1603 137.196 10.0358 142.564 10.2874C147.484 10.511 149.229 12.8872 152.763 9.89599C153.076 9.61644 153.658 9.56054 154.194 9.53258C156.968 9.30894 160.099 9.11326 162.336 10.1476C162.873 10.3992 163.365 10.7346 163.991 10.8744C165.288 11.1819 166.675 10.7346 167.883 10.3153C169.538 9.72826 171.148 9.11326 172.803 8.52621C173.295 8.33052 173.832 8.16279 174.414 8.2187C175.174 8.30257 175.622 8.77781 176.158 9.14122C177.321 9.92395 179.29 10.1476 180.811 9.67237C182.331 9.19713 183.226 8.07894 182.913 7.04461C185.194 6.62528 187.52 6.23392 189.802 5.84255C190.428 5.73073 191.054 5.61891 191.725 5.64687C192.754 5.70277 193.604 6.1221 194.544 6.34574C197.406 7.07256 199.598 4.72436 201.79 3.96958C203.758 3.27071 206.845 3.38252 207.561 4.72435C210.603 2.73956 215.389 1.87296 219.683 2.54388C218.431 3.29866 218.476 4.66844 219.683 5.42322C220.936 6.15005 223.173 6.06619 224.246 5.2555C225.096 4.64049 225.23 3.74593 226.036 3.10297C227.735 1.62136 231.538 2.01274 233.908 3.04707C236.279 4.08139 238.158 5.64687 240.887 6.34574C245.629 7.54779 251.533 5.75869 255.962 7.38007C257.393 7.88326 258.467 8.7219 259.764 9.3369C263.924 11.2937 269.695 11.0142 274.884 11.0142C279.491 11.0142 284.054 11.2937 288.617 11.5733C294.566 11.9367 300.561 12.3001 306.51 12.6635C307.718 12.7474 308.97 12.8033 310.133 12.5797C311.967 12.1883 313.175 11.126 314.607 10.2874C318.185 8.16279 323.822 7.49189 328.429 8.66599C330.8 9.281 332.813 10.2874 335.05 11.0701C339.926 12.7754 345.83 13.3065 351.243 12.4958C352.54 12.3001 353.793 12.0485 355.09 11.9926C357.193 11.8808 359.25 12.3001 361.308 12.6635C368.107 13.8097 375.265 14.2569 382.288 13.9215C384.659 13.8097 387.342 13.5022 388.461 12.2162C389.087 11.5174 389.176 10.5949 390.205 10.1476C391.1 9.75623 392.308 9.86804 393.337 10.0078C400.226 10.9862 408.859 12.971 415.658 10.7067C421.161 8.88962 424.292 4.61253 431.807 5.53504C435.609 6.01027 438.875 7.99506 442.722 7.71552C445.943 7.49188 448.806 5.70278 451.937 6.17801C455.292 6.6812 456.231 9.14122 459.049 10.0637C459.631 10.2594 464.954 10.9024 464.775 10.5949C465.446 11.6292 467.37 12.1044 469.114 12.2442C470.904 12.384 472.782 12.3281 474.393 12.8033C477.792 13.8097 479.045 16.9127 482.713 17.3599C485.039 17.6395 487.231 16.717 489.378 16.102C491.525 15.459 494.523 15.2074 495.865 16.4374C496.312 16.8288 496.536 17.332 497.207 17.5556C501.143 18.8695 508.435 13.6419 510.224 11.7969C511.789 10.1755 513.4 2.90729 517.694 4.92003C521.72 6.82096 526.596 8.88963 531.383 7.88326C532.456 7.65962 533.53 7.26823 534.648 7.29619C536.527 7.3521 538.182 8.49826 539.971 8.1628C540.866 7.99508 541.537 7.49189 542.342 7.18439C543.46 6.79302 544.847 6.82097 546.144 6.84892C555.941 7.15643 565.737 7.51985 575.579 7.68758C586.449 7.88326 597.319 8.07894 608.189 8.27463C610.47 8.30258 612.752 8.35849 614.944 7.96712C617.136 7.57575 619.417 6.7371 621.564 7.21233C623.89 7.71552 625.232 9.5885 627.693 9.64441C629.929 9.70032 631.405 8.27462 633.239 7.46393C636.46 6.03824 640.844 6.59734 644.781 6.6812C648.717 6.76507 653.638 5.64687 653.861 3.18685C663.166 10.3153 670.547 0.307491 679.225 1.34182C687.724 2.34819 689.513 9.25303 698.639 8.61007C705.975 8.10688 711.477 3.99753 718.992 4.02548C724.36 4.02548 731.562 9.36486 739.927 9.281C755.047 9.11327 769.004 10.0637 781.126 8.58213C787.076 7.8553 791.773 4.08139 797.767 4.33298C806.043 4.66844 807.832 13.0549 815.66 11.1819C818.478 10.511 821.52 9.281 824.294 10.0637C826.172 10.5949 827.201 11.9087 828.857 12.6915C831.898 14.0892 836.148 13.4183 839.861 13.8656C847.644 14.8161 852.968 20.7145 860.885 20.1834C863.614 19.9877 866.835 19.0931 868.803 20.2952C869.787 20.8822 870.011 21.8047 870.771 22.4757C872.426 23.9293 875.916 23.9293 878.599 23.2864C881.239 22.6154 883.565 21.4693 886.294 20.9941C892.914 19.8479 900.563 22.923 906.602 20.8543C908.615 20.1554 910.136 18.9534 912.283 18.3663C919.664 16.3256 926.508 22.7552 934.605 22.8391C944.804 22.9229 955.272 13.6979 964.263 11.0421C979.025 6.68119 996.292 8.74984 1012.57 9.81213C1034.45 11.2378 1056.64 10.5949 1078.24 7.96712C1110.85 3.96958 1126.38 18.9534 1152.95 0C1158.85 3.88572 1159.61 0.0838623 1166.64 0.587048C1166.5 2.06866 1167.4 3.60617 1169.05 4.66845C1172.14 3.96958 1175.18 3.27071 1178.27 2.57184C1179.65 7.40802 1186.59 11.4056 1194.41 11.9087C1196.61 12.0485 1198.84 11.9367 1200.99 12.3281C1202.82 12.6635 1204.43 13.3624 1206.18 13.8935C1222.28 18.9254 1239.55 8.58212 1255.92 16.4095C1263.57 20.0715 1271.27 23.7336 1278.91 27.3957C1294.39 24.2089 1285.09 32.9308 1272.38 30.5826C1266.79 29.5482 1261.83 27.4796 1256.64 25.8582C1255.3 25.4389 1253.77 25.0196 1252.3 25.2432C1251.05 25.4389 1250.02 26.0539 1248.81 26.3614C1245.68 27.1162 1242.55 25.4948 1239.46 24.6562C1235.7 23.6218 1231.45 23.7616 1227.38 23.7895C1188.96 24.0691 1150.22 15.0117 1112.73 20.2952C1104.59 21.4413 1096.45 23.2864 1088.08 22.9229C1083.79 22.7273 1079.63 21.9725 1075.33 21.9166C1068.54 21.8327 1062.9 23.3143 1056.46 23.8175C1048.9 24.4045 1041.11 22.9788 1033.6 22.3918C1015.75 20.9941 997.723 20.407 979.741 20.6306C971.197 20.7425 962.429 21.05 954.601 23.1745C950.977 24.1529 947.533 25.5227 943.731 26.1937C937.692 27.2559 931.205 26.5012 924.988 27.0602C919.799 27.5355 914.878 28.9053 909.644 28.9891C902.755 29.1289 896.001 27.0044 889.156 27.5355C879.718 28.2903 872.382 33.8812 862.898 33.9651C854.757 34.021 847.868 29.9955 839.816 29.3805C828.454 28.5419 817.405 30.5546 806.177 28.8214C803.09 28.3462 799.512 27.7591 797.096 29.0171C796.246 29.4644 795.665 30.1073 794.815 30.5267C792.399 31.7287 788.776 30.918 786.226 29.7998C783.721 28.6537 781.305 27.1721 778.219 27.0043C775.58 26.8646 773.164 27.7312 770.659 28.2623C767.617 28.9053 761.399 28.3462 758.089 28.2064C752.318 27.9548 747.622 27.6473 742.075 26.4453C731.92 24.2089 721.095 19.9597 709.956 22.1402C708.167 22.5036 706.378 23.0348 704.454 22.9509C702.486 22.895 700.786 22.1961 698.907 21.8047C693.942 20.7425 688.529 21.9166 683.385 22.6434C674.93 23.8455 665.268 21.1338 656.858 19.9597C649.164 18.8975 641.381 17.4158 633.552 17.919C629.884 18.1427 626.35 18.7856 622.727 19.0652C617.449 19.4845 612.125 19.205 606.802 19.0372C600.584 18.8415 593.248 18.2545 587.12 18.9813C580.276 19.792 575.981 22.0284 568.824 19.5125C566.9 18.8415 565.022 17.8911 562.785 17.8911C560.28 17.8911 558.267 19.0931 555.941 19.6802C550.305 21.0779 542.476 19.2609 536.482 19.0931C529.37 18.8974 522.302 18.7297 515.189 18.534C513.534 18.4781 511.745 18.4781 510.492 19.0931C508.345 20.1275 508.703 22.3079 506.869 23.538C503.738 25.6346 493.941 22.867 490.273 22.3918C489.334 22.28 488.349 22.1682 487.499 22.3918C486.784 22.5875 486.292 23.0348 485.71 23.3423C483.876 24.3207 480.745 24.0691 479.313 22.8391C477.703 23.3143 476.048 23.7616 474.437 24.2368C473.766 24.4325 473.095 24.6002 472.38 24.5443C471.351 24.4605 470.59 23.8734 469.83 23.4261C464.73 20.435 459.228 21.9445 453.458 22.0004C446.166 22.0843 440.038 20.6586 432.97 19.7641C424.873 18.7297 416.374 20.9941 408.054 19.9318C405.37 19.5684 402.775 18.8974 400.047 18.7018C395.886 18.3943 391.726 19.2329 387.656 19.82C380.856 20.7984 373.878 21.1059 366.944 21.4413C353.524 22.0563 340.015 24.6841 326.64 22.5875C317.783 21.1897 309.328 18.2265 300.203 18.3663C298.995 18.3663 297.832 18.4502 296.669 18.562L296.848 18.5061Z" fill="#EEF7FC"/>
<path d="M1919.47 221.685C1905.14 221.292 1890.68 221.629 1876.13 222.359V211.946C1882.34 210.879 1886.93 207.314 1886.93 203.02C1886.93 197.912 1880.4 193.757 1872.38 193.757C1864.35 193.757 1857.83 197.912 1857.83 203.02C1857.83 207.314 1862.41 210.879 1868.63 211.946V222.752C1854.92 223.51 1841.12 224.52 1827.32 225.475V211.946C1833.53 210.879 1838.12 207.314 1838.12 203.02C1838.12 197.912 1831.59 193.757 1823.57 193.757C1815.54 193.757 1809.02 197.912 1809.02 203.02C1809.02 207.314 1813.6 210.879 1819.82 211.946V225.98C1806.06 226.878 1792.26 227.608 1778.5 227.889V211.946C1784.72 210.879 1789.31 207.314 1789.31 203.02C1789.31 197.912 1782.78 193.757 1774.76 193.757C1766.73 193.757 1760.21 197.912 1760.21 203.02C1760.21 207.314 1764.79 210.879 1771.01 211.946V227.973C1769.77 227.973 1768.58 228.001 1767.35 228.001C1754.78 228.001 1742.26 228.001 1729.69 228.001V211.946C1735.91 210.879 1740.5 207.314 1740.5 203.02C1740.5 197.912 1733.97 193.757 1725.95 193.757C1717.92 193.757 1711.39 197.912 1711.39 203.02C1711.39 207.314 1715.98 210.879 1722.2 211.946V228.001C1713.51 228.001 1704.82 228.001 1696.14 228.001C1691.07 228.001 1686 228.001 1680.88 228.001V211.974C1687.1 210.907 1691.68 207.343 1691.68 203.048C1691.68 197.94 1685.16 193.786 1677.13 193.786C1669.11 193.786 1662.58 197.94 1662.58 203.048C1662.58 207.343 1667.17 210.907 1673.39 211.974V227.973C1657.25 227.973 1641.07 227.973 1624.93 227.917V211.946C1631.14 210.879 1635.73 207.314 1635.73 203.02C1635.73 197.912 1629.2 193.757 1621.18 193.757C1613.15 193.757 1606.63 197.912 1606.63 203.02C1606.63 207.314 1611.21 210.879 1617.43 211.946V227.917C1603.67 227.917 1589.87 227.917 1576.12 227.889V211.974C1582.33 210.907 1586.92 207.343 1586.92 203.048C1586.92 197.94 1580.39 193.786 1572.37 193.786C1564.34 193.786 1557.82 197.94 1557.82 203.048C1557.82 207.343 1562.4 210.907 1568.62 211.974V227.889C1567.56 227.889 1566.55 227.889 1565.49 227.889C1552.17 227.889 1538.81 227.832 1525.5 227.832V211.974C1531.71 210.907 1536.3 207.343 1536.3 203.048C1536.3 197.94 1529.77 193.786 1521.75 193.786C1513.72 193.786 1507.2 197.94 1507.2 203.048C1507.2 207.343 1511.78 210.907 1518 211.974V227.804C1504.24 227.804 1490.44 227.748 1476.69 227.748V211.974C1482.9 210.907 1487.49 207.343 1487.49 203.048C1487.49 197.94 1480.96 193.786 1472.94 193.786C1464.91 193.786 1458.39 197.94 1458.39 203.048C1458.39 207.343 1462.97 210.907 1469.19 211.974V227.748C1455.43 227.748 1441.63 227.72 1427.87 227.692V212.002C1434.09 210.935 1438.68 207.371 1438.68 203.076C1438.68 197.968 1432.15 193.814 1424.13 193.814C1416.1 193.814 1409.58 197.968 1409.58 203.076C1409.58 207.371 1414.16 210.935 1420.38 212.002V227.692C1406.62 227.692 1392.82 227.664 1379.06 227.636V212.002C1385.28 210.935 1389.87 207.371 1389.87 203.076C1389.87 197.968 1383.34 193.814 1375.32 193.814C1367.29 193.814 1360.76 197.968 1360.76 203.076C1360.76 207.371 1365.35 210.935 1371.57 212.002V227.608C1357.81 227.608 1344.01 227.552 1330.25 227.524V212.002C1336.47 210.935 1341.05 207.371 1341.05 203.076C1341.05 197.968 1334.53 193.814 1326.5 193.814C1318.48 193.814 1311.95 197.968 1311.95 203.076C1311.95 207.371 1316.54 210.935 1322.76 212.002V227.496C1309 227.468 1295.2 227.439 1281.44 227.383V211.974C1287.66 210.907 1292.24 207.343 1292.24 203.048C1292.24 197.94 1285.72 193.786 1277.69 193.786C1269.67 193.786 1263.14 197.94 1263.14 203.048C1263.14 207.343 1267.73 210.907 1273.94 211.974V227.355C1260.19 227.327 1246.39 227.299 1232.63 227.271V211.974C1238.85 210.907 1243.43 207.343 1243.43 203.048C1243.43 197.94 1236.91 193.786 1228.88 193.786C1220.86 193.786 1214.33 197.94 1214.33 203.048C1214.33 207.343 1218.92 210.907 1225.13 211.974V227.243C1211.38 227.215 1197.57 227.187 1183.82 227.131V211.946C1190.04 210.879 1194.62 207.314 1194.62 203.02C1194.62 197.912 1188.09 193.757 1180.07 193.757C1172.04 193.757 1165.52 197.912 1165.52 203.02C1165.52 207.314 1170.1 210.879 1176.32 211.946V227.103C1171.47 227.103 1166.62 227.103 1161.82 227.075C1152.91 227.075 1143.96 227.018 1135.05 226.99V211.946C1141.27 210.879 1145.85 207.314 1145.85 203.02C1145.85 197.912 1139.33 193.757 1131.3 193.757C1123.28 193.757 1116.75 197.912 1116.75 203.02C1116.75 207.314 1121.34 210.879 1127.55 211.946V226.962C1111.42 226.906 1095.23 226.85 1079.1 226.822V211.974C1085.31 210.907 1089.9 207.343 1089.9 203.048C1089.9 197.94 1083.37 193.786 1075.35 193.786C1067.32 193.786 1060.8 197.94 1060.8 203.048C1060.8 207.343 1065.38 210.907 1071.6 211.974V226.822C1057.84 226.766 1044.04 226.738 1030.28 226.682V211.974C1036.5 210.907 1041.09 207.343 1041.09 203.048C1041.09 197.94 1034.56 193.786 1026.54 193.786C1018.51 193.786 1011.99 197.94 1011.99 203.048C1011.99 207.343 1016.57 210.907 1022.79 211.974V226.654C1008.41 226.597 994.04 226.569 979.666 226.513V211.974C985.883 210.907 990.469 207.343 990.469 203.048C990.469 197.94 983.943 193.786 975.918 193.786C967.893 193.786 961.367 197.94 961.367 203.048C961.367 207.343 965.953 210.907 972.17 211.974V226.485C958.413 226.429 944.611 226.401 930.854 226.345V211.946C937.071 210.879 941.657 207.314 941.657 203.02C941.657 197.912 935.131 193.757 927.106 193.757C919.081 193.757 912.556 197.912 912.556 203.02C912.556 207.314 917.141 210.879 923.358 211.946V226.317C909.601 226.261 895.8 226.204 882.043 226.176V211.974C888.26 210.907 892.846 207.343 892.846 203.048C892.846 197.94 886.32 193.786 878.295 193.786C870.27 193.786 863.744 197.94 863.744 203.048C863.744 207.343 868.33 210.907 874.547 211.974V226.148C860.79 226.092 846.989 226.036 833.232 226.008V211.974C839.449 210.907 844.035 207.343 844.035 203.048C844.035 197.94 837.509 193.786 829.484 193.786C821.459 193.786 814.933 197.94 814.933 203.048C814.933 207.343 819.519 210.907 825.736 211.974V225.98C811.979 225.924 798.178 225.868 784.42 225.84V211.974C790.638 210.907 795.223 207.343 795.223 203.048C795.223 197.94 788.697 193.786 780.672 193.786C772.647 193.786 766.122 197.94 766.122 203.048C766.122 207.343 770.707 210.907 776.924 211.974V225.811C763.167 225.755 749.366 225.699 735.609 225.671V212.002C741.826 210.935 746.412 207.371 746.412 203.076C746.412 197.968 739.886 193.814 731.861 193.814C723.836 193.814 717.31 197.968 717.31 203.076C717.31 207.371 721.896 210.935 728.113 212.002V225.643C718.148 225.615 708.227 225.559 698.262 225.531C694.426 225.531 690.59 225.531 686.798 225.531V212.03C693.015 210.963 697.601 207.399 697.601 203.104C697.601 197.996 691.075 193.842 683.05 193.842C675.025 193.842 668.499 197.996 668.499 203.104C668.499 207.399 673.085 210.963 679.302 212.03V225.531C665.545 225.475 651.744 225.447 637.986 225.447V212.058C644.204 210.991 648.789 207.427 648.789 203.132C648.789 198.024 642.263 193.87 634.238 193.87C626.214 193.87 619.688 198.024 619.688 203.132C619.688 207.427 624.273 210.991 630.491 212.058V225.447C616.733 225.447 602.932 225.419 589.175 225.419V212.086C595.392 211.019 599.978 207.455 599.978 203.16C599.978 198.052 593.452 193.898 585.427 193.898C577.402 193.898 570.876 198.052 570.876 203.16C570.876 207.455 575.462 211.019 581.679 212.086V225.419C565.541 225.419 549.359 225.419 533.221 225.419V212.086C539.438 211.019 544.024 207.455 544.024 203.16C544.024 198.052 537.498 193.898 529.473 193.898C521.448 193.898 514.922 198.052 514.922 203.16C514.922 207.455 519.508 211.019 525.725 212.086V225.447C511.968 225.447 498.166 225.503 484.409 225.531V212.114C490.627 211.048 495.212 207.483 495.212 203.188C495.212 198.08 488.686 193.926 480.661 193.926C472.636 193.926 466.111 198.08 466.111 203.188C466.111 207.483 470.696 211.048 476.914 212.114V225.559C462.539 225.587 448.165 225.615 433.79 225.643V212.114C440.007 211.048 444.593 207.483 444.593 203.188C444.593 198.08 438.067 193.926 430.042 193.926C422.017 193.926 415.491 198.08 415.491 203.188C415.491 207.483 420.077 211.048 426.294 212.114V225.671C412.537 225.699 398.736 225.755 384.979 225.783V212.114C391.196 211.048 395.782 207.483 395.782 203.188C395.782 198.08 389.256 193.926 381.231 193.926C373.206 193.926 366.68 198.08 366.68 203.188C366.68 207.483 371.266 211.048 377.483 212.114V225.811C363.726 225.868 349.925 225.896 336.168 225.952V212.114C342.385 211.048 346.97 207.483 346.97 203.188C346.97 198.08 340.445 193.926 332.42 193.926C324.395 193.926 317.869 198.08 317.869 203.188C317.869 207.483 322.454 211.048 328.672 212.114V225.98C314.915 226.036 301.113 226.064 287.356 226.12V212.114C293.573 211.048 298.159 207.483 298.159 203.188C298.159 198.08 291.633 193.926 283.608 193.926C275.583 193.926 269.058 198.08 269.058 203.188C269.058 207.483 273.643 211.048 279.86 212.114V226.148C266.103 226.204 252.302 226.233 238.545 226.289V212.142C244.762 211.076 249.348 207.511 249.348 203.216C249.348 198.108 242.822 193.954 234.797 193.954C226.772 193.954 220.246 198.108 220.246 203.216C220.246 207.511 224.832 211.076 231.049 212.142V226.317C217.292 226.373 203.491 226.401 189.734 226.457V212.142C195.951 211.076 200.536 207.511 200.536 203.216C200.536 198.108 194.011 193.954 185.986 193.954C177.961 193.954 171.435 198.108 171.435 203.216C171.435 207.511 176.021 211.076 182.238 212.142V226.485C168.481 226.513 154.679 226.541 140.922 226.597V212.17C147.139 211.104 151.725 207.539 151.725 203.245C151.725 198.136 145.199 193.982 137.174 193.982C129.149 193.982 122.624 198.136 122.624 203.245C122.624 207.539 127.209 211.104 133.426 212.17V226.625C119.669 226.654 105.868 226.682 92.111 226.71V212.17C98.3281 211.104 102.914 207.539 102.914 203.245C102.914 198.136 96.388 193.982 88.363 193.982C80.338 193.982 73.8122 198.136 73.8122 203.245C73.8122 207.539 78.3979 211.104 84.6151 212.17V226.738C70.858 226.738 57.0568 226.766 43.2997 226.766V212.17C49.5168 211.104 54.1025 207.539 54.1025 203.245C54.1025 198.136 47.5767 193.982 39.5517 193.982C31.5267 193.982 25.0009 198.136 25.0009 203.245C25.0009 207.539 29.5866 211.104 35.8038 212.17V226.766C28.3079 226.766 20.768 226.766 13.2721 226.766C9.17141 226.682 5.07073 226.569 0.925956 226.401V123.615C0.925956 88.7257 2.55741 53.135 0 18.3583C3.65975 18.639 7.45177 18.5267 11.0233 18.3583C17.2846 18.0776 23.4577 17.4601 29.6748 16.8426C36.0243 16.2251 42.3737 15.8883 48.7672 15.4392C59.3937 14.6814 70.0202 13.727 80.7349 13.4463C91.4937 13.1656 102.076 13.9796 112.747 14.513C123.329 15.0743 133.956 15.4953 144.538 15.776C165.35 16.3374 186.206 16.3093 207.018 15.4953C217.865 15.0743 228.624 14.6252 239.515 14.513C250.141 14.4007 260.768 14.4287 271.394 14.1761C281.8 13.9516 292.251 12.885 302.657 13.0815C312.445 13.2779 322.102 14.4849 331.626 15.7479C341.282 17.0391 350.939 18.4425 360.772 19.06C369.899 19.6214 379.203 19.453 388.374 19.06C397.898 18.639 407.378 17.797 416.682 16.5339C425.457 15.3269 434.055 13.0253 443.05 12.5482C461.613 11.5658 473.651 20.1266 492.655 19.7898C512.894 19.4249 532.206 14.8497 552.181 13.1376C564.924 12.0429 577.887 12.1833 590.762 12.3517C647.334 13.1656 703.862 14.8498 760.257 17.4882C778.82 18.3583 797.472 19.3126 815.506 22.1195C828.426 24.1404 841.036 27.0876 854.22 28.2103C868.859 29.4453 883.719 28.4068 898.402 27.3683C922.168 25.6561 946.243 23.9158 968.51 18.4986C982.047 15.1866 994.746 14.1761 1009.47 14.6252C1022.79 15.0182 1035.93 16.7584 1049.2 17.2356C1065.16 17.797 1081.12 16.5619 1097.04 15.8883C1135.05 14.2603 1173.19 15.7199 1211.24 17.1794C1224.52 17.6847 1238.01 18.218 1250.53 20.9967C1261.51 23.4106 1272.49 27.7331 1284.39 27.8454C1290.96 27.9016 1291.41 27.0034 1296.08 29.2488C1298.46 30.3996 1299.92 32.6732 1302.3 33.9643C1311.69 39.0728 1322.62 37.8377 1332.94 34.5257C1343.08 31.2697 1350.58 25.4877 1361.07 22.9615C1371.96 20.3512 1383.96 19.9863 1395.51 19.5933C1541.15 14.6533 1687.14 13.3902 1832.96 15.8322C1854.65 16.1971 1876.88 16.59 1897.38 12.2113C1901.52 11.3132 1906.02 10.2466 1910.17 11.1167C1918.19 12.8288 1915.99 30.2312 1916.65 34.5537C1918.06 43.7602 1919.56 52.9666 1919.56 62.2291C1919.56 115.222 1915.5 169.17 1920 221.882L1919.47 221.685Z" fill="white"/>
</svg>
