<svg xmlns="http://www.w3.org/2000/svg" width="1920" height="218" viewBox="0 0 1920 218" fill="none">
  <path d="M1919.47 210.892C1905.14 210.499 1890.68 210.836 1876.13 211.565V201.152C1882.34 200.085 1886.93 196.521 1886.93 192.226C1886.93 187.118 1880.4 182.964 1872.38 182.964C1864.35 182.964 1857.83 187.118 1857.83 192.226C1857.83 196.521 1862.41 200.085 1868.63 201.152V211.958C1854.92 212.716 1841.12 213.727 1827.32 214.681V201.152C1833.53 200.085 1838.12 196.521 1838.12 192.226C1838.12 187.118 1831.59 182.964 1823.57 182.964C1815.54 182.964 1809.02 187.118 1809.02 192.226C1809.02 196.521 1813.6 200.085 1819.82 201.152V215.186C1806.06 216.084 1792.26 216.814 1778.5 217.095V201.152C1784.72 200.085 1789.31 196.521 1789.31 192.226C1789.31 187.118 1782.78 182.964 1774.76 182.964C1766.73 182.964 1760.21 187.118 1760.21 192.226C1760.21 196.521 1764.79 200.085 1771.01 201.152V217.179C1769.77 217.179 1768.58 217.207 1767.35 217.207C1754.78 217.207 1742.26 217.207 1729.69 217.207V201.152C1735.91 200.085 1740.5 196.521 1740.5 192.226C1740.5 187.118 1733.97 182.964 1725.95 182.964C1717.92 182.964 1711.39 187.118 1711.39 192.226C1711.39 196.521 1715.98 200.085 1722.2 201.152V217.207C1713.51 217.207 1704.82 217.207 1696.14 217.207C1691.07 217.207 1686 217.207 1680.88 217.207V201.18C1687.1 200.113 1691.68 196.549 1691.68 192.254C1691.68 187.146 1685.16 182.992 1677.13 182.992C1669.11 182.992 1662.58 187.146 1662.58 192.254C1662.58 196.549 1667.17 200.113 1673.39 201.18V217.179C1657.25 217.179 1641.07 217.179 1624.93 217.123V201.152C1631.14 200.085 1635.73 196.521 1635.73 192.226C1635.73 187.118 1629.2 182.964 1621.18 182.964C1613.15 182.964 1606.63 187.118 1606.63 192.226C1606.63 196.521 1611.21 200.085 1617.43 201.152V217.123C1603.67 217.123 1589.87 217.123 1576.12 217.095V201.18C1582.33 200.113 1586.92 196.549 1586.92 192.254C1586.92 187.146 1580.39 182.992 1572.37 182.992C1564.34 182.992 1557.82 187.146 1557.82 192.254C1557.82 196.549 1562.4 200.113 1568.62 201.18V217.095C1567.56 217.095 1566.55 217.095 1565.49 217.095C1552.17 217.095 1538.81 217.039 1525.5 217.039V201.18C1531.71 200.113 1536.3 196.549 1536.3 192.254C1536.3 187.146 1529.77 182.992 1521.75 182.992C1513.72 182.992 1507.2 187.146 1507.2 192.254C1507.2 196.549 1511.78 200.113 1518 201.18V217.011C1504.24 217.011 1490.44 216.954 1476.69 216.954V201.18C1482.9 200.113 1487.49 196.549 1487.49 192.254C1487.49 187.146 1480.96 182.992 1472.94 182.992C1464.91 182.992 1458.39 187.146 1458.39 192.254C1458.39 196.549 1462.97 200.113 1469.19 201.18V216.954C1455.43 216.954 1441.63 216.926 1427.87 216.898V201.208C1434.09 200.141 1438.68 196.577 1438.68 192.282C1438.68 187.174 1432.15 183.02 1424.13 183.02C1416.1 183.02 1409.58 187.174 1409.58 192.282C1409.58 196.577 1414.16 200.141 1420.38 201.208V216.898C1406.62 216.898 1392.82 216.87 1379.06 216.842V201.208C1385.28 200.141 1389.87 196.577 1389.87 192.282C1389.87 187.174 1383.34 183.02 1375.32 183.02C1367.29 183.02 1360.76 187.174 1360.76 192.282C1360.76 196.577 1365.35 200.141 1371.57 201.208V216.814C1357.81 216.814 1344.01 216.758 1330.25 216.73V201.208C1336.47 200.141 1341.05 196.577 1341.05 192.282C1341.05 187.174 1334.53 183.02 1326.5 183.02C1318.48 183.02 1311.95 187.174 1311.95 192.282C1311.95 196.577 1316.54 200.141 1322.76 201.208V216.702C1309 216.674 1295.2 216.646 1281.44 216.59V201.18C1287.66 200.113 1292.24 196.549 1292.24 192.254C1292.24 187.146 1285.72 182.992 1277.69 182.992C1269.67 182.992 1263.14 187.146 1263.14 192.254C1263.14 196.549 1267.73 200.113 1273.94 201.18V216.561C1260.19 216.533 1246.39 216.505 1232.63 216.477V201.18C1238.85 200.113 1243.43 196.549 1243.43 192.254C1243.43 187.146 1236.91 182.992 1228.88 182.992C1220.86 182.992 1214.33 187.146 1214.33 192.254C1214.33 196.549 1218.92 200.113 1225.13 201.18V216.449C1211.38 216.421 1197.57 216.393 1183.82 216.337V201.152C1190.03 200.085 1194.62 196.521 1194.62 192.226C1194.62 187.118 1188.09 182.964 1180.07 182.964C1172.04 182.964 1165.52 187.118 1165.52 192.226C1165.52 196.521 1170.1 200.085 1176.32 201.152V216.309C1171.47 216.309 1166.62 216.309 1161.82 216.281C1152.91 216.281 1143.96 216.225 1135.05 216.197V201.152C1141.27 200.085 1145.85 196.521 1145.85 192.226C1145.85 187.118 1139.33 182.964 1131.3 182.964C1123.28 182.964 1116.75 187.118 1116.75 192.226C1116.75 196.521 1121.34 200.085 1127.55 201.152V216.169C1111.42 216.112 1095.23 216.056 1079.1 216.028V201.18C1085.31 200.113 1089.9 196.549 1089.9 192.254C1089.9 187.146 1083.37 182.992 1075.35 182.992C1067.32 182.992 1060.8 187.146 1060.8 192.254C1060.8 196.549 1065.38 200.113 1071.6 201.18V216.028C1057.84 215.972 1044.04 215.944 1030.28 215.888V201.18C1036.5 200.113 1041.09 196.549 1041.09 192.254C1041.09 187.146 1034.56 182.992 1026.54 182.992C1018.51 182.992 1011.99 187.146 1011.99 192.254C1011.99 196.549 1016.57 200.113 1022.79 201.18V215.86C1008.41 215.804 994.04 215.776 979.666 215.719V201.18C985.883 200.113 990.469 196.549 990.469 192.254C990.469 187.146 983.943 182.992 975.918 182.992C967.893 182.992 961.367 187.146 961.367 192.254C961.367 196.549 965.953 200.113 972.17 201.18V215.691C958.413 215.635 944.611 215.607 930.854 215.551V201.152C937.071 200.085 941.657 196.521 941.657 192.226C941.657 187.118 935.131 182.964 927.106 182.964C919.081 182.964 912.556 187.118 912.556 192.226C912.556 196.521 917.141 200.085 923.358 201.152V215.523C909.601 215.467 895.8 215.411 882.043 215.383V201.18C888.26 200.113 892.846 196.549 892.846 192.254C892.846 187.146 886.32 182.992 878.295 182.992C870.27 182.992 863.744 187.146 863.744 192.254C863.744 196.549 868.33 200.113 874.547 201.18V215.355C860.79 215.298 846.989 215.242 833.232 215.214V201.18C839.449 200.113 844.034 196.549 844.034 192.254C844.034 187.146 837.509 182.992 829.484 182.992C821.459 182.992 814.933 187.146 814.933 192.254C814.933 196.549 819.519 200.113 825.736 201.18V215.186C811.979 215.13 798.177 215.074 784.42 215.046V201.18C790.638 200.113 795.223 196.549 795.223 192.254C795.223 187.146 788.697 182.992 780.672 182.992C772.647 182.992 766.122 187.146 766.122 192.254C766.122 196.549 770.707 200.113 776.924 201.18V215.018C763.167 214.962 749.366 214.905 735.609 214.877V201.208C741.826 200.141 746.412 196.577 746.412 192.282C746.412 187.174 739.886 183.02 731.861 183.02C723.836 183.02 717.31 187.174 717.31 192.282C717.31 196.577 721.896 200.141 728.113 201.208V214.849C718.148 214.821 708.227 214.765 698.262 214.737C694.426 214.737 690.59 214.737 686.798 214.737V201.236C693.015 200.17 697.601 196.605 697.601 192.31C697.601 187.202 691.075 183.048 683.05 183.048C675.025 183.048 668.499 187.202 668.499 192.31C668.499 196.605 673.085 200.17 679.302 201.236V214.737C665.545 214.681 651.744 214.653 637.986 214.653V201.264C644.204 200.198 648.789 196.633 648.789 192.338C648.789 187.23 642.263 183.076 634.238 183.076C626.213 183.076 619.688 187.23 619.688 192.338C619.688 196.633 624.273 200.198 630.491 201.264V214.653C616.733 214.653 602.932 214.625 589.175 214.625V201.292C595.392 200.226 599.978 196.661 599.978 192.367C599.978 187.258 593.452 183.104 585.427 183.104C577.402 183.104 570.876 187.258 570.876 192.367C570.876 196.661 575.462 200.226 581.679 201.292V214.625C565.541 214.625 549.359 214.625 533.221 214.625V201.292C539.438 200.226 544.023 196.661 544.023 192.367C544.023 187.258 537.498 183.104 529.473 183.104C521.448 183.104 514.922 187.258 514.922 192.367C514.922 196.661 519.508 200.226 525.725 201.292V214.653C511.968 214.653 498.166 214.709 484.409 214.737V201.32C490.626 200.254 495.212 196.689 495.212 192.395C495.212 187.286 488.686 183.132 480.661 183.132C472.636 183.132 466.111 187.286 466.111 192.395C466.111 196.689 470.696 200.254 476.913 201.32V214.765C462.539 214.793 448.165 214.821 433.79 214.849V201.32C440.007 200.254 444.593 196.689 444.593 192.395C444.593 187.286 438.067 183.132 430.042 183.132C422.017 183.132 415.491 187.286 415.491 192.395C415.491 196.689 420.077 200.254 426.294 201.32V214.877C412.537 214.905 398.736 214.962 384.979 214.99V201.32C391.196 200.254 395.782 196.689 395.782 192.395C395.782 187.286 389.256 183.132 381.231 183.132C373.206 183.132 366.68 187.286 366.68 192.395C366.68 196.689 371.266 200.254 377.483 201.32V215.018C363.726 215.074 349.925 215.102 336.168 215.158V201.32C342.385 200.254 346.97 196.689 346.97 192.395C346.97 187.286 340.445 183.132 332.42 183.132C324.395 183.132 317.869 187.286 317.869 192.395C317.869 196.689 322.454 200.254 328.672 201.32V215.186C314.915 215.242 301.113 215.27 287.356 215.326V201.32C293.573 200.254 298.159 196.689 298.159 192.395C298.159 187.286 291.633 183.132 283.608 183.132C275.583 183.132 269.057 187.286 269.057 192.395C269.057 196.689 273.643 200.254 279.86 201.32V215.355C266.103 215.411 252.302 215.439 238.545 215.495V201.348C244.762 200.282 249.348 196.717 249.348 192.423C249.348 187.314 242.822 183.16 234.797 183.16C226.772 183.16 220.246 187.314 220.246 192.423C220.246 196.717 224.832 200.282 231.049 201.348V215.523C217.292 215.579 203.491 215.607 189.734 215.663V201.348C195.951 200.282 200.536 196.717 200.536 192.423C200.536 187.314 194.011 183.16 185.986 183.16C177.961 183.16 171.435 187.314 171.435 192.423C171.435 196.717 176.021 200.282 182.238 201.348V215.691C168.481 215.719 154.679 215.747 140.922 215.804V201.376C147.139 200.31 151.725 196.745 151.725 192.451C151.725 187.342 145.199 183.188 137.174 183.188C129.149 183.188 122.624 187.342 122.624 192.451C122.624 196.745 127.209 200.31 133.426 201.376V215.832C119.669 215.86 105.868 215.888 92.111 215.916V201.376C98.3281 200.31 102.914 196.745 102.914 192.451C102.914 187.342 96.388 183.188 88.363 183.188C80.338 183.188 73.8122 187.342 73.8122 192.451C73.8122 196.745 78.3979 200.31 84.6151 201.376V215.944C70.858 215.944 57.0568 215.972 43.2996 215.972V201.376C49.5168 200.31 54.1025 196.745 54.1025 192.451C54.1025 187.342 47.5767 183.188 39.5517 183.188C31.5267 183.188 25.0009 187.342 25.0009 192.451C25.0009 196.745 29.5866 200.31 35.8038 201.376V215.972C28.3079 215.972 20.768 215.972 13.2721 215.972C9.1714 215.888 5.07073 215.776 0.925956 215.607V112.821C0.925956 77.9319 2.55741 42.3412 0 7.5645C3.65975 7.84518 7.45177 7.73291 11.0233 7.5645C17.2846 7.28381 23.4576 6.66632 29.6748 6.04883C36.0243 5.43132 42.3737 5.0945 48.7672 4.64542C59.3937 3.88756 70.0202 2.93323 80.7349 2.65254C91.4936 2.37186 102.076 3.18585 112.747 3.71915C123.329 4.28052 133.956 4.70152 144.538 4.98221C165.35 5.54358 186.206 5.51552 207.018 4.70154C217.865 4.28052 228.624 3.83142 239.515 3.71915C250.141 3.60687 260.768 3.63493 271.394 3.38231C281.8 3.15776 292.251 2.09117 302.657 2.28766C312.445 2.48413 322.102 3.69106 331.626 4.95413C341.282 6.24529 350.939 7.6487 360.772 8.2662C369.899 8.82758 379.203 8.65916 388.374 8.2662C397.898 7.84517 407.378 7.00314 416.682 5.74007C425.457 4.53313 434.055 2.23151 443.05 1.75435C461.613 0.771957 473.651 9.33281 492.655 8.99599C512.894 8.6311 532.206 4.05595 552.181 2.34378C564.924 1.24911 577.887 1.38947 590.762 1.55788C647.334 2.37186 703.862 4.05595 760.257 6.69438C778.82 7.5645 797.472 8.51883 815.506 11.3257C828.425 13.3466 841.036 16.2938 854.22 17.4165C868.859 18.6515 883.719 17.613 898.402 16.5744C922.168 14.8623 946.243 13.122 968.51 7.70485C982.047 4.39278 994.746 3.38234 1009.47 3.83144C1022.79 4.22438 1035.93 5.96461 1049.2 6.44179C1065.16 7.00314 1081.12 5.76814 1097.04 5.0945C1135.05 3.46654 1173.19 4.92609 1211.24 6.38564C1224.52 6.89087 1238.01 7.42416 1250.53 10.2029C1261.51 12.6168 1272.49 16.9393 1284.39 17.0516C1290.96 17.1078 1291.41 16.2096 1296.08 18.455C1298.46 19.6058 1299.92 21.8794 1302.3 23.1705C1311.69 28.279 1322.62 27.0439 1332.94 23.7319C1343.08 20.476 1350.58 14.6939 1361.07 12.1677C1371.96 9.55736 1383.96 9.19246 1395.51 8.7995C1541.15 3.85948 1687.14 2.59642 1832.96 5.03838C1854.65 5.40326 1876.88 5.79622 1897.38 1.41754C1901.52 0.519363 1906.02 -0.547241 1910.17 0.322876C1918.19 2.03505 1915.99 19.4374 1916.65 23.7599C1918.06 32.9664 1919.56 42.1728 1919.56 51.4353C1919.56 104.428 1915.5 158.376 1920 211.088L1919.47 210.892Z" fill="white"/>
</svg>