<svg width="200" height="72" viewBox="0 0 200 72" fill="none" xmlns="http://www.w3.org/2000/svg">
<path d="M0 0V72H3.57966V0H0Z" fill="#A6BBCE"/>
<path d="M7.59375 0V72H11.1734V0H7.59375Z" fill="#A6BBCE"/>
<path d="M12.5703 0V72H21.3975V0H12.5703Z" fill="#A6BBCE"/>
<path d="M23.9141 0V72H25.2601V0H23.9141Z" fill="#A6BBCE"/>
<path d="M131.258 0V72H132.604V0H131.258Z" fill="#A6BBCE"/>
<path d="M161.516 0V72H162.862V0H161.516Z" fill="#A6BBCE"/>
<path d="M195.5 0V72H196.846V0H195.5Z" fill="#A6BBCE"/>
<path d="M198.656 0V72H200.002V0H198.656Z" fill="#A6BBCE"/>
<path d="M30.3906 0V72H33.9703V0H30.3906Z" fill="#A6BBCE"/>
<path d="M37.9922 0V72H39.7771V0H37.9922Z" fill="#A6BBCE"/>
<path d="M41.6172 0V72H43.4021V0H41.6172Z" fill="#A6BBCE"/>
<path d="M45.6016 0V72H49.1812V0H45.6016Z" fill="#A6BBCE"/>
<path d="M51 0V72H58.9688V0H51Z" fill="#A6BBCE"/>
<path d="M60.7266 0V72H62.6481V0H60.7266Z" fill="#A6BBCE"/>
<path d="M68.3906 0V72H71.9703V0H68.3906Z" fill="#A6BBCE"/>
<path d="M73.9141 0V72H77.4937V0H73.9141Z" fill="#A6BBCE"/>
<path d="M81.7812 0V72H88.9795V0H81.7812Z" fill="#A6BBCE"/>
<path d="M91.1875 0V72H94.7672V0H91.1875Z" fill="#A6BBCE"/>
<path d="M98.7969 0V72H102.377V0H98.7969Z" fill="#A6BBCE"/>
<path d="M108.984 0V72H112.564V0H108.984Z" fill="#A6BBCE"/>
<path d="M113.992 0V72H117.572V0H113.992Z" fill="#A6BBCE"/>
<path d="M121.586 0V72H125.166V0H121.586Z" fill="#A6BBCE"/>
<path d="M135.812 0V72H141.343V0H135.812Z" fill="#A6BBCE"/>
<path d="M144.383 0V72H147.962V0H144.383Z" fill="#A6BBCE"/>
<path d="M151.992 0V72H155.572V0H151.992Z" fill="#A6BBCE"/>
<path d="M165.453 0V72H172.505V0H165.453Z" fill="#A6BBCE"/>
<path d="M174.789 0V72H178.369V0H174.789Z" fill="#A6BBCE"/>
<path d="M182.383 0V72H185.962V0H182.383Z" fill="#A6BBCE"/>
<path d="M186.828 0V72H190.408V0H186.828Z" fill="#A6BBCE"/>
</svg>
