<svg width="46" height="46" viewBox="0 0 46 46" fill="none" xmlns="http://www.w3.org/2000/svg">
<path fill-rule="evenodd" clip-rule="evenodd" d="M44.4241 23.1832C44.4241 21.576 44.2799 20.0305 44.012 18.5469H22.6641V27.3148H34.8629C34.3374 30.1481 32.7404 32.5487 30.3398 34.156V39.8433H37.6653C41.9514 35.8972 44.4241 30.0863 44.4241 23.1832Z" fill="#4285F4"/>
<path fill-rule="evenodd" clip-rule="evenodd" d="M22.6699 45.3366C28.7899 45.3366 33.9208 43.3069 37.6711 39.8451L30.3456 34.1578C28.3159 35.5178 25.7196 36.3214 22.6699 36.3214C16.7662 36.3214 11.7692 32.3341 9.9868 26.9766H2.41406V32.8493C6.14376 40.2572 13.8092 45.3366 22.6699 45.3366Z" fill="#34A853"/>
<path fill-rule="evenodd" clip-rule="evenodd" d="M9.98365 26.9705C9.53032 25.6105 9.27274 24.1577 9.27274 22.6638C9.27274 21.1698 9.53032 19.7171 9.98365 18.3571V12.4844H2.41091C0.875759 15.5444 0 19.0062 0 22.6638C0 26.3214 0.875759 29.7832 2.41091 32.8432L9.98365 26.9705Z" fill="#FBBC05"/>
<path fill-rule="evenodd" clip-rule="evenodd" d="M22.6699 9.01517C25.9977 9.01517 28.9856 10.1588 31.3347 12.4049L37.8359 5.90365C33.9105 2.24606 28.7796 0 22.6699 0C13.8092 0 6.14376 5.0794 2.41406 12.4873L9.9868 18.36C11.7692 13.0024 16.7662 9.01517 22.6699 9.01517Z" fill="#EA4335"/>
</svg>
