<svg width="40" height="40" viewBox="0 0 40 40" fill="none" xmlns="http://www.w3.org/2000/svg">
<path d="M36.6693 20.0007C36.6693 29.2054 29.2073 36.6673 20.0026 36.6673C10.7979 36.6673 3.33594 29.2054 3.33594 20.0007C3.33594 10.7959 10.7979 3.33398 20.0026 3.33398C29.2073 3.33398 36.6693 10.7959 36.6693 20.0007Z" fill="#D5E8F9"/>
<path d="M20.0088 3.33398C29.2169 3.3342 36.6816 10.7987 36.6816 20.0068C36.6815 23.4455 35.6391 26.6434 33.8535 29.2988C33.5744 29.714 33.2763 30.1154 32.9619 30.5029L32.9648 30.5107L32.6689 30.8555C32.5574 30.9855 32.4426 31.1128 32.3271 31.2393C32.293 31.2767 32.2581 31.3135 32.2236 31.3506C32.1558 31.4236 32.0877 31.4965 32.0186 31.5684C31.9655 31.6234 31.9122 31.6781 31.8584 31.7324C31.8061 31.7853 31.7532 31.8375 31.7002 31.8896C31.6419 31.947 31.5835 32.0041 31.5244 32.0605C31.4621 32.1201 31.3991 32.1788 31.3359 32.2373C31.2864 32.2832 31.2376 32.3297 31.1875 32.375C31.108 32.4469 31.0272 32.5175 30.9463 32.5879C30.9122 32.6176 30.8781 32.6473 30.8438 32.6768C30.7546 32.7531 30.6641 32.8279 30.5732 32.9023C30.3826 33.0587 30.1888 33.2114 29.9912 33.3594C29.8947 33.4317 29.7974 33.503 29.6992 33.5732C29.6705 33.5938 29.6412 33.6134 29.6123 33.6338C29.5172 33.701 29.4218 33.7678 29.3252 33.833C29.2695 33.8706 29.2134 33.9074 29.1572 33.9443C29.0782 33.9963 28.9989 34.048 28.9189 34.0986C28.8716 34.1286 28.824 34.158 28.7764 34.1875C28.6793 34.2476 28.5818 34.307 28.4834 34.3652C28.4447 34.3881 28.4061 34.411 28.3672 34.4336C28.2695 34.4903 28.1712 34.5458 28.0723 34.6006C28.0302 34.6239 27.9886 34.648 27.9463 34.6709C27.8226 34.738 27.6978 34.8032 27.5723 34.8672C27.5657 34.8706 27.5594 34.8746 27.5527 34.8779C27.4004 34.9554 27.2468 35.0307 27.0918 35.1035C27.0375 35.129 26.9824 35.1528 26.9277 35.1777C26.8359 35.2197 26.744 35.2614 26.6514 35.3018C26.5885 35.3291 26.5252 35.3553 26.4619 35.3818C26.3743 35.4187 26.2867 35.4558 26.1982 35.4912C26.147 35.5117 26.0955 35.5317 26.0439 35.5518C25.9271 35.5972 25.8095 35.6408 25.6914 35.6836C25.6667 35.6925 25.6419 35.7011 25.6172 35.71C25.4902 35.7553 25.3627 35.7994 25.2344 35.8418C25.1976 35.8539 25.1609 35.8661 25.124 35.8779C25.0181 35.9121 24.9115 35.9445 24.8047 35.9766C24.7483 35.9935 24.6924 36.012 24.6357 36.0283C24.5082 36.0651 24.3797 36.099 24.251 36.1328C24.2239 36.1399 24.197 36.1473 24.1699 36.1543C24.0252 36.1915 23.8796 36.2264 23.7334 36.2598C23.6733 36.2735 23.6131 36.2867 23.5527 36.2998C23.4382 36.3246 23.3235 36.3496 23.208 36.3721C23.1509 36.3832 23.0935 36.3928 23.0361 36.4033C22.9271 36.4233 22.8177 36.4421 22.708 36.46C22.6566 36.4683 22.6052 36.4765 22.5537 36.4844C22.4453 36.501 22.3366 36.5167 22.2275 36.5312C22.1557 36.5408 22.0838 36.55 22.0117 36.5586C21.9208 36.5695 21.8297 36.5794 21.7383 36.5889C21.6697 36.5959 21.6011 36.6031 21.5322 36.6094C21.4202 36.6195 21.3079 36.6278 21.1953 36.6357C21.1397 36.6397 21.0841 36.6441 21.0283 36.6475C20.9108 36.6546 20.793 36.6594 20.6748 36.6641C20.6218 36.6661 20.5688 36.6693 20.5156 36.6709C20.3473 36.6759 20.1783 36.6797 20.0088 36.6797L19.5352 36.6729C19.5234 36.6725 19.5117 36.6712 19.5 36.6709C19.4465 36.6693 19.3932 36.6662 19.3398 36.6641C19.2223 36.6594 19.1051 36.6545 18.9883 36.6475C18.9325 36.6441 18.8769 36.6397 18.8213 36.6357C18.7087 36.6278 18.5964 36.6195 18.4844 36.6094C18.4146 36.603 18.3449 36.5961 18.2754 36.5889C18.187 36.5797 18.0988 36.5701 18.0107 36.5596C17.9344 36.5504 17.8583 36.5404 17.7822 36.5303C17.6781 36.5164 17.5743 36.5012 17.4707 36.4854C17.4156 36.4769 17.3606 36.4689 17.3057 36.46C17.2005 36.4428 17.0957 36.4244 16.9912 36.4053C16.9283 36.3938 16.8654 36.3833 16.8027 36.3711C16.6775 36.3467 16.5529 36.3202 16.4287 36.293C16.3948 36.2856 16.361 36.2781 16.3271 36.2705C16.1665 36.2343 16.0065 36.1971 15.8477 36.1562C15.8091 36.1463 15.7709 36.1352 15.7324 36.125C15.6164 36.0943 15.5008 36.0624 15.3857 36.0293C15.3249 36.0118 15.2646 35.9928 15.2041 35.9746C15.1034 35.9443 15.0032 35.913 14.9033 35.8809C14.859 35.8666 14.8147 35.8525 14.7705 35.8379C14.6492 35.7978 14.5283 35.7567 14.4082 35.7139C14.3766 35.7026 14.345 35.6912 14.3135 35.6797C14.197 35.6373 14.0811 35.5937 13.9658 35.5488C13.9203 35.5311 13.8744 35.5142 13.8291 35.4961C13.7325 35.4575 13.6367 35.4173 13.541 35.377C13.482 35.3521 13.4229 35.3273 13.3643 35.3018C13.2716 35.2614 13.1797 35.2197 13.0879 35.1777C13.0335 35.1529 12.9788 35.1289 12.9248 35.1035C12.7698 35.0307 12.6162 34.9554 12.4639 34.8779C12.457 34.8744 12.4502 34.8707 12.4434 34.8672C12.3181 34.8033 12.1937 34.7379 12.0703 34.6709C12.0278 34.6478 11.9857 34.624 11.9434 34.6006C11.8445 34.5458 11.7461 34.4903 11.6484 34.4336C11.6096 34.411 11.5709 34.3881 11.5322 34.3652C11.4339 34.307 11.3363 34.2476 11.2393 34.1875C11.1916 34.158 11.144 34.1286 11.0967 34.0986C11.0167 34.048 10.9374 33.9963 10.8584 33.9443C10.8005 33.9063 10.7429 33.8679 10.6855 33.8291C10.5992 33.7707 10.5129 33.7123 10.4277 33.6523C10.3893 33.6253 10.3507 33.5986 10.3125 33.5713C10.2333 33.5146 10.1553 33.4565 10.0771 33.3984C9.86679 33.2422 9.66058 33.0808 9.45801 32.915C9.36066 32.8354 9.26346 32.7556 9.16797 32.6738C9.13485 32.6455 9.10223 32.6165 9.06934 32.5879C8.98338 32.5131 8.89787 32.4378 8.81348 32.3613C8.77507 32.3265 8.73729 32.291 8.69922 32.2559C8.62697 32.1891 8.55543 32.1217 8.48438 32.0537C8.43596 32.0074 8.38769 31.961 8.33984 31.9141C8.26355 31.8393 8.18813 31.7637 8.11328 31.6875C8.08263 31.6563 8.05189 31.6252 8.02148 31.5938C7.94801 31.5178 7.87574 31.4406 7.80371 31.3633C7.75835 31.3146 7.71275 31.2661 7.66797 31.2168C7.61742 31.1612 7.56738 31.1051 7.51758 31.0488C7.46072 30.9846 7.40353 30.9206 7.34766 30.8555L7.05176 30.5107L7.05371 30.5029C6.73941 30.1155 6.44213 29.7138 6.16309 29.2988C4.37765 26.6435 3.33604 23.4454 3.33594 20.0068C3.33594 10.7986 10.8005 3.33398 20.0088 3.33398ZM20.0088 5C11.721 5 5.00195 11.7191 5.00195 20.0068C5.00205 23.1039 5.9395 25.9801 7.5459 28.3691C7.61381 28.4701 7.68363 28.5697 7.75391 28.6689C9.07083 26.1628 11.6995 24.4531 14.7285 24.4531H25.2881C28.3168 24.4532 30.9437 26.1632 32.2607 28.6689C32.3312 28.5694 32.4026 28.4704 32.4707 28.3691C34.0772 25.98 35.0145 23.104 35.0146 20.0068C35.0146 11.7192 28.2964 5.00021 20.0088 5ZM20.1914 8.76953C23.8037 8.76993 26.7323 11.6992 26.7324 15.3115C26.7323 18.9239 23.8038 21.8521 20.1914 21.8525C16.5787 21.8525 13.6495 18.9242 13.6494 15.3115C13.6496 11.6989 16.5788 8.76953 20.1914 8.76953Z" fill="#82BEF5"/>
</svg>
