<svg width="24" height="24" viewBox="0 0 24 24" fill="none" xmlns="http://www.w3.org/2000/svg">
<path d="M18 2C19.6569 2 21 3.34315 21 5C21 6.65685 19.6569 8 18 8C17.2601 8 16.5839 7.73105 16.0615 7.28809L8.94629 11.4385C8.98088 11.6207 9 11.8083 9 12C9 12.1913 8.98076 12.3786 8.94629 12.5605L16.0615 16.7109C16.5839 16.2682 17.2603 16 18 16C19.6569 16 21 17.3431 21 19C21 20.6569 19.6569 22 18 22C16.3431 22 15 20.6569 15 19C15 18.8084 15.0182 18.6206 15.0527 18.4385L7.9375 14.2881C7.41517 14.7308 6.73968 15 6 15C4.34315 15 3 13.6569 3 12C3 10.3431 4.34315 9 6 9C6.73945 9 7.41523 9.2685 7.9375 9.71094L15.0527 5.56055C15.0183 5.37868 15 5.19129 15 5C15 3.34315 16.3431 2 18 2Z" fill="#A6BBCE"/>
</svg>
