<svg width="100" height="100" viewBox="0 0 100 100" fill="none" xmlns="http://www.w3.org/2000/svg">
<rect width="100" height="100" fill="white"/>
<g clip-path="url(#clip0_1334_30463)">
<path d="M51.8032 50.7384V15.8032C51.8032 14.8073 50.9959 14 50 14C49.0041 14 48.1968 14.8073 48.1968 15.8032V50.7384C48.1968 51.7343 49.0041 52.5416 50 52.5416C50.9959 52.5416 51.8032 51.7343 51.8032 50.7384Z" fill="#FF8787"/>
<path d="M49.9789 56.7573C59.8912 56.7573 67.9266 48.6334 67.9266 38.6121C67.9266 28.5908 59.8912 20.4669 49.9789 20.4669C40.0667 20.4669 32.0312 28.5908 32.0312 38.6121C32.0312 48.6334 40.0667 56.7573 49.9789 56.7573Z" fill="#EEF7FC"/>
<path d="M51.8032 20.5637C51.2015 20.5017 50.596 20.4707 49.9789 20.4707C49.3619 20.4707 48.7832 20.5017 48.1968 20.5599V52.5416H51.8032V20.5637Z" fill="#FF8787"/>
<path d="M33.9283 35.9386C33.8823 35.9386 33.8364 35.9347 33.7865 35.9231C33.4109 35.8456 33.1695 35.4736 33.2461 35.0939C34.8251 27.3832 41.3634 21.7378 49.1473 21.3619C49.5267 21.3464 49.8563 21.6409 49.8716 22.0284C49.8908 22.4158 49.5957 22.7452 49.2124 22.7607C42.0609 23.1055 36.0554 28.2938 34.6029 35.3767C34.5339 35.7099 34.2464 35.9347 33.9245 35.9347L33.9283 35.9386Z" fill="white"/>
<path d="M50.0019 39.9954H32.1769L35.7603 82.001C35.8638 83.1983 36.8525 84.1166 38.0406 84.1166H61.9594C63.1475 84.1166 64.1362 83.1983 64.2397 82.001L67.8231 39.9954H49.9981H50.0019Z" fill="#FFB56F"/>
<path d="M68.8081 37.7984H31.1919C30.5327 37.7984 30 38.337 30 39.0034V41.2624C30 41.7777 30.4139 42.1962 30.9236 42.1962H69.0725C69.5823 42.1962 69.9962 41.7777 69.9962 41.2624V39.0034C69.9962 38.337 69.4634 37.7984 68.8043 37.7984H68.8081Z" fill="#D1CCCC"/>
<path d="M32.564 44.521H67.4399L67.6353 42.1962H32.3647L32.564 44.521Z" fill="#B4B3B3"/>
<path d="M61.6643 84.1166H38.2169V85H61.6643V84.1166Z" fill="#B4B3B3"/>
<path d="M35.1318 74.6078H64.8722L66.8344 51.6076H33.1658L35.1318 74.6078Z" fill="#B4B3B3"/>
<path d="M33.3076 53.2426L33.3728 54.002H66.6314L66.6927 53.2426H33.3076Z" fill="#D1CCCC"/>
<path d="M65.0026 73.0539L65.0677 72.2945H34.9326L34.9978 73.0539H65.0026Z" fill="#D1CCCC"/>
<path d="M61 63.5C61 67.6421 56.0751 71 50 71C43.9249 71 39 67.6421 39 63.5C39 59.3579 43.9249 56 50 56C56.0751 56 61 59.3579 61 63.5Z" fill="#F1F1F1"/>
<path d="M56.6983 63.722H56.7963C57.1673 63.715 57.6503 63.687 57.8603 63.659C57.8603 63.379 57.6783 63.197 57.2933 63.197C56.9433 63.197 56.7403 63.379 56.6983 63.722ZM55.8793 64.149C55.8513 63.015 56.4533 62.448 57.3143 62.448C58.1613 62.448 58.6443 63.015 58.6443 63.96C58.6443 64.156 58.5463 64.268 58.3923 64.296C57.7693 64.401 57.0343 64.443 56.7053 64.436C56.7543 64.793 57.0273 64.975 57.3913 64.975C57.6993 64.975 57.8533 64.898 57.9863 64.723C58.0703 64.611 58.2803 64.632 58.3923 64.709C58.5323 64.807 58.6373 64.975 58.5813 65.143C58.3573 65.57 57.9093 65.745 57.4123 65.738C56.4043 65.724 55.9003 65.122 55.8793 64.149Z" fill="#B4B3B3"/>
<path d="M53.5127 63.722H53.6107C53.9817 63.715 54.4647 63.687 54.6747 63.659C54.6747 63.379 54.4927 63.197 54.1077 63.197C53.7577 63.197 53.5547 63.379 53.5127 63.722ZM52.6937 64.149C52.6657 63.015 53.2677 62.448 54.1287 62.448C54.9757 62.448 55.4587 63.015 55.4587 63.96C55.4587 64.156 55.3607 64.268 55.2067 64.296C54.5837 64.401 53.8487 64.443 53.5197 64.436C53.5687 64.793 53.8417 64.975 54.2057 64.975C54.5137 64.975 54.6677 64.898 54.8007 64.723C54.8847 64.611 55.0947 64.632 55.2067 64.709C55.3467 64.807 55.4517 64.975 55.3957 65.143C55.1717 65.57 54.7237 65.745 54.2267 65.738C53.2187 65.724 52.7147 65.122 52.6937 64.149Z" fill="#B4B3B3"/>
<path d="M51.3896 64.674C51.3896 64.919 51.3896 65.143 51.3686 65.388C51.3476 65.556 51.2286 65.696 50.9766 65.703C50.7036 65.71 50.6056 65.654 50.6056 65.493V63.225H50.2276C50.1086 63.225 50.0806 63.176 50.0806 62.84C50.0806 62.581 50.1716 62.49 50.3396 62.49H50.6056V61.944C50.6056 61.223 51.0186 60.796 51.6206 60.796C52.0406 60.796 52.2296 60.985 52.3696 61.223C52.4466 61.349 52.3766 61.517 52.2646 61.608C52.0406 61.79 51.9286 61.769 51.8726 61.671C51.8166 61.573 51.7396 61.51 51.6136 61.524C51.4526 61.545 51.3686 61.65 51.3686 62.035L51.3756 62.49L51.9496 62.483C52.1316 62.483 52.2226 62.553 52.2226 62.861C52.2226 63.183 52.1666 63.225 52.0616 63.225H51.3826L51.3896 64.674Z" fill="#B4B3B3"/>
<path d="M48.8535 64.674C48.8535 64.919 48.8535 65.143 48.8325 65.388C48.8115 65.556 48.6925 65.696 48.4405 65.703C48.1675 65.71 48.0695 65.654 48.0695 65.493V63.225H47.6915C47.5725 63.225 47.5445 63.176 47.5445 62.84C47.5445 62.581 47.6355 62.49 47.8035 62.49H48.0695V61.944C48.0695 61.223 48.4825 60.796 49.0845 60.796C49.5045 60.796 49.6935 60.985 49.8335 61.223C49.9105 61.349 49.8405 61.517 49.7285 61.608C49.5045 61.79 49.3925 61.769 49.3365 61.671C49.2805 61.573 49.2035 61.51 49.0775 61.524C48.9165 61.545 48.8325 61.65 48.8325 62.035L48.8395 62.49L49.4135 62.483C49.5955 62.483 49.6865 62.553 49.6865 62.861C49.6865 63.183 49.6305 63.225 49.5255 63.225H48.8465L48.8535 64.674Z" fill="#B4B3B3"/>
<path d="M46.0282 62.602C46.8752 62.742 47.1902 63.421 47.1902 64.142C47.1902 64.982 46.7072 65.675 45.7832 65.717C45.1392 65.745 44.3272 65.262 44.3272 64.142C44.3272 63.141 44.9362 62.532 45.8462 62.469C45.9582 62.462 46.0002 62.511 46.0282 62.602ZM45.8042 63.232C45.3352 63.344 45.1252 63.652 45.1252 64.135C45.1252 64.688 45.3632 64.975 45.7692 64.961C46.2032 64.947 46.4132 64.639 46.4132 64.156C46.4132 63.736 46.2522 63.435 45.9162 63.33C45.8532 63.309 45.8182 63.288 45.8042 63.232Z" fill="#B4B3B3"/>
<path d="M43.884 65.143C43.66 65.57 43.226 65.731 42.729 65.738C41.77 65.745 41.182 65.157 41.182 64.149C41.182 63.134 41.84 62.469 42.631 62.448C43.219 62.434 43.618 62.686 43.821 63.043C43.891 63.169 43.856 63.351 43.709 63.449C43.485 63.596 43.324 63.61 43.24 63.449C43.121 63.253 42.967 63.183 42.638 63.211C42.281 63.239 41.987 63.568 41.987 64.135C41.987 64.646 42.253 64.975 42.708 64.975C43.016 64.975 43.156 64.898 43.289 64.723C43.373 64.611 43.583 64.632 43.695 64.709C43.835 64.807 43.94 64.975 43.884 65.143Z" fill="#B4B3B3"/>
</g>
<defs>
<clipPath id="clip0_1334_30463">
<rect width="40" height="71" fill="white" transform="translate(30 14)"/>
</clipPath>
</defs>
</svg>
