<svg width="100" height="100" viewBox="0 0 100 100" fill="none" xmlns="http://www.w3.org/2000/svg">
<path d="M6 31.5438C6 26.2729 10.2729 22 15.5438 22H83.6666C88.9375 22 93.2104 26.2729 93.2104 31.5438V69.3863C93.2104 74.6572 88.9375 78.9302 83.6666 78.9302H15.5438C10.2729 78.9302 6 74.6572 6 69.3863V31.5438Z" fill="#A6BBCE"/>
<path d="M54.8602 35.1758C57.0208 35.176 58.5451 36.4977 58.8924 38.1748C59.0658 39.064 58.641 39.4959 58.2166 39.6992C57.4644 40.004 57.1176 39.9278 57.0018 39.3945C56.7703 38.4036 55.9211 37.8439 54.8602 37.8945C53.529 37.9708 52.9691 38.6827 52.9305 39.8262C52.8919 40.7664 53.4128 41.5795 55.2068 42.2402C58.5639 43.46 59.5477 45.1883 59.5477 47.7041C59.5477 50.347 58.1202 52.4814 55.0526 52.5068C52.3709 52.5322 50.6156 50.7786 50.3455 48.1357C50.307 47.3737 50.5769 47.0431 51.3484 46.916C51.9079 46.8144 52.294 47.0434 52.4676 47.7041C52.8149 49.0509 53.6828 49.7626 55.0526 49.7627C56.5188 49.7373 57.3104 48.9239 57.3104 47.7295C57.3103 46.5097 56.7696 45.519 54.8211 44.9346C51.7728 44.0197 50.7313 42.1894 50.7313 39.9785C50.7314 37.0562 52.6415 35.1758 54.8602 35.1758Z" fill="#001F33"/>
<path d="M47.1883 35.6582C47.362 35.1502 47.8253 35.0742 48.3846 35.3789C49.1177 35.7855 49.369 36.4723 49.2147 36.9297C47.9992 40.5891 46.2629 46.6371 44.7967 52.0498C44.353 52.558 43.2147 52.5578 42.8094 52.0498C41.2274 45.7222 39.8567 41.0972 38.4676 36.9805C38.2361 36.3197 38.4297 35.8617 39.2401 35.4297C39.78 35.1504 40.3004 35.2267 40.532 35.6836C41.516 38.5806 42.8674 43.3841 43.8514 47.5518C44.8739 43.3333 46.0886 38.911 47.1883 35.6582Z" fill="#001F33"/>
<path d="M65.3337 67.9253C65.3337 65.817 67.0429 64.1078 69.1513 64.1078H82.7434C84.8518 64.1078 86.5609 65.817 86.5609 67.9253V71.07C86.5609 73.1783 84.8518 74.8875 82.7434 74.8875H69.1513C67.0429 74.8875 65.3337 73.1783 65.3337 71.07V67.9253Z" fill="#CBD5DF"/>
<path d="M82.7429 63.2699C84.2852 63.2293 85.3145 63.8609 85.9626 64.4115C86.6509 64.9672 87.498 66.3621 87.4304 67.9252C87.4055 68.7281 87.3916 69.5572 87.4207 70.3041C87.4296 70.5334 87.4367 70.7911 87.4421 71.0697C87.4817 72.1643 86.9911 73.5612 86.0105 74.4818C85.0513 75.4298 83.7116 75.828 82.7429 75.8412C82.5127 75.8506 82.3059 75.8616 82.1287 75.8754C80.5594 75.9975 80.5559 75.7314 79.2878 75.5824C78.0196 75.4335 77.0211 76.0914 75.4753 75.9984C73.9295 75.9054 73.6978 75.5566 71.9275 75.6351C70.9466 75.6787 69.9652 75.6245 69.1511 75.5922C68.3728 75.5668 67.7575 75.3543 67.3503 75.2475C66.4397 74.9426 66.5393 74.5681 65.6648 73.6791C64.9318 72.8095 64.7614 71.9778 64.8533 71.0697C64.8671 70.9649 64.8821 70.8571 64.8982 70.7455C64.9762 70.2038 65.048 69.041 65.0671 67.9252C65.0707 66.9528 65.4551 66.0771 65.6951 65.601C66.225 64.4454 67.7342 64.0197 68.4832 64.015C68.7262 63.9966 68.9191 64.0161 69.0623 64.0443C69.1232 64.0564 69.151 64.0851 69.1511 64.1127C69.151 64.1472 69.1087 64.1813 69.0339 64.1879C68.6732 64.2178 68.1196 64.3543 67.6218 64.7348C67.1682 65.0917 66.9471 65.286 66.6785 65.5228C66.4268 65.7643 66.0996 66.0706 65.8972 66.7982C65.7925 67.2056 65.7864 67.5793 65.8269 67.9252C65.9277 68.8967 66.0162 69.7698 65.9265 71.0697C65.9224 71.1207 65.9192 71.1726 65.9167 71.225C65.8947 72.0677 66.2705 72.5344 66.6736 72.9262C67.1093 73.3048 67.5575 73.7306 68.6091 74.1351C68.7962 74.2005 68.9785 74.238 69.1511 74.2553C71.3038 74.4353 71.7635 73.8639 74.2654 73.7816C77.0067 73.6915 80.4674 74.0656 82.1199 74.0346C82.3195 74.0308 82.5275 74.0257 82.7429 74.0209C83.9566 74.035 85.4442 72.9908 85.6707 71.3832C85.6865 71.2815 85.6968 71.1768 85.7 71.0697C85.7228 70.0859 85.6989 69.0181 85.6775 67.9252C85.6604 66.8157 84.9689 65.7891 84.0398 65.2553C83.6792 65.0419 83.232 64.889 82.7429 64.8539C80.4471 64.7174 77.877 64.5692 76.5398 64.4623C74.8509 64.3272 74.4389 64.2968 72.8132 64.3793C71.8788 64.4267 70.5918 64.3818 69.5046 64.2074C68.9574 64.1196 69.0818 63.9973 69.6326 63.9389C70.4377 63.8534 71.0985 63.9099 71.5134 63.7572C72.3426 63.4519 72.6954 63.3355 73.7419 63.5131C74.7886 63.6907 75.2823 63.2871 75.8923 63.3334C76.5026 63.3799 76.4929 63.6175 79.5955 63.434C80.8564 63.3594 81.8862 63.3083 82.7429 63.2699Z" fill="#7D9AB2"/>
<path d="M12.6494 67.9253C12.6494 65.817 14.3586 64.1078 16.4669 64.1078H30.0591C32.1674 64.1078 33.8766 65.817 33.8766 67.9253V71.07C33.8766 73.1783 32.1674 74.8875 30.0591 74.8875H16.4669C14.3586 74.8875 12.6494 73.1783 12.6494 71.07V67.9253Z" fill="#CBD5DF"/>
<path d="M30.0586 63.2699C31.6009 63.2293 32.6302 63.8609 33.2783 64.4115C33.9666 64.9672 34.8137 66.3621 34.7461 67.9252C34.7212 68.7281 34.7072 69.5572 34.7363 70.3041C34.7453 70.5334 34.7524 70.7911 34.7578 71.0697C34.7973 72.1643 34.3068 73.5612 33.3262 74.4818C32.367 75.4298 31.0273 75.828 30.0586 75.8412C29.8284 75.8506 29.6215 75.8616 29.4443 75.8754C27.875 75.9975 27.8715 75.7314 26.6035 75.5824C25.3353 75.4335 24.3368 76.0914 22.791 75.9984C21.2452 75.9054 21.0135 75.5566 19.2432 75.6351C18.2623 75.6787 17.2809 75.6245 16.4668 75.5922C15.6884 75.5668 15.0732 75.3543 14.666 75.2475C13.7554 74.9426 13.855 74.5681 12.9805 73.6791C12.2475 72.8095 12.0771 71.9778 12.1689 71.0697C12.1827 70.9649 12.1978 70.8571 12.2139 70.7455C12.2919 70.2038 12.3637 69.041 12.3828 67.9252C12.3863 66.9528 12.7708 66.0771 13.0107 65.601C13.5406 64.4454 15.0498 64.0197 15.7988 64.015C16.0418 63.9966 16.2348 64.0161 16.3779 64.0443C16.4389 64.0564 16.4667 64.0851 16.4668 64.1127C16.4667 64.1472 16.4244 64.1813 16.3496 64.1879C15.9888 64.2178 15.4353 64.3543 14.9375 64.7348C14.4839 65.0917 14.2628 65.286 13.9941 65.5228C13.7424 65.7643 13.4152 66.0706 13.2129 66.7982C13.1082 67.2056 13.1021 67.5793 13.1426 67.9252C13.2433 68.8967 13.3319 69.7698 13.2422 71.0697C13.2381 71.1207 13.2349 71.1726 13.2324 71.225C13.2104 72.0677 13.5862 72.5344 13.9893 72.9262C14.4249 73.3048 14.8732 73.7306 15.9248 74.1351C16.1118 74.2005 16.2942 74.238 16.4668 74.2553C18.6195 74.4353 19.0792 73.8639 21.5811 73.7816C24.3223 73.6915 27.7831 74.0656 29.4355 74.0346C29.6352 74.0308 29.8432 74.0257 30.0586 74.0209C31.2723 74.035 32.7599 72.9908 32.9863 71.3832C33.0022 71.2815 33.0124 71.1768 33.0156 71.0697C33.0385 70.0859 33.0145 69.0181 32.9932 67.9252C32.9761 66.8157 32.2846 65.7891 31.3555 65.2553C30.9949 65.0419 30.5477 64.889 30.0586 64.8539C27.7628 64.7174 25.1927 64.5692 23.8555 64.4623C22.1666 64.3272 21.7545 64.2968 20.1289 64.3793C19.1945 64.4267 17.9075 64.3818 16.8203 64.2074C16.2731 64.1196 16.3975 63.9973 16.9482 63.9389C17.7534 63.8534 18.4142 63.9099 18.8291 63.7572C19.6583 63.4519 20.011 63.3355 21.0576 63.5131C22.1042 63.6907 22.5979 63.2871 23.208 63.3334C23.8182 63.3799 23.8086 63.6175 26.9111 63.434C28.1721 63.3594 29.2019 63.3083 30.0586 63.2699Z" fill="#7D9AB2"/>
<path d="M23.1348 66.4668C24.406 66.4668 25.4365 67.8246 25.4365 69.499C25.4363 71.1732 24.4059 72.5303 23.1348 72.5303C21.8639 72.5299 20.8332 71.173 20.833 69.499C20.833 67.8248 21.8638 66.4671 23.1348 66.4668ZM29.7842 66.4668C31.0554 66.4668 32.0859 67.8246 32.0859 69.499C32.0858 71.1732 31.0553 72.5303 29.7842 72.5303C28.5132 72.5301 27.4826 71.1731 27.4824 69.499C27.4824 67.8247 28.5131 66.467 29.7842 66.4668Z" fill="#A6BBCE"/>
<path d="M38.9917 67.9253C38.9917 65.817 40.7009 64.1078 42.8092 64.1078H56.4013C58.5097 64.1078 60.2189 65.817 60.2189 67.9253V71.07C60.2189 73.1783 58.5097 74.8875 56.4013 74.8875H42.8092C40.7009 74.8875 38.9917 73.1783 38.9917 71.07V67.9253Z" fill="#CBD5DF"/>
<path d="M58.1731 69.4984C58.1731 71.1728 57.1425 72.5302 55.8713 72.5302C54.6001 72.5302 53.5696 71.1728 53.5696 69.4984C53.5696 67.824 54.6001 66.4666 55.8713 66.4666C57.1425 66.4666 58.1731 67.824 58.1731 69.4984Z" fill="#A6BBCE"/>
<path d="M56.4009 63.2699C57.9432 63.2293 58.9725 63.8609 59.6206 64.4115C60.3089 64.9672 61.156 66.3621 61.0884 67.9252C61.0635 68.7281 61.0495 69.5572 61.0786 70.3041C61.0875 70.5334 61.0947 70.7911 61.1001 71.0697C61.1396 72.1643 60.6491 73.5612 59.6685 74.4818C58.7093 75.4298 57.3695 75.828 56.4009 75.8412C56.1706 75.8506 55.9638 75.8616 55.7866 75.8754C54.2173 75.9975 54.2138 75.7314 52.9458 75.5824C51.6776 75.4335 50.679 76.0914 49.1333 75.9984C47.5875 75.9054 47.3558 75.5566 45.5854 75.6351C44.6046 75.6787 43.6232 75.6245 42.8091 75.5922C42.0307 75.5668 41.4155 75.3543 41.0083 75.2475C40.0976 74.9426 40.1973 74.5681 39.3228 73.6791C38.5898 72.8095 38.4193 71.9778 38.5112 71.0697C38.525 70.9649 38.5401 70.8571 38.5562 70.7455C38.6342 70.2038 38.7059 69.041 38.7251 67.9252C38.7286 66.9528 39.1131 66.0771 39.353 65.601C39.8829 64.4454 41.3921 64.0197 42.1411 64.015C42.3841 63.9966 42.5771 64.0161 42.7202 64.0443C42.7812 64.0564 42.809 64.0851 42.8091 64.1127C42.809 64.1472 42.7667 64.1813 42.6919 64.1879C42.3311 64.2178 41.7776 64.3543 41.2798 64.7348C40.8262 65.0917 40.6051 65.286 40.3364 65.5228C40.0847 65.7643 39.7575 66.0706 39.5552 66.7982C39.4505 67.2056 39.4444 67.5793 39.4849 67.9252C39.5856 68.8967 39.6741 69.7698 39.5845 71.0697C39.5803 71.1207 39.5772 71.1726 39.5747 71.225C39.5527 72.0677 39.9285 72.5344 40.3315 72.9262C40.7672 73.3048 41.2155 73.7306 42.2671 74.1351C42.4541 74.2005 42.6364 74.238 42.8091 74.2553C44.9618 74.4353 45.4215 73.8639 47.9233 73.7816C50.6646 73.6915 54.1253 74.0656 55.7778 74.0346C55.9775 74.0308 56.1854 74.0257 56.4009 74.0209C57.6146 74.035 59.1022 72.9908 59.3286 71.3832C59.3445 71.2815 59.3547 71.1768 59.3579 71.0697C59.3807 70.0859 59.3568 69.0181 59.3354 67.9252C59.3184 66.8157 58.6268 65.7891 57.6978 65.2553C57.3372 65.0419 56.89 64.889 56.4009 64.8539C54.105 64.7174 51.535 64.5692 50.1978 64.4623C48.5089 64.3272 48.0968 64.2968 46.4712 64.3793C45.5368 64.4267 44.2498 64.3818 43.1626 64.2074C42.6154 64.1196 42.7397 63.9973 43.2905 63.9389C44.0957 63.8534 44.7564 63.9099 45.1714 63.7572C46.0005 63.4519 46.3533 63.3355 47.3999 63.5131C48.4465 63.6907 48.9402 63.2871 49.5503 63.3334C50.1605 63.3799 50.1509 63.6175 53.2534 63.434C54.5143 63.3594 55.5442 63.3083 56.4009 63.2699Z" fill="#7D9AB2"/>
<path d="M12.707 39.2008C12.707 33.9299 16.9799 29.657 22.2508 29.657H24.3269C29.5978 29.657 33.8707 33.9299 33.8707 39.2008V47.204C33.8707 52.4749 29.5978 56.7479 24.3269 56.7479H22.2508C16.9799 56.7479 12.707 52.4749 12.707 47.204V39.2008Z" fill="#7D9AB2"/>
<path d="M23.0293 57.988C23.0543 57.9915 23.0444 58.0542 23.0703 58.0603C23.0887 58.063 23.4923 58.04 23.5449 58.0456C23.56 58.0473 23.5716 58.0491 23.5801 58.0505C23.5185 58.0313 23.8883 58.0328 23.877 58.0544C23.869 58.0628 23.6155 58.0579 23.6064 58.0564C23.6026 58.0557 23.5989 58.055 23.5957 58.0544C23.6484 58.0778 22.7877 58.0763 22.9736 58.1111C22.724 58.1301 23.0089 58.0603 22.8213 58.0788C22.7573 58.0852 22.6967 58.1561 22.3613 58.1199C22.2638 58.1093 22.3731 58.092 22.3564 58.0857C22.3537 58.0846 22.296 58.0783 22.251 58.07C22.1907 58.0603 22.15 58.0483 22.251 58.0437C22.2638 58.043 22.2795 58.0421 22.2979 58.0417C22.6849 58.033 22.3345 58.0957 22.541 58.0964C22.5693 58.0961 22.9562 58.057 22.9336 58.0486C22.9252 58.0481 22.8144 58.0558 22.7949 58.0525C22.7227 58.0394 22.7558 58.018 22.7471 58.0163C22.7253 58.0146 22.4604 58.0298 22.251 58.032C22.1196 58.0332 22.0075 58.0271 21.9717 58.0144C21.9631 58.0105 22.0838 58.0096 22.251 58.0046C22.5445 57.9946 22.9989 57.9845 23.0293 57.988ZM19.5996 57.7312C19.6192 57.7348 19.917 57.8306 20.0713 57.8581C20.5228 57.9383 20.4161 57.8785 20.4424 57.8835C20.4739 57.8888 20.7528 57.9572 20.9092 57.9743C21.3044 58.0168 21.4861 58.0147 22.0244 58.0574C21.7114 58.0706 21.8818 58.1277 21.5322 58.0935C21.5621 58.0889 21.5923 58.0846 21.6221 58.0798C21.1231 58.068 20.5526 57.9664 19.9922 57.8474C19.8495 57.8166 20.0046 57.8908 19.8203 57.8386C19.6725 57.7962 19.5181 57.719 19.5996 57.7312ZM22.2129 28.5368C22.328 28.5498 21.9173 28.5714 21.8848 28.5964C21.8841 28.599 22.2236 28.6349 22.2334 28.6404C22.2534 28.6795 21.8688 28.6575 21.9141 28.6941C22.0087 28.6988 22.1034 28.7044 22.1982 28.7116C21.8328 28.7445 21.1627 28.7799 20.9941 28.8474C21.5274 28.7674 22.0933 28.7616 22.0928 28.8572C22.0926 28.8962 21.8694 28.9255 21.873 28.9363C21.9072 28.9699 22.2189 28.9262 22.2363 28.9284C22.246 28.9307 22.251 28.9332 22.251 28.9353C22.2468 28.9542 21.8036 28.9787 21.7783 28.9919C21.7417 29.0106 21.9425 29.0743 21.9424 29.0906C21.9278 29.0935 21.623 29.1241 21.7285 29.1462C21.8369 29.1674 22.1131 29.1622 22.123 29.1657C22.1711 29.1796 21.6956 29.209 21.6816 29.2224C21.687 29.2275 21.9329 29.2465 21.9404 29.2556C21.9407 29.2643 21.7531 29.2908 21.6787 29.323C21.6229 29.3467 21.789 29.3532 21.7598 29.3581C21.7344 29.3591 21.2921 29.391 21.2715 29.3991C21.2397 29.4076 21.3456 29.4228 21.3311 29.4304C21.3096 29.4408 21.1671 29.4466 21.1865 29.4538C21.2076 29.4555 21.7594 29.4968 21.7588 29.5232C21.7537 29.5599 21.1678 29.5116 21.7168 29.6277C21.7209 29.6282 21.8508 29.612 21.8545 29.613C21.9347 29.6383 21.5227 29.696 22.0303 29.6706C21.0867 29.7625 21.9156 29.7315 21.7783 29.8034C21.7261 29.8288 21.3789 29.8653 21.3652 29.8718C21.4029 29.8998 21.5142 29.8661 21.5547 29.8786C21.5761 29.8846 21.2598 29.9472 21.334 29.9626C21.3716 29.9686 21.71 29.9393 21.7246 29.9421C21.86 29.9556 21.6972 29.9865 21.7266 29.9997C21.747 30.0078 21.945 29.9998 21.9551 30.0017C21.9634 30.0043 21.6919 30.0559 21.6348 30.0749C21.5921 30.0884 21.7556 30.0956 21.7256 30.1023C21.5445 30.1391 21.156 30.1046 21.5342 30.1716C21.5574 30.1756 21.6945 30.1638 21.7012 30.1648C21.7894 30.1877 21.5317 30.2071 21.4883 30.2351C21.4143 30.2809 21.7776 30.2299 21.4756 30.282C21.7058 30.2896 21.8323 30.2811 22.0996 30.2683C21.3579 30.3145 21.1167 30.4492 21.9248 30.3943C21.6676 30.4035 21.6981 30.4628 21.6221 30.4685C21.5727 30.4703 21.2008 30.4495 21.3818 30.5622C21.4042 30.5757 21.6255 30.5369 21.5586 30.5759C21.0255 30.6171 21.5491 30.5963 21.5498 30.6023C21.5454 30.6578 20.2552 30.7887 20.0449 30.8816C19.7966 30.9573 19.5985 31.0868 19.5449 31.1052C19.3709 31.1644 19.5045 31.086 19.4619 31.0886C19.4148 31.0891 18.9484 31.3321 18.9258 31.3425C18.8277 31.3702 18.9078 31.2961 18.8975 31.2986C18.7685 31.321 18.1461 31.657 17.9746 31.7556C17.9911 31.7713 18.3389 31.5834 18.1406 31.7351C17.9157 31.9109 17.8496 31.8371 17.8389 31.8347C16.7042 32.5161 15.7295 33.4646 15.0176 34.5798C15.0651 34.5891 15.5309 33.8668 15.5586 33.8601C15.6432 33.7848 14.814 34.9711 14.7393 35.1374C14.8144 35.024 14.8917 34.9124 14.9717 34.8034C14.9053 35.0301 14.5911 35.439 14.4844 35.7575C14.4492 35.8594 14.5555 35.6813 14.5557 35.6863C14.5279 35.8053 14.4348 35.9755 14.4609 35.8298C14.3757 36.1129 14.3609 36.0601 14.2783 36.2712C14.2759 36.2798 14.33 36.2019 14.2803 36.3708C14.2539 36.4504 14.1211 36.8753 14.1299 36.9392C14.134 36.9617 14.2898 36.777 14.2168 36.7263C14.4043 36.2819 14.226 36.5673 14.2881 36.3904C14.3002 36.3644 14.3144 36.4389 14.4678 35.9939C14.5094 36.1076 14.2654 36.5898 14.251 36.6853C14.2106 36.8712 14.5012 36.1442 14.5039 35.989C14.5409 36.0766 14.5321 35.9404 14.6064 35.781C14.6886 35.6078 14.6716 35.6919 14.7158 35.5984C14.8409 35.3445 14.7468 35.4272 14.8936 35.2409C14.6673 35.3787 15.0707 34.8776 15.2031 34.7468C15.0497 35.0016 14.91 35.264 14.7852 35.5329C14.7989 35.5208 14.8133 35.5088 14.8271 35.4968C14.7914 35.5661 14.7563 35.6357 14.7227 35.7058C14.7219 35.6918 14.7205 35.6778 14.7197 35.6638C14.5906 36.0463 14.5172 36.1209 14.5029 36.1511C14.3415 36.5418 14.1996 37.0117 14.1104 37.4294C14.0989 37.4932 14.1407 37.4556 14.0303 37.9109C13.9975 38.0565 13.9842 37.9128 13.9658 38.0808C14.03 38.3024 13.9593 38.2903 13.9521 38.3532C13.9343 38.5318 13.951 38.6444 13.9502 38.6618C13.9427 38.8139 13.9342 39.0105 13.9346 39.2009C13.9347 39.3042 13.9354 39.405 13.9365 39.4958C13.9387 39.4913 13.9641 39.3613 13.9561 39.5368C13.9531 39.6009 13.8328 40.1759 13.8721 40.6784C13.8802 40.5479 13.8883 40.4174 13.8965 40.2868C13.8851 40.441 13.9159 41.5169 13.9482 41.2536C13.9678 41.0919 13.8901 40.6982 13.9648 40.655C13.9424 41.0133 13.9754 42.9919 13.958 43.1472C13.9555 43.1685 13.9318 43.0377 13.9287 43.0671C13.9264 43.091 13.9321 43.5422 13.9229 43.6032C13.9174 43.6387 13.9023 43.4426 13.8936 43.4548C13.8873 43.4691 13.8768 44.0358 13.9072 44.0681C13.895 43.9291 13.906 43.5383 13.9316 43.7429C13.9348 43.7693 13.9149 43.9062 13.9189 43.9382C13.9562 44.2351 13.947 43.3471 13.9473 43.2097C13.9861 43.7676 13.9405 44.6307 13.9658 45.2771C13.9405 45.5379 13.9272 44.8898 13.9062 45.1853C13.8631 45.7927 13.9398 45.3563 13.9443 45.3669C13.9699 45.5192 13.8332 46.0385 13.9375 46.0388C13.9218 46.2609 13.9082 46.1891 13.9219 46.5027C13.9291 46.4614 13.9361 46.4199 13.9434 46.3786C13.9814 46.5978 13.935 46.9711 13.8926 47.2038C13.8676 47.3249 13.8466 47.4035 13.8418 47.3855C13.8305 47.342 13.8285 47.2749 13.8311 47.2038C13.8361 47.0436 13.8572 46.8653 13.8564 46.8435C13.8544 46.7947 13.7493 46.6598 13.8438 46.1296C13.7729 45.9131 13.7954 46.9712 13.7471 46.49C13.7502 46.6168 13.7444 46.8973 13.7383 47.2038C13.7255 47.6352 13.7639 48.1205 13.7969 48.2234C13.8044 48.2421 13.86 48.1416 13.8643 48.4353C13.8671 48.5756 13.8193 48.2434 13.8125 48.3083C13.6878 48.5321 14.5171 51.1085 14.8857 51.4988C14.9024 51.5271 14.8768 51.5284 14.8936 51.5564C14.944 51.6437 15.1668 51.9339 15.2627 52.0847C15.0855 51.7576 15.4956 52.3454 15.6123 52.4861C15.7808 52.7055 15.7424 52.7165 15.8145 52.8132C16.093 53.191 16.6803 53.6133 16.9111 53.8991C16.9455 53.8228 17.3799 54.3138 17.6348 54.4685C17.8298 54.5946 18.1469 54.7089 17.8975 54.5241C18.2341 54.7301 18.6129 54.9019 18.9551 55.0398C19.0116 55.0624 18.9246 55.0539 19.0215 55.0915C19.0304 55.0947 19.0519 55.0776 19.1357 55.1081C19.832 55.3437 19.4827 55.2649 19.6064 55.3259C19.6777 55.3581 19.7318 55.3798 19.7715 55.3933C19.3546 55.2757 18.8897 55.0916 18.7676 55.0359C18.8468 55.142 19.6646 55.3812 19.9014 55.4509C19.9095 55.4538 19.8735 55.4747 19.8818 55.4773C19.9704 55.5109 20.5496 55.6342 20.4395 55.571C20.4092 55.5546 20.1434 55.4992 19.833 55.4109C19.9184 55.4288 19.8657 55.3777 19.8809 55.3806C20.0629 55.4195 20.4982 55.5563 20.6572 55.5876C20.6926 55.5951 20.6944 55.5735 20.7002 55.574C20.8437 55.6046 20.7751 55.6556 20.9346 55.6169C21.1857 55.7361 20.4397 55.5445 20.4844 55.5974C20.5132 55.6844 22.225 55.8358 22.2207 55.7361C22.2241 55.7398 22.2341 55.745 22.251 55.7497C22.2644 55.7531 22.2823 55.7567 22.3047 55.7605C22.4243 55.7806 22.9523 55.7745 23.0449 55.7634C23.0602 55.7612 23.0547 55.7034 23.0732 55.7019C23.1211 55.7005 23.7696 55.7463 24.0117 55.7116C23.8812 55.7034 23.7506 55.6954 23.6201 55.6872C24.4086 55.6867 24.2871 55.6686 24.0244 55.6511C24.0113 55.6509 23.9979 55.6494 23.9854 55.6491C23.7839 55.6363 23.5265 55.6236 23.5166 55.6189C23.5075 55.6082 23.9983 55.6004 24.3271 55.6081C24.5155 55.613 24.6431 55.618 24.5547 55.6423C24.5409 55.646 24.4277 55.6463 24.3271 55.6452C24.1824 55.644 24.0619 55.6459 24.2344 55.6677C24.2477 55.6694 24.2825 55.6697 24.3271 55.6697C24.4486 55.6703 24.6511 55.6586 24.665 55.6609C24.7366 55.6741 24.5156 55.7039 24.3271 55.7243C24.1713 55.7401 24.0386 55.7569 24.084 55.7741C24.1588 55.7605 24.2413 55.7545 24.3271 55.7517C24.4682 55.7466 24.6191 55.7484 24.7578 55.7351C24.8562 55.7255 24.8785 55.6944 24.8906 55.6931C25.0709 55.6727 24.9719 55.7112 25.0322 55.7058C25.0655 55.7044 25.4118 55.6004 25.3555 55.697C26.5089 55.4446 25.6715 55.6153 24.9551 55.6745C25.1791 55.6282 25.6218 55.587 25.8174 55.5417C25.8865 55.5263 25.8406 55.5048 25.957 55.4763C26.2029 55.4379 27.3437 55.1322 27.625 54.9968C27.4546 55.0793 27.5177 55.089 27.6523 55.03C27.7867 54.9697 27.6562 54.9783 27.6807 54.9626C27.712 54.9509 28.3368 54.6717 28.4307 54.6042C27.982 54.8612 28.0994 54.8398 28.4893 54.6316C28.4384 54.6709 28.3867 54.7096 28.335 54.7478C28.5599 54.6187 29.0508 54.3717 29.165 54.2702C29.1822 54.2554 29.0973 54.2798 29.1074 54.2712C29.2118 54.1905 29.5873 53.9451 29.5967 53.9226C29.6053 53.9063 29.4411 54.004 29.4902 53.9519C29.5029 53.9401 29.6698 53.8572 29.8018 53.7341C29.8508 53.6883 29.8035 53.6944 29.8154 53.6824C29.9135 53.5814 29.8815 53.6707 30.0684 53.4929C30.2041 53.3609 30.2758 53.2338 30.4658 53.0564C29.8229 53.6187 30.3561 53.1386 30.5801 52.862C30.6155 52.8172 30.5517 52.8252 30.7881 52.5818C30.3794 53.1849 30.963 52.4578 31.0703 52.2995C31.0771 52.2918 31.1046 52.3072 31.1602 52.2331C31.1648 52.2267 31.1418 52.2233 31.1914 52.1521C31.6458 51.4645 31.3663 51.9107 31.4717 51.7927C31.5176 51.7422 31.6997 51.3834 31.749 51.2868C31.7609 51.265 31.7746 51.285 31.8193 51.1999C31.8983 51.049 31.9454 50.9014 31.9912 50.7995C31.9962 50.7875 32.0292 50.802 32.1055 50.6023C32.1266 50.5461 32.1421 50.4803 32.0996 50.5544C31.9621 50.8003 31.7703 51.3025 31.5742 51.5574C31.4038 51.7915 31.858 51.002 31.8682 50.9538C31.8645 50.9671 31.8194 51.09 31.8955 50.945C31.9676 50.8075 32.0311 50.5263 32.127 50.3191C32.1359 50.3022 32.2467 50.1517 32.2471 50.1589C32.2475 50.1673 32.1536 50.4342 32.1816 50.4021C32.1854 50.3984 32.2514 50.2301 32.2695 50.2116C32.2923 50.1897 32.4417 50.1607 32.458 50.1247C32.4991 50.0331 32.4493 50.0847 32.4727 50.0241C32.5261 49.8957 32.6992 49.4415 32.6572 49.4128C32.6342 49.4895 32.61 49.5657 32.585 49.6413C32.7009 49.2127 32.6289 49.3893 32.6377 49.3269C32.6451 49.2594 32.6801 49.2878 32.7178 49.1433C32.7316 49.1125 32.8377 48.495 32.8145 48.5027C32.7856 48.8488 32.7568 48.7138 32.7539 48.7292C32.7401 48.788 32.7523 48.8686 32.7354 48.948C32.6073 49.5049 32.6909 48.934 32.6504 49.0632C32.637 49.1076 32.6387 49.2017 32.6328 49.2204C32.614 49.2812 32.5842 49.2748 32.5762 49.3161C32.5571 49.4133 32.6287 49.3129 32.6289 49.321C32.6346 49.4154 32.5057 49.7387 32.5195 49.5193C32.468 49.6383 32.5182 49.6692 32.4658 49.7605C32.3606 49.9407 32.4652 49.6533 32.4795 49.572C32.5326 49.2801 32.5792 49.2016 32.6533 48.7898C32.679 48.6417 32.6788 48.4607 32.6865 48.3923C32.6941 48.3509 32.8357 47.9452 32.6826 47.9206C32.7114 47.7634 32.8248 47.5148 32.8223 47.3464C32.82 47.1957 32.7655 47.2433 32.7637 47.2292C32.7631 47.2253 32.7619 47.2163 32.7617 47.2038C32.7607 47.1396 32.763 46.993 32.7568 46.9363C32.7478 46.8556 32.7271 46.8953 32.7188 46.7673C32.698 46.449 32.7533 46.4573 32.7568 46.4245C32.7981 46.0447 32.7192 46.2108 32.7129 46.1267C32.7071 46.0483 32.7375 44.9487 32.7178 44.7165C32.7288 44.8106 32.74 44.9047 32.751 44.9988C32.7852 44.8302 32.7296 44.6513 32.791 44.6482C32.6919 44.614 32.7573 44.2668 32.7549 44.1618C32.7538 44.1207 32.7371 44.1235 32.7363 44.072C32.7334 43.8705 32.7469 43.4157 32.7383 43.3064C32.7014 42.8351 32.6404 44.0433 32.6367 44.1384C32.6378 43.948 32.6151 42.8703 32.5674 43.365C32.56 43.4415 32.6047 43.5778 32.6064 43.6208C32.6178 43.9113 32.578 43.683 32.5742 43.7058C32.5684 43.7453 32.606 43.9353 32.6016 43.9861C32.6001 44.0029 32.5642 43.895 32.5635 44.1726C32.5285 44.0361 32.557 43.2554 32.5488 43.1531C32.5458 43.1169 32.4715 43.3447 32.5439 42.6775C32.537 42.6852 32.5304 42.6932 32.5234 42.7009C32.5206 42.3292 32.5175 41.9574 32.5146 41.5857C32.5306 41.6267 32.5624 41.8338 32.5557 41.572C32.5517 41.4206 32.5167 41.5321 32.5156 41.5183C32.5084 41.417 32.5124 40.0808 32.5137 39.2009C32.5142 38.931 32.5007 38.7143 32.4922 38.6091C32.4838 38.473 32.4116 38.0996 32.4053 38.072C32.3853 37.9012 32.2837 37.2999 32.2441 37.1843C32.2228 37.1116 32.212 37.1884 32.1963 37.1228C32.1814 37.0616 32.2263 37.1168 32.2227 37.0984C32.2125 36.9369 31.7779 35.8435 31.6562 35.5906C31.7353 35.74 32.0983 36.4996 32.1104 36.4968C32.1124 36.4923 32.0624 36.2876 32.0361 36.2507C32.0342 36.174 31.8715 35.9758 31.8301 35.8493C31.8265 35.8363 31.89 35.8689 31.7969 35.6521C31.764 35.5763 31.6403 35.3989 31.5674 35.1921C31.4395 34.9032 30.4771 33.5507 30.335 33.5241C30.3319 33.5236 30.4767 33.7039 30.3574 33.6023C30.1965 33.4681 30.3869 33.545 30.2217 33.365C30.2001 33.3321 29.7016 32.8839 29.6719 32.8738C29.4865 32.7765 29.9195 33.1758 29.9062 33.1775C29.8816 33.1686 29.5175 32.8627 29.4961 32.8454C29.4833 32.8304 29.8311 33.0353 29.4443 32.7497C29.4827 32.7897 29.5211 32.8302 29.5586 32.8708C29.3757 32.7396 29.3833 32.6949 29.3418 32.6589C29.2108 32.5484 29.0267 32.4931 28.8438 32.2761C28.7953 32.2189 28.9091 32.2641 28.9033 32.2566C28.8459 32.1842 28.7109 32.189 28.6289 32.072C28.6329 32.0693 28.8961 32.184 28.4424 31.9177C28.4718 31.9407 28.5012 31.9646 28.5303 31.988C28.4608 31.9563 27.9787 31.7093 27.9121 31.6794C27.7235 31.5816 27.9086 31.6228 27.7109 31.5388C27.8153 31.6403 27.2148 31.3976 27.2637 31.3718C27.1593 31.3912 26.6514 31.1729 26.3965 31.112C26.2386 31.0689 25.9065 31.0263 25.8555 31.0154C25.7939 31.0004 25.8197 30.9643 25.708 30.9363C25.6751 30.9276 25.3338 30.9025 25.0371 30.8376C24.98 30.8246 24.8609 30.7481 24.9717 30.739C25.1619 30.7218 25.5096 30.8214 25.5098 30.782C25.5099 30.7359 25.0298 30.7062 24.9004 30.696C24.3035 30.6403 24.649 30.6133 24.6348 30.5974C24.607 30.5722 24.4323 30.5606 24.3271 30.5583C24.2801 30.5572 24.2456 30.5573 24.2412 30.5564C24.2081 30.5492 24.2655 30.5378 24.3271 30.5261C24.377 30.5158 24.4298 30.5054 24.4316 30.4958C24.4323 30.4852 24.3833 30.4702 24.3271 30.4568C24.2341 30.4361 24.1256 30.4173 24.1738 30.4118C24.2097 30.4079 24.2661 30.4084 24.3271 30.4118C24.452 30.4192 24.5965 30.4419 24.6094 30.4411C24.8552 30.4244 24.5211 30.349 24.4258 30.3191C24.3986 30.3093 24.5118 30.2957 24.4883 30.2927C24.4059 30.2818 24.3565 30.2814 24.3271 30.2859C24.2216 30.3013 24.3582 30.3765 24.1592 30.3698C23.9313 30.3623 24.2202 30.322 24.2168 30.3191C24.2054 30.3166 23.9298 30.3149 23.8867 30.3005C23.8749 30.2961 24.1296 30.2653 24.3271 30.2341C24.4502 30.2135 24.5497 30.1957 24.5391 30.1814C24.4686 30.1823 24.3979 30.1837 24.3271 30.1863C24.1737 30.1915 24.0197 30.1966 23.8662 30.2019C23.8492 30.156 24.177 30.19 24.2109 30.1853C24.2784 30.1757 24.0885 30.152 24.0967 30.1374C24.1028 30.128 24.3234 30.0954 24.123 30.0818C24.0536 30.077 23.9071 30.109 23.6543 30.0759C24.5342 30.0336 23.9244 30.0073 23.8984 29.9909C23.8796 29.9744 24.2894 29.9363 23.7832 29.9431C23.7613 29.8537 23.7948 29.9149 23.9395 29.8991C24.1143 29.88 23.7192 29.8512 24.3271 29.8718C24.3362 29.8721 24.346 29.8724 24.3555 29.8728C24.3515 29.8681 24.3414 29.8637 24.3271 29.8601C24.2098 29.8309 23.7941 29.8328 23.7695 29.8298C23.7459 29.8268 23.8614 29.8066 23.8203 29.7995C23.3315 29.7182 23.667 29.7548 23.5254 29.7029C23.5072 29.6981 23.0536 29.6791 23.4023 29.6716C23.9073 29.6608 24.1812 29.6953 24.3271 29.6482C24.3665 29.6355 24.3967 29.6173 24.4199 29.5906C24.3894 29.5867 24.3585 29.5833 24.3271 29.5808C23.8735 29.5446 23.3614 29.6176 23.2266 29.6189C23.0062 29.6209 23.2342 29.5949 23.207 29.5876C23.1947 29.5854 23.0159 29.5865 23.0059 29.5847C22.8704 29.4875 23.8508 29.583 24.1602 29.5661C24.0775 29.5516 23.9948 29.5377 23.9121 29.5232C24.0244 29.5226 24.1367 29.5218 24.249 29.5212C23.7548 29.4942 24.1574 29.5077 24.3271 29.448C24.3416 29.443 24.3547 29.4374 24.3652 29.4314C24.3729 29.4268 24.3527 29.4248 24.3271 29.4245C24.2705 29.4239 24.186 29.429 24.3271 29.4099C24.3567 29.406 24.3963 29.4007 24.4473 29.3952C24.398 29.3928 24.3588 29.3913 24.3271 29.3894C24.1686 29.3795 24.1982 29.3708 23.9736 29.3894C23.9772 29.3731 24.1389 29.3557 24.3271 29.3406C24.5114 29.3259 24.7197 29.3206 24.8389 29.3191C24.5505 29.2932 24.4106 29.3002 24.3271 29.3093C24.1671 29.3286 24.2177 29.3657 23.7344 29.3249C23.6 29.3639 23.9446 29.3566 23.918 29.363C23.8166 29.3862 23.5787 29.3492 23.292 29.4304C23.2453 29.4437 23.4426 29.4851 23.1504 29.4831C23.1189 29.4829 22.9418 29.4492 22.9346 29.445C22.9598 29.4182 23.1387 29.4275 23.1504 29.4167C23.1575 29.4059 22.9519 29.4119 22.9512 29.4089C22.9458 29.375 23.1215 29.3959 23.0977 29.3855C23.0418 29.362 22.3018 29.2876 23.2676 29.3093C22.4658 29.3482 23.1639 29.3477 23.4766 29.3327C23.5562 29.329 23.5769 29.3077 23.6904 29.3005C23.8364 29.2913 24.0075 29.3014 24.083 29.2976C24.1616 29.2935 23.7235 29.2471 24.3271 29.2585C24.3416 29.2588 24.3565 29.2591 24.3721 29.2595C24.3575 29.2575 24.3426 29.2553 24.3271 29.2536C23.9816 29.2149 23.4158 29.2618 23.0957 29.2292C22.4236 29.1607 23.5641 29.1451 23.6846 29.1384C23.7163 29.1366 23.6107 29.1089 23.6318 29.1072C23.6664 29.105 24.1578 29.1149 24.3271 29.1023C24.354 29.1004 24.373 29.0974 24.3818 29.0945C24.4079 29.0858 24.3769 29.0841 24.3271 29.0837C24.2526 29.0832 24.134 29.0866 24.1211 29.072C24.1161 29.0661 24.2174 29.0583 24.3271 29.0505C24.5311 29.037 24.7627 29.0308 24.4766 29.0173C24.4317 29.0156 24.3809 29.015 24.3271 29.0163C24.0291 29.024 23.6241 29.063 23.5459 29.0036C23.8062 29.0001 24.0668 28.9964 24.3271 28.9929C24.5087 28.9906 24.6893 28.9936 24.8691 29.0007C24.6904 28.9723 24.5098 28.9485 24.3271 28.9294C24.2612 28.922 24.1949 28.9144 24.1289 28.907C24.1961 28.9058 24.2622 28.905 24.3271 28.905C24.761 28.9058 25.1488 28.9475 25.5752 28.9656C24.3999 28.765 25.9637 28.9302 25.9863 28.9441C25.9858 28.9346 25.5352 28.8027 25.459 28.7849C25.8821 28.7826 27.1467 29.0489 26.4248 28.8073C26.556 28.8516 26.8911 28.8822 26.8877 28.8786C26.8563 28.8257 26.136 28.7028 26.2588 28.695C26.402 28.6813 26.5827 28.7724 26.79 28.8171C27.8471 29.0773 27.6291 28.7961 28.6523 29.239C28.6349 29.2239 28.6172 29.2091 28.5996 29.1941C29.7111 29.6809 30.7365 30.3547 31.6221 31.1755C32.0236 31.4354 32.9087 32.3527 33.249 32.8777C33.3252 32.9791 33.6319 33.5095 33.6484 33.5554C33.6851 33.6333 33.433 33.2357 33.5293 33.4265C33.5614 33.4622 34.051 34.3708 34.0391 34.2956C33.9916 34.1893 33.804 33.879 33.7793 33.823C33.6964 33.6283 34.0646 34.2225 34.3623 34.9333C34.6699 35.6406 34.8773 36.4591 34.9053 36.5339C34.8986 36.4627 34.8911 36.3898 34.8828 36.3181C34.9313 36.5165 34.9735 36.7136 35.0107 36.9138C34.9843 36.8354 34.9568 36.7577 34.9287 36.6804C34.9771 36.9081 35.045 37.2126 35.0703 37.4275C35.0745 37.4625 35.0327 37.3772 35.0449 37.4597C35.0568 37.5419 35.0918 37.5206 35.1133 37.6394C35.1415 37.7731 35.1804 38.3948 35.1875 38.6111C35.1986 38.8065 35.2059 39.0029 35.208 39.2009C35.2144 39.7376 35.2237 40.2762 35.2119 40.8122C35.1841 40.0806 35.1559 40.8182 35.168 41.0232C35.171 41.0683 35.2402 41.0626 35.2227 41.7956C35.2115 42.2618 35.1121 41.8316 35.1621 42.6101C35.232 42.0113 35.2262 42.5997 35.2285 43.0691C35.2289 43.1501 35.2186 43.8039 35.2217 44.0925C35.2229 44.1913 35.2598 44.3416 35.2607 44.4724C35.2614 44.5625 35.2412 44.6306 35.2422 44.7644C35.2467 45.3885 35.248 46.0025 35.2412 46.6277C35.1472 46.2623 35.2018 46.9148 35.1973 46.9441C35.1718 47.0913 35.1644 46.4192 35.1484 46.6853C35.1498 46.8581 35.151 47.031 35.1523 47.2038C35.1539 47.4311 35.1482 47.655 35.1357 47.8816C35.169 47.5353 35.1861 48.346 35.1299 48.4919C35.2579 48.4463 34.716 50.3832 34.5977 50.6599C34.5792 50.7177 34.7694 50.35 34.4131 51.2419C34.3724 51.337 34.3642 51.2913 34.3457 51.3425C34.3349 51.3725 34.3312 51.5877 34.2021 51.7615C34.1497 51.8216 34.333 51.366 33.8623 52.3357C34.1577 52.005 33.1435 53.6568 32.8691 53.8952C32.9213 53.8463 32.9731 53.7969 33.0244 53.7468C32.7884 54.0085 32.7668 54.0717 32.7158 54.1325C32.5088 54.376 32.1924 54.6797 31.9834 54.8894C31.7378 55.1337 31.7714 55.1736 31.4541 55.4275C31.534 55.3729 31.6137 55.3174 31.6924 55.2605C31.4834 55.448 31.2666 55.6277 31.0439 55.7986C31.5078 55.3405 30.9361 55.8835 30.8906 55.9138C30.8256 55.9656 30.905 55.8732 30.7959 55.9587C30.7845 55.9674 30.8169 55.9771 30.6445 56.1042C30.2808 56.3653 30.3189 56.2945 30.1621 56.3972C30.1472 56.4059 30.2123 56.3964 29.9375 56.57C29.052 57.0957 29.9314 56.5598 29.9648 56.529C30.0043 56.495 29.6648 56.6102 30.4102 56.1638C30.1624 56.3175 30.1128 56.2942 30.085 56.3113C30.0615 56.3286 29.6326 56.5927 29.6074 56.6052C29.3978 56.7384 29.6021 56.6573 29.5625 56.6853C29.5311 56.7121 28.9735 56.957 28.8779 57.0925C28.5775 57.1375 29.0053 56.9652 29.4287 56.7224C29.4845 56.6763 29.0014 56.9066 28.9746 56.9157C28.3495 57.204 28.7215 57.1045 28.6006 57.2058C28.5359 57.2585 28.2558 57.3229 28.5205 57.279C27.9344 57.5206 28.2789 57.3449 28.2393 57.3562C28.1793 57.3719 27.9774 57.4638 27.9502 57.4704C27.9108 57.4807 28.0368 57.4148 27.8838 57.4607C27.8587 57.4683 27.6252 57.5861 27.9463 57.4939C27.5229 57.6335 27.5638 57.646 27.4023 57.6316C27.1392 57.828 27.1698 57.6254 27.0527 57.6501C26.7445 57.7108 26.8479 57.7748 26.8359 57.7849C26.7301 57.8485 25.8489 57.9807 25.6318 58.0095C25.7101 57.9385 26.3285 57.9083 26.4609 57.864C26.9021 57.735 25.8196 57.9485 26.1328 57.8064C25.9995 57.8519 25.8656 57.8949 25.7305 57.9353C25.4713 57.9113 25.8268 57.8572 25.1494 57.9382C25.0419 57.9949 25.6289 57.8872 25.5146 57.9333C25.4462 57.9642 25.0508 58.0014 25.043 58.0115C25.0373 58.0265 25.3932 57.9821 25.3398 58.0066C25.22 58.0778 23.9027 58.0736 24.9004 58.0154C24.659 58.028 24.5178 57.9644 24.3271 57.9656C24.3018 57.9657 24.2749 57.9668 24.2471 57.9704C24.1962 57.9772 24.2725 57.9984 24.3271 58.0212C24.3803 58.0407 24.416 58.062 24.3271 58.0759C24.2525 58.089 24.0772 58.0955 23.7207 58.0886C23.6967 58.0471 24.1813 58.0758 24.1992 58.073C24.2171 58.0683 24.129 57.9745 24.1133 57.9695C24.059 57.9541 22.8695 58.0042 22.6182 57.9568C22.664 57.9819 22.4769 57.9864 22.251 57.9851C21.9513 57.9849 21.5974 57.956 21.5293 57.9597C21.4962 57.9622 21.6163 58.0033 21.5811 58.0046C21.36 58.0162 20.778 57.8941 20.5098 57.8445C20.2076 57.7918 20.2407 57.8245 20.2236 57.822C20.0924 57.795 20.2011 57.7958 20.1211 57.78C19.9964 57.7646 19.1678 57.5473 19.1279 57.531C19.1159 57.5287 19.2397 57.6006 19.0596 57.5525C19.0293 57.5417 19.0555 57.5216 18.5293 57.3523C17.8962 57.1365 18.9485 57.5569 18.6748 57.4988C18.2887 57.2995 18.2834 57.3529 18.1758 57.3064C18.1382 57.2894 17.8779 57.1316 17.584 56.9939C17.7981 57.0873 18.0161 57.1746 18.2354 57.2536C18.0251 57.1629 17.6145 56.9882 17.4502 56.8933C17.3699 56.8476 17.455 56.8461 17.2773 56.7556C17.2403 56.7351 17.042 56.7508 17.5322 56.946C17.5539 56.9957 17.3392 56.8657 17.2324 56.82C17.216 56.8134 17.1265 56.8327 17.0137 56.7292C16.9917 56.6996 17.3979 56.7569 16.4854 56.3513C16.456 56.3376 16.5387 56.415 16.5098 56.4021C16.4872 56.3922 16.2794 56.2487 16.2549 56.2351C16.2303 56.223 16.3191 56.3096 16.2881 56.2947C16.1273 56.217 15.9905 56.01 16.2861 56.2185C16.1919 56.1423 16.0982 56.0643 16.0068 55.9851C16.0712 56.1164 15.84 55.8912 15.707 55.7907C14.8627 55.1323 15.3931 55.6147 15.2344 55.5173C14.9839 55.351 15.2317 55.4128 14.8818 55.1433C14.8528 55.1144 15.1953 55.5299 14.4707 54.7781C14.5795 54.887 14.6904 54.9942 14.8037 55.0984C14.7841 54.9906 14.4052 54.712 14.3809 54.6843C14.0962 54.3896 14.2956 54.5835 13.874 54.1433C13.8368 54.1034 13.7745 54.0011 13.6963 53.9148C13.3711 53.5583 14.0727 54.4189 14.0879 54.4577C14.076 54.4875 13.3229 53.5402 13.3174 53.4929C13.2374 53.3363 13.6502 53.9276 13.5977 53.7947C13.5487 53.7595 12.5951 52.338 12.4883 52.0036C12.3279 51.6391 12.3478 51.4369 12.251 51.4753C12.2998 51.333 12.1999 51.2691 12.1816 51.2214C11.9709 50.6461 11.9746 50.6432 11.8164 50.1433C11.7829 50.0321 11.7876 49.9286 11.7725 49.8904C11.7636 49.8687 11.743 49.9189 11.7051 49.8083C11.6407 49.6553 11.4999 48.6847 11.5195 48.6111C11.5265 48.5396 11.586 49.0165 11.6035 48.9265C11.5514 48.582 11.5067 48.2496 11.4873 47.8991C11.4799 47.7531 11.505 47.8265 11.502 47.7634C11.498 47.7374 11.467 47.236 11.4619 47.2566C11.4172 47.3089 11.5599 48.8582 11.4902 48.4548C11.4729 48.3758 11.4955 48.0931 11.4414 48.1423C11.4176 47.8295 11.4082 47.5179 11.4111 47.2038C11.4214 46.2492 11.4311 45.2942 11.4414 44.3396C11.4852 45.0464 11.4461 45.8424 11.4502 46.5827C11.4507 46.6841 11.4452 47.0263 11.4746 46.9861C11.4823 46.3564 11.467 45.5731 11.4863 44.9685C11.4873 44.9503 11.5134 45.02 11.5176 44.948C11.5254 44.8126 11.4832 44.3725 11.4941 44.2976C11.4998 44.3108 11.5326 44.5307 11.5537 44.4597C11.6109 44.2637 11.4839 44.2131 11.4854 44.0447C11.4867 43.9128 11.5484 43.0388 11.5098 42.821C11.4686 42.5903 11.4856 43.4626 11.4521 43.4021C11.4183 42.8086 11.4544 42.207 11.4502 41.6462C11.4494 41.639 11.4236 41.7208 11.4199 41.5974C11.4135 41.3797 11.451 41.3225 11.457 41.2165C11.4634 41.1023 11.4581 40.699 11.4717 40.6443C11.4735 40.6374 11.5102 40.718 11.5117 40.7312C11.527 40.9072 11.4782 40.97 11.4775 40.9861C11.4757 41.0461 11.4942 41.1051 11.4932 41.1599C11.4913 41.2503 11.4742 41.3004 11.4727 41.4197C11.4716 41.5019 11.5043 41.4229 11.5029 41.5017C11.5022 41.5308 11.4276 41.8451 11.5039 41.8747C11.5256 41.8829 11.5527 39.8065 11.5439 39.2009C11.543 39.1245 11.5425 39.0689 11.541 39.0398C11.5382 39.0933 11.5362 39.1471 11.5342 39.2009C11.527 39.3734 11.5199 39.546 11.5127 39.7185C11.5212 39.5482 11.5174 39.3648 11.5146 39.2009C11.51 38.9 11.5219 38.6599 11.5791 38.6365C11.68 36.7817 12.2797 34.956 13.2969 33.406C13.4869 33.1352 13.4282 33.313 13.7324 32.865C13.6341 32.9661 13.5372 33.0699 13.4424 33.1755C13.5961 32.9394 14.3967 32.0035 14.54 31.862C14.5573 31.8428 14.5416 31.7776 14.7588 31.5564C14.9534 31.3617 15.0146 31.3621 15.1279 31.2693C15.2233 31.1917 15.3212 31.094 15.3506 31.072C15.3731 31.0552 15.3969 31.0659 15.4512 31.0261C15.6229 30.9016 15.4475 30.9574 15.6602 30.8865C15.622 30.9205 15.5835 30.9554 15.5459 30.99C15.7507 30.8364 16.0501 30.656 15.7637 30.8972C15.7151 30.9391 15.7441 30.8876 15.707 30.9167C14.2911 32.1523 15.4272 31.1728 15.9365 30.7566C16.085 30.6737 16.8614 30.1423 16.9014 30.1374C16.9439 30.1239 16.8196 30.2293 17.0137 30.1433C17.046 30.1094 18.1651 29.5358 17.7783 29.7761C17.6954 29.8211 17.1587 30.0896 17.0361 30.1677C17.3619 30.0532 18.0348 29.6169 18.124 29.5886C18.4602 29.4555 17.5121 29.925 18.2627 29.6081C18.8455 29.3821 18.282 29.5537 18.499 29.446C18.6213 29.3792 19.3108 29.2096 19.2754 29.1531C19.5087 29.0777 19.3814 29.1531 19.4111 29.1472C19.4395 29.1391 19.8992 28.9984 20.0566 28.9831C20.0755 28.9809 20.0252 29.0292 20.0449 29.0281C20.0831 29.0223 20.5298 28.93 20.5527 28.9255C20.5641 28.9214 20.4506 28.9084 20.4941 28.8933C20.5473 28.8729 20.9868 28.818 21.0107 28.8083C21.0413 28.7879 20.5007 28.8744 20.584 28.8279C20.8361 28.7945 21.2472 28.7252 21.4131 28.6853C21.3716 28.696 21.1265 28.7194 21.04 28.7273C21.0766 28.6677 21.6066 28.6245 21.4287 28.6804C21.5422 28.6498 21.4631 28.6441 21.5264 28.6189C21.543 28.6121 21.709 28.6007 21.7402 28.5906C21.7332 28.5878 21.575 28.578 21.6055 28.5661C21.6673 28.5402 22.1706 28.5291 22.2129 28.5368ZM23.6777 57.9021C23.3378 57.9056 23.7194 57.9495 23.2656 57.9187C23.4456 57.9588 23.7535 57.9544 23.6777 57.9021ZM25.4258 57.8122C25.3943 57.8177 25.2085 57.9102 25.2373 57.9216C25.4813 57.8961 25.7267 57.7628 25.4258 57.8122ZM22.1367 57.8542C22.0197 57.8664 22.1227 57.8842 22.251 57.8913C22.3372 57.8967 22.4356 57.8975 22.4697 57.8894C22.498 57.8826 22.3602 57.8619 22.251 57.8552C22.2041 57.8526 22.1619 57.8516 22.1367 57.8542ZM19.5107 57.5261C19.4067 57.4908 19.0543 57.3965 19.207 57.4587C19.2304 57.4692 19.5142 57.5438 19.5107 57.5261ZM16.7061 56.3738C16.7 56.3967 16.9991 56.5595 16.9668 56.5241C16.9555 56.5135 16.7104 56.3571 16.7061 56.3738ZM15.3662 55.6159C15.2455 55.4753 15.9463 56.0499 15.5986 55.8113C15.5824 55.8012 15.3721 55.6242 15.3662 55.6159ZM22.251 55.699C22.7602 55.6998 23.3907 55.7202 22.4414 55.7566C22.5146 55.7436 22.588 55.7304 22.6611 55.7175C22.5074 55.7096 22.3261 55.7107 22.251 55.7214C22.2316 55.7245 22.2195 55.7284 22.2188 55.7331C22.2149 55.7299 22.2063 55.7259 22.1924 55.7224C22.1759 55.7194 21.9875 55.7265 21.9062 55.7156C21.7165 55.6894 21.9597 55.6984 22.251 55.699ZM14.9561 55.3396C14.8339 55.188 15.3895 55.7098 15.4404 55.7312C15.451 55.7935 14.9844 55.3826 14.9561 55.3396ZM22.9746 55.6384C23.0042 55.6213 23.4263 55.6003 23.4502 55.6277C23.4793 55.6662 23.0548 55.6419 22.9746 55.6384ZM24.6201 55.6413C24.4425 55.6202 25.054 55.5974 24.8574 55.6325C24.8474 55.635 24.6299 55.6431 24.6201 55.6413ZM26.8408 55.3484C26.7564 55.3668 26.4793 55.4527 26.6074 55.4353C26.663 55.4282 26.829 55.3709 26.8408 55.3484ZM27.4082 55.1365C27.2567 55.1816 26.9903 55.2934 27.126 55.2693C27.1566 55.2647 27.4071 55.1525 27.4082 55.1365ZM28.3115 54.8249C28.2009 54.8806 27.9798 54.9593 28.0205 54.9822C28.1184 54.932 28.2158 54.8788 28.3115 54.8249ZM28.5361 54.695C28.4602 54.7284 28.4259 54.7151 28.3955 54.739C28.3853 54.7472 28.3954 54.7709 28.3594 54.7976C28.4183 54.764 28.4779 54.7301 28.5361 54.695ZM28.7383 54.3806C28.6351 54.4496 28.5325 54.5219 28.4814 54.5173C28.5532 54.4825 28.7387 54.3573 28.7383 54.3806ZM29.8135 53.657C29.7713 53.7288 29.3518 54.0355 29.2422 54.0798C29.3169 53.9941 29.8684 53.5782 29.8135 53.657ZM16.8662 53.74C16.9233 53.7692 17.2031 53.9826 17.2422 54.0349C17.118 53.956 16.9848 53.8372 16.8662 53.74ZM16.5674 53.5183C16.592 53.519 16.8214 53.7157 16.8408 53.7527C16.7654 53.7044 16.6496 53.5911 16.5674 53.5183ZM30.5059 53.1325C30.4984 53.1145 30.2529 53.3501 30.2402 53.363C30.1201 53.5245 30.4093 53.2388 30.5059 53.1325ZM30.5625 52.9851C30.5234 53.02 30.2731 53.2716 30.3613 53.2185C30.4516 53.166 30.6199 52.9386 30.5625 52.9851ZM13.0059 53.0163C11.9682 51.2134 12.2375 51.5947 13.0889 53.1101C13.0691 53.1258 13.0774 53.1257 13.0059 53.0163ZM30.8789 52.7439C30.8111 52.8089 30.4912 53.1509 30.6416 53.0212C30.659 53.0076 30.8948 52.7542 30.8789 52.7439ZM12.9854 52.5759C13.0543 52.6886 13.2277 52.9837 13.2783 53.0241C13.1844 52.8914 12.9958 52.5196 12.9854 52.5759ZM30.959 52.5368C30.9077 52.5774 30.8184 52.7335 30.9033 52.6677C30.9469 52.6215 30.9651 52.5322 30.959 52.5368ZM31.4053 51.9831C31.3994 51.9883 31.2737 52.1437 31.2695 52.1814C31.3387 52.1314 31.4653 51.9418 31.4053 51.9831ZM31.501 51.6335C31.4987 51.6399 31.4089 51.7776 31.4043 51.782C31.3014 51.8897 31.5692 51.4775 31.501 51.6335ZM32.4268 50.32C32.1954 50.6189 32.2806 50.6114 32.2686 50.6413C32.2405 50.7038 32.1503 50.8369 32.0986 50.9538C32.1517 50.8167 32.2011 50.6774 32.2471 50.5378C32.2087 50.6494 31.7176 51.522 31.71 51.5417C31.7174 51.5786 31.864 51.3063 31.8711 51.2947C31.8801 51.2846 31.9634 51.2728 31.9795 51.2478C32.0155 51.2096 32.3728 50.445 32.4268 50.32ZM12.3174 51.115C12.2929 51.0535 12.2687 51.0689 12.2705 51.0769C12.3308 51.328 12.3877 51.288 12.3174 51.115ZM14.3936 50.4548C14.4043 50.4395 14.7136 51.025 14.7275 51.0486C14.7725 51.221 14.4222 50.6053 14.3936 50.4548ZM11.8799 50.6111C11.9273 50.6756 11.9957 50.8996 12.0508 51.0495C12.0225 51.0272 11.9188 50.7195 11.8799 50.6111ZM14.2227 49.7849C14.3511 50.0441 14.4751 50.3887 14.3467 49.9031C14.6045 50.5865 14.4692 50.3162 14.4727 50.3445C14.4819 50.3783 14.5379 50.4769 14.543 50.4997C14.6633 51.0337 14.3093 50.0664 14.2227 49.7849ZM12.0176 50.3601C12.005 50.2444 11.9099 50.0996 11.9199 50.2058C11.9468 50.3093 12.0189 50.3723 12.0176 50.3601ZM11.6055 49.573C11.6338 49.5254 11.7165 50.0102 11.7715 50.1736C11.7422 50.2219 11.644 49.7397 11.6055 49.573ZM14.2539 49.9519C14.2948 50.011 14.2862 50.134 14.2783 50.1189C14.248 50.0595 14.2221 49.9064 14.2539 49.9519ZM32.5469 49.6755C32.6072 49.5885 32.4606 50.017 32.4482 50.0329C32.4035 50.1 32.5008 49.7481 32.5469 49.6755ZM32.2969 49.5447C32.3209 49.4974 32.2586 49.7609 32.2227 49.8357C32.2073 49.8235 32.2826 49.5759 32.2969 49.5447ZM14.252 49.7038C14.2052 49.5501 14.3001 49.7041 14.3105 49.7907C14.3141 49.8225 14.2639 49.7428 14.252 49.7038ZM32.3037 49.4128C32.3134 49.4749 32.2551 49.6446 32.2158 49.7595C32.2093 49.6975 32.2704 49.5295 32.3037 49.4128ZM14.04 48.8181C14.0942 48.9273 14.1665 49.3548 14.0986 49.1609C14.0878 49.1313 14.0584 48.8994 14.04 48.8181ZM32.6875 47.9773C32.7333 47.9401 32.657 48.2985 32.6465 48.3865C32.645 48.402 32.6782 48.4172 32.668 48.5036L32.6455 48.5525C32.6355 48.5674 32.6261 48.5802 32.625 48.5857C32.6245 48.6165 32.516 49.1961 32.5244 48.9665C32.5361 48.9305 32.6851 48.0899 32.6875 47.9773ZM13.9111 48.2243C13.8529 47.3899 13.9081 48.1663 13.9492 48.3679C13.9632 48.4442 13.9776 48.3773 13.9912 48.446L14.0244 48.6189C14.071 48.9527 13.9237 48.7977 13.8838 48.1589C13.8928 48.1808 13.902 48.2026 13.9111 48.2243ZM11.373 48.4157C11.3742 48.184 11.4659 48.9732 11.4082 48.7204C11.4044 48.708 11.3724 48.4301 11.373 48.4157ZM13.8291 47.6794C13.8487 47.7071 13.8616 47.9546 13.873 48.0407C13.8416 47.9857 13.8334 47.8033 13.8291 47.6794ZM32.6494 47.8357C32.6524 47.827 32.6894 47.8053 32.6709 47.9372C32.6481 48.0895 32.6304 47.9366 32.6494 47.8357ZM13.9082 47.487C13.9111 47.4478 13.9535 47.3043 13.9668 47.4665C13.9109 47.4628 13.8996 47.7187 13.9609 47.8386C13.9216 47.9202 13.8939 47.6581 13.9082 47.487ZM11.5078 47.2878C11.4734 47.2756 11.5078 47.8047 11.5273 47.5954C11.5313 47.5431 11.5179 47.2935 11.5078 47.2878ZM32.6133 46.7507C32.6155 46.7302 32.5838 46.3355 32.6406 46.4909C32.6566 46.5381 32.6483 46.8238 32.6416 46.8894C32.6403 46.9006 32.5975 46.8517 32.6006 46.9812C32.6032 47.0854 32.6467 46.9304 32.6396 47.1335C32.6383 47.1727 32.6365 47.1944 32.6338 47.2038C32.6314 47.211 32.628 47.2099 32.625 47.2038C32.6139 47.1775 32.6013 47.073 32.5996 47.0818C32.5985 47.091 32.6008 47.1434 32.6025 47.2038C32.6054 47.2888 32.6044 47.3916 32.5889 47.3865C32.5838 47.3846 32.581 47.3623 32.5801 47.3288V46.9822C32.5749 46.8745 32.544 47.0049 32.5508 46.8249C32.555 46.7119 32.6105 46.7746 32.6133 46.7507ZM11.3135 46.7146C11.3365 46.7855 11.3302 47.0424 11.3281 47.2038C11.3279 47.2276 11.3281 47.2498 11.3281 47.2693C11.3233 47.2521 11.3191 47.2298 11.3164 47.2038C11.3017 47.0815 11.3131 46.863 11.3135 46.7146ZM35.2227 46.0056C35.2054 46.0024 35.194 46.3739 35.2236 46.4109C35.2224 46.3373 35.2334 46.0099 35.2227 46.0056ZM32.8027 46.3659C32.813 46.3215 32.8187 45.2339 32.7871 45.8532C32.7853 45.8895 32.7715 46.4879 32.8027 46.3659ZM32.8477 45.9831C32.8388 46.0422 32.8583 46.4766 32.875 46.3327C32.8895 46.2069 32.8621 45.8877 32.8477 45.9831ZM13.8623 45.3347C13.8589 45.3704 13.8571 46.1581 13.8877 45.8855C13.897 45.8027 13.8926 45.0799 13.8623 45.3347ZM32.9736 45.8376C32.9899 45.8634 32.9821 45.7469 32.9893 45.6667C32.9974 45.5757 33.0091 45.3347 32.9805 45.1677C32.978 45.391 32.9761 45.6143 32.9736 45.8376ZM32.6309 45.1404C32.6613 45.2352 32.6393 45.5276 32.6348 45.6814C32.6097 45.5875 32.6213 45.2763 32.6309 45.1404ZM11.4053 44.8689C11.4269 44.8852 11.408 45.1721 11.4111 45.2761C11.3896 45.2595 11.4084 44.9728 11.4053 44.8689ZM32.5566 44.7536C32.5671 44.8451 32.6062 44.8476 32.6016 44.9568C32.5877 45.2818 32.5688 45.0428 32.5566 44.7536ZM32.7783 44.8044C32.7708 44.8504 32.7801 45.091 32.7959 45.0818C32.8212 45.0654 32.7903 44.7338 32.7783 44.8044ZM32.957 44.8454C33.0184 44.591 32.9407 44.712 32.9209 44.9372C32.9484 45.0052 32.947 44.8871 32.957 44.8454ZM13.9238 44.4851C13.9204 44.5752 13.9188 44.7994 13.9346 44.8259C13.9546 44.8569 13.9485 44.5273 13.9238 44.4851ZM32.5479 44.2253C32.5765 44.1219 32.5648 44.4299 32.5664 44.4363C32.5727 44.4452 32.6694 44.2579 32.6045 44.7224C32.5949 44.7914 32.5681 44.5454 32.5645 44.5691C32.5575 44.6205 32.5543 44.6614 32.5537 44.6941C32.5455 44.4757 32.5419 44.2487 32.5479 44.2253ZM32.9971 44.6345C33.0436 44.3821 32.9573 44.3254 32.957 44.5154C32.9569 44.5897 32.9903 44.6706 32.9971 44.6345ZM32.6357 44.198C32.6537 44.1914 32.6705 44.5717 32.626 44.5984C32.6292 44.5154 32.6244 44.2075 32.6357 44.198ZM32.9053 44.0534C32.8846 43.9805 32.8731 44.3536 32.876 44.3767C32.8931 44.5135 32.9458 44.198 32.9053 44.0534ZM13.7744 43.9782C13.7745 43.9452 13.8197 43.2421 13.7451 43.864C13.7415 43.8996 13.7671 44.3334 13.793 44.1531C13.8109 44.0278 13.7746 44.0077 13.7744 43.9782ZM32.9697 43.3425C32.9582 43.3828 32.9876 43.8017 32.9854 43.821C32.9818 43.8491 32.946 43.7172 32.9531 43.9402C32.9653 43.9274 32.9992 44.0552 33.0029 44.031C33.0139 43.9587 33.0022 43.2313 32.9697 43.3425ZM32.9023 43.782C32.9003 43.7621 32.8506 43.8898 32.8701 43.9685C32.8854 44.0294 32.9101 43.8565 32.9023 43.782ZM32.6777 43.6775C32.6524 43.4868 32.7371 43.526 32.708 43.6911C32.7069 43.6976 32.6793 43.685 32.6777 43.6775ZM13.9053 43.3279C13.8996 43.236 13.9239 42.056 13.8848 42.3083C13.8786 42.3494 13.8563 43.3904 13.9053 43.3279ZM32.5723 42.4167C32.5478 42.4284 32.571 42.9088 32.5605 43.0163C32.6043 43.0998 32.5649 42.6982 32.5752 42.6199C32.5783 42.596 32.6755 42.9652 32.6025 42.4284C32.5911 42.7145 32.5808 42.4124 32.5723 42.4167ZM13.9492 43.0124C13.9643 42.9345 13.9327 42.7457 13.9102 42.8601C13.9067 42.96 13.9452 43.028 13.9492 43.0124ZM13.7861 40.3259C13.7709 40.8735 13.7697 41.8549 13.7695 42.4284C13.7695 42.5751 13.7893 42.504 13.79 42.5671C13.7906 42.6172 13.754 42.5578 13.7676 42.7253C13.774 42.8051 13.8128 42.5601 13.8203 42.615C13.8249 42.6504 13.8102 42.8287 13.8223 42.8855C13.8266 42.8983 13.8619 42.7189 13.8604 42.6667C13.8582 42.5923 13.8303 42.6642 13.8301 42.5827C13.8295 42.3123 13.8491 42.0726 13.8486 41.8191C13.8485 41.7962 13.8288 41.9734 13.8291 41.7781C13.8293 41.747 13.8589 41.5658 13.8545 41.3327C13.7618 40.8167 13.8527 40.4378 13.8193 39.7829C13.8106 39.8108 13.7871 40.2949 13.7861 40.3259ZM32.5781 42.3161C32.5749 42.0808 32.51 42.2516 32.5371 42.3982C32.5393 42.4063 32.5783 42.3316 32.5781 42.3161ZM13.9268 42.2263C13.9253 42.1443 13.8801 42.0123 13.876 42.1677C13.8888 42.1983 13.9297 42.4039 13.9268 42.2263ZM13.9307 41.9245C13.9321 41.7328 13.9336 41.2558 13.8945 41.5837C13.8871 41.6479 13.8922 41.8158 13.8896 41.905C13.9273 41.6203 13.891 41.937 13.9307 41.9245ZM11.5469 41.2917C11.5396 41.4058 11.5416 41.8921 11.5625 41.7029C11.5657 41.6717 11.5665 41.3003 11.5469 41.2917ZM13.8779 41.5622C13.9005 41.5794 13.8878 41.2511 13.8662 41.2204C13.8659 41.2873 13.8714 41.5565 13.8779 41.5622ZM35.1816 41.2644C35.1729 41.2649 35.1726 41.515 35.1738 41.53C35.1836 41.6177 35.2084 41.267 35.1816 41.2644ZM11.9922 35.9509C11.7934 36.4999 11.694 37.0519 11.6172 37.6257C11.5761 37.4483 11.5596 38.4768 11.5605 37.8738C11.5507 38.0033 11.4899 38.5896 11.4961 39.2009C11.5 39.8177 11.5001 40.4601 11.4932 40.5564C11.489 40.6113 11.3815 40.5843 11.4229 40.3572C11.4284 40.3292 11.4563 40.466 11.4629 40.4431C11.4666 40.4288 11.482 39.9346 11.4795 39.9118C11.4765 39.8876 11.4423 39.9161 11.4385 39.8913C11.4343 39.8624 11.4645 39.5591 11.4648 39.4001C11.465 39.3135 11.4623 39.2492 11.459 39.2009C11.4511 39.0668 11.4375 39.042 11.4375 39.0222C11.4386 38.9409 11.4624 38.8053 11.4707 38.6423C11.4953 37.8141 11.7209 36.5544 11.9922 35.9509ZM32.5498 40.2458C32.5292 40.3752 32.5535 40.6102 32.5674 40.5232C32.5705 40.5038 32.5654 40.2394 32.5498 40.2458ZM13.9648 39.7146C13.9886 40.6719 13.8835 40.7956 13.9248 39.9197C13.9259 39.9005 13.9543 39.6567 13.9648 39.7146ZM13.7773 39.07C13.768 39.2086 13.8047 39.1802 13.8057 39.1716C13.8174 39.0678 13.7893 38.9146 13.7773 39.07ZM35.1719 38.4861C35.1351 38.3915 35.1553 39.1339 35.1768 38.9372C35.1832 38.892 35.1791 38.5807 35.1719 38.4861ZM32.4414 37.9499C32.4725 38.0494 32.5113 38.6276 32.5234 38.6423C32.5477 38.6488 32.478 37.9888 32.4414 37.9499ZM35.1318 37.5915C35.1871 37.7149 35.2075 38.2957 35.1826 38.1941C35.1822 38.1714 35.1109 37.5457 35.1318 37.5915ZM14.0361 37.0798C14.0307 37.0247 13.9613 37.2823 13.9551 37.362C13.9709 37.39 14.0355 37.0871 14.0361 37.0798ZM14.1211 37.0066C14.1038 37.0731 14.0435 37.2749 14.0508 37.2947C14.0588 37.3181 14.1396 37.027 14.1211 37.0066ZM14.7324 35.0447C14.6748 35.1211 14.5634 35.402 14.5605 35.4734C14.5505 35.482 14.5301 35.5086 14.4971 35.5593L14.4697 35.5925C14.3016 35.8792 13.6893 37.819 14.1924 36.3816C14.2108 36.3349 14.1637 36.3913 14.2393 36.199C14.2444 36.1863 14.2653 36.1869 14.2812 36.1482C14.3141 36.0567 14.5295 35.5895 14.5645 35.49C14.5682 35.4908 14.5748 35.4858 14.584 35.4743C14.6628 35.3719 14.7742 34.9858 14.7324 35.0447ZM32.0361 36.2507C32.0365 36.2632 32.0328 36.2724 32.0234 36.2771C32.0232 36.2441 32.0281 36.2392 32.0361 36.2507ZM14.8584 35.114C14.8578 35.1501 14.6467 35.5132 14.6279 35.5241C14.6984 35.3756 14.7766 35.2408 14.8584 35.114ZM14.8936 34.7937C14.8868 34.7999 14.7395 35.0327 14.7803 35.0124C14.8378 34.9812 14.9442 34.7348 14.8936 34.7937ZM31.1953 34.7556C31.1097 34.5927 31.2499 34.6713 31.3057 34.8161C31.3114 34.8344 31.3075 34.9761 31.1953 34.7556ZM15.2285 34.3962C15.2464 34.3791 15.3885 34.3847 15.2109 34.5681C15.1796 34.6017 15.2515 34.4361 15.0732 34.6882C15.1993 34.4953 15.1243 34.5033 15.2285 34.3962ZM30.8408 34.2038C30.8722 34.2073 30.9775 34.3659 31.0195 34.4353C31.0018 34.4452 30.8921 34.2651 30.8408 34.2038ZM15.6758 33.9616C15.6894 33.9712 15.5207 34.1929 15.5049 34.2116C15.4012 34.3204 15.6032 34.0363 15.6758 33.9616ZM16.1895 33.3884C16.0268 33.5637 15.8715 33.7462 15.7246 33.9343C15.7146 33.8934 16.1653 33.3585 16.1895 33.3884ZM13.4502 33.0583C13.5131 33.0217 13.2171 33.4346 13.207 33.4519C13.1061 33.5728 13.3477 33.1595 13.4502 33.0583ZM29.9922 33.2527C29.9987 33.2571 30.1114 33.3697 30.1143 33.3747C30.1959 33.4949 29.8564 33.1567 29.9922 33.2527ZM16.2793 33.321C16.4242 33.1017 16.5216 33.1361 16.5068 33.1531C16.3319 33.372 16.4165 33.1994 16.4082 33.2029C16.3901 33.2127 16.2718 33.3742 16.2803 33.32L16.2793 33.321ZM13.8857 32.7341C14.0357 32.4877 13.4907 33.2026 13.4775 33.2517C13.5065 33.2336 13.8664 32.7568 13.8857 32.7341ZM16.7422 32.6599C16.775 32.6438 16.7065 32.7318 16.6611 32.7673C16.5797 32.8308 16.637 32.7122 16.7422 32.6599ZM17.5098 32.3191C17.6686 32.2424 17.1719 32.5872 17.3164 32.4529C17.3238 32.4452 17.5013 32.3224 17.5098 32.3191ZM28.5342 32.1169C28.5422 32.0994 28.7852 32.2479 28.7959 32.2595C28.8661 32.3249 28.6161 32.1899 28.5342 32.1169ZM18.3701 31.824C18.3627 31.8264 18.3566 31.8281 18.3525 31.8288C18.2974 31.8758 17.6487 32.2371 17.6104 32.2644C17.3999 32.3523 18.2802 31.8237 18.3164 31.8288C18.3316 31.8244 18.3423 31.8224 18.3486 31.822C18.3762 31.7941 18.5483 31.7045 18.5811 31.7204C18.5278 31.7435 18.3876 31.8179 18.3701 31.824ZM17.7695 31.9099C17.7263 31.9733 17.6887 31.9989 17.5205 32.1013C17.7597 31.9345 17.5175 32.0578 17.7695 31.9099ZM15.1094 31.6941C15.0294 31.7726 14.7994 31.9783 14.8008 32.0085C14.8763 31.9239 15.1108 31.7212 15.1094 31.6941ZM27.5723 31.6687C27.8281 31.7679 28.0797 31.8796 28.3252 32.0046C28.2291 31.9888 28.0389 31.8605 27.9121 31.8103C27.738 31.7384 27.3967 31.7344 27.5723 31.6687ZM14.9395 31.5857C14.9198 31.5984 14.567 31.9391 14.5742 31.9607C14.6236 31.9093 15.1407 31.4152 14.9395 31.5857ZM27.7334 31.8113C27.7734 31.8253 27.9231 31.9059 27.9893 31.9382C27.8986 31.933 27.5906 31.7598 27.7334 31.8113ZM14.666 31.823C14.9109 31.6424 15.5171 30.9552 15.085 31.3679C15.0789 31.3752 15.1824 31.3237 15.0117 31.4763C14.9978 31.4895 14.9429 31.4852 14.7461 31.6999C14.7072 31.7428 14.6626 31.8228 14.666 31.823ZM27.9521 31.6072C27.9813 31.6567 28.1971 31.7355 28.3096 31.8064C28.2735 31.7452 28.074 31.6667 27.9521 31.6072ZM28.2412 31.7927C28.1309 31.7307 27.907 31.6115 27.9639 31.6716C27.971 31.6765 28.2337 31.8059 28.2412 31.7927ZM27.833 31.4929C27.8585 31.5315 28.1001 31.639 28.1963 31.6863C28.169 31.635 27.9509 31.554 27.833 31.4929ZM19.2822 31.3806C19.2918 31.3839 19.0285 31.5426 18.9004 31.5866C18.6544 31.6659 19.2673 31.374 19.2822 31.3806ZM18.6201 31.4626C18.5519 31.4897 18.3535 31.5861 18.3477 31.57C18.4447 31.5199 18.5837 31.4533 18.6201 31.4626ZM27.3359 31.3669C27.4037 31.4179 27.7241 31.5194 27.6768 31.489C27.6631 31.4774 27.3016 31.3374 27.3359 31.3669ZM16.8359 30.1999C16.7621 30.2113 15.6388 31.0185 15.5127 31.1697C15.6537 31.0413 16.7705 30.2589 16.832 30.237C16.8461 30.2258 16.8437 30.1971 16.8359 30.1999ZM20.6289 30.7829C20.5071 30.8337 20.2188 30.8977 20.0361 30.9431C20.0228 30.9052 20.5102 30.8102 20.6289 30.7829ZM16.4443 30.8259C16.3295 30.8646 16.2706 31.0082 16.4238 30.9021C16.4695 30.8706 16.4566 30.8221 16.4443 30.8259ZM25.8506 30.7517C25.7783 30.7488 26.0355 30.8342 26.0742 30.8181C26.0967 30.8065 25.8976 30.7527 25.8506 30.7517ZM16.3096 30.2966C16.2185 30.3892 15.9204 30.5881 15.7607 30.7185C15.7238 30.6988 16.1884 30.38 16.3096 30.2966ZM17.5557 30.2615C17.454 30.3076 17.1575 30.4624 17.1211 30.5105C17.2237 30.4434 17.5239 30.3018 17.5557 30.2615ZM16.9785 30.3552C16.7511 30.4573 16.9018 30.4788 17.0449 30.364C17.0518 30.3574 16.99 30.3508 16.9785 30.3552ZM17.3018 30.3269C17.1338 30.3882 17.1396 30.4828 17.3027 30.3611C17.309 30.3565 17.3078 30.3267 17.3018 30.3269ZM22.2383 30.3816C22.2914 30.4011 22.0601 30.4213 21.9775 30.4138C21.7921 30.3948 22.2193 30.3732 22.2383 30.3816ZM18.6914 29.4695C18.4608 29.5566 18.2351 29.6514 18.0117 29.7546C18.262 29.7311 17.7981 29.9105 17.6172 29.9314C17.5619 29.9774 17.5071 30.024 17.4531 30.071C17.3041 30.0365 17.3396 30.1967 17.1025 30.2361C16.8986 30.4847 17.8318 29.8357 18.0078 29.8855C16.9029 30.3986 18.7812 29.6392 17.9453 29.8572C18.612 29.6232 18.1499 29.7461 18.2412 29.6843C18.3398 29.6176 18.7235 29.4953 18.6924 29.4685L18.6914 29.4695ZM16.833 30.1413C16.9312 30.0124 17.5578 29.7173 17.1553 29.9665C17.1167 29.9903 16.9389 30.0633 16.833 30.1413ZM18.5029 29.3728C18.3342 29.4883 18.173 29.5148 17.9297 29.6267C17.8662 29.6563 17.8894 29.6662 17.8838 29.6697C17.7714 29.7226 17.8454 29.6632 17.7764 29.695C17.7262 29.705 16.852 30.2102 16.9639 30.113C17.0316 30.0182 18.2851 29.4292 18.5029 29.3728ZM24.2432 29.8093C24.2709 29.8146 24.2994 29.8206 24.3271 29.8259C24.4217 29.8442 24.5156 29.8634 24.6084 29.8845C24.7038 29.8333 24.5172 29.8467 24.457 29.8357C24.4172 29.8281 24.3873 29.8088 24.3271 29.8054C24.3044 29.8042 24.2766 29.8047 24.2432 29.8093ZM18.7451 29.5818C18.7204 29.5851 18.2339 29.7903 18.2725 29.7947C18.3382 29.7705 19.0351 29.5001 18.7451 29.5818ZM24.1348 29.6072C24.2863 29.6447 23.4581 29.6812 23.3086 29.6443C23.4739 29.6271 23.837 29.6471 23.9873 29.6365C24.0026 29.6337 23.9113 29.552 24.1348 29.6072ZM19.834 29.4968C19.6575 29.4827 19.544 29.6394 19.7861 29.5505C19.7976 29.5464 19.8411 29.4981 19.834 29.4968ZM20.8369 29.0935C20.5079 29.1185 19.974 29.1945 19.6553 29.2693C19.5636 29.2898 19.4803 29.3322 19.4033 29.3523C19.2805 29.3845 19.3816 29.3273 19.373 29.3288C19.208 29.3622 19.0207 29.4826 19.3623 29.3855C19.2452 29.4293 19.1281 29.475 19.0127 29.5232C19.4649 29.4113 19.4108 29.3495 19.541 29.3152C19.7229 29.2712 19.7258 29.3411 19.6953 29.3708C19.831 29.2885 20.4655 29.147 20.8369 29.0935ZM20.1621 29.3406C19.5888 29.4905 19.7939 29.3896 19.6855 29.3952C19.4567 29.4142 19.5706 29.5254 19.5986 29.5232C19.7151 29.5115 20.084 29.3686 20.1621 29.3406ZM19.249 29.2781C19.2013 29.2847 18.7849 29.4181 18.7598 29.4558C18.9623 29.4144 19.3558 29.2574 19.249 29.2781ZM22.877 29.2644C23.0682 29.2891 22.5872 29.3116 22.5352 29.2761C22.5256 29.2695 22.8405 29.2597 22.877 29.2644ZM23.8164 29.2741C23.8258 29.2896 23.5651 29.294 23.54 29.2917C23.3925 29.2756 23.7187 29.2649 23.8164 29.2741ZM21.3223 28.8991C20.9333 28.8442 20.4351 29.0274 20.3789 29.0378C20.3231 29.0458 20.4024 28.9935 20.3896 28.9948C20.3548 28.9949 19.7702 29.1228 19.7441 29.1365C19.7262 29.1436 19.8416 29.1688 19.7266 29.2146C19.949 29.1104 21.0302 28.9495 21.0928 28.9499C21.1362 28.9413 20.7994 28.9201 21.3223 28.8991ZM22.8428 29.1921C22.9903 29.2083 22.6642 29.218 22.5664 29.2087C22.5591 29.1934 22.8187 29.1898 22.8428 29.1921ZM20.2373 29.0534C20.3883 29.0458 19.9781 29.1303 19.877 29.1482C19.6521 29.1815 20.2173 29.0508 20.2373 29.0534ZM20.998 29.0232C20.81 29.0448 20.5177 29.0757 20.4209 29.1247C20.6079 29.0901 20.8987 29.065 20.998 29.0232ZM19.7988 28.9822C19.9518 28.949 20.2692 28.8786 20.2061 28.9226C19.9308 28.9592 19.3514 29.156 19.5781 29.031C19.6932 28.968 19.7832 28.9855 19.7988 28.9822ZM22.4199 28.9402C22.8461 28.9748 22.5366 29.0206 23.4277 28.9509C23.0538 29.0002 23.4071 28.9867 23.334 29.0066C23.2748 29.0222 23.0561 29.0091 23.1836 29.0407C23.0157 29.0062 22.2864 29.0151 22.2539 29.0095C22.2349 29.0057 22.2844 28.9292 22.4199 28.9402ZM20.5986 28.7732C20.8577 28.7595 19.7104 28.9637 19.6436 28.9909C19.714 28.9449 20.5613 28.7654 20.5986 28.7732ZM19.8047 28.8796C19.8497 28.8799 19.7768 28.9254 19.6514 28.9577C19.6021 28.9538 19.6995 28.8797 19.8047 28.8796ZM23.5088 28.9206C23.4467 28.9428 22.7528 28.9556 22.7656 28.9284C22.781 28.9045 23.3991 28.9208 23.5088 28.9206ZM19.8809 28.8572C19.9842 28.7953 20.8273 28.6795 20.6084 28.7409C20.5685 28.7422 19.729 28.9282 19.8809 28.8572ZM25.5947 28.6872C25.3184 28.6775 24.4636 28.4726 25.3906 28.5691C25.6317 28.6008 25.4798 28.6092 25.4902 28.6111C25.9985 28.7072 25.8695 28.6416 25.9502 28.6452C26.1247 28.6591 26.0872 28.7176 26.3789 28.7448C25.8969 28.6972 26.3324 28.7595 26.3408 28.7859C26.3762 28.886 25.7182 28.63 25.4727 28.6306C25.4393 28.6293 25.681 28.6885 25.5947 28.6872ZM24.9277 28.7566C24.7389 28.7278 25.1786 28.7453 25.3047 28.7683C25.3038 28.7809 24.9488 28.7578 24.9277 28.7566ZM25.9688 28.6218C25.907 28.5739 26.3022 28.6476 26.3564 28.6667C26.375 28.6727 26.0503 28.6813 25.9688 28.6218ZM25.3047 28.2712C25.49 28.3149 24.8547 28.2597 25.0752 28.2507C25.0889 28.2503 25.2976 28.269 25.3047 28.2712Z" fill="#CBD5DF"/>
<path fill-rule="evenodd" clip-rule="evenodd" d="M19.6318 37.403C19.8455 37.3678 19.9261 37.5962 19.9795 37.8424C20.0194 37.825 20.0593 37.8248 20.0859 37.8248C21.9558 38.2471 22.9443 40.3761 22.9443 43.4196C22.9443 47.1669 21.7021 49.1548 19.7119 49.2428C17.6684 49.3307 16.373 47.3427 16.373 43.5426C16.3732 39.8659 17.6952 37.7197 19.6318 37.403ZM19.6582 39.3737C18.5766 39.7081 17.922 41.0274 17.9219 43.525C17.9219 46.2696 18.7239 47.4138 19.6855 47.3258C20.7807 47.2201 21.4355 45.8824 21.4355 43.4547C21.4355 41.0626 20.8742 40.1299 19.8994 39.7428C19.7525 39.6725 19.6849 39.6023 19.6582 39.3737Z" fill="#A6BBCE"/>
<path fill-rule="evenodd" clip-rule="evenodd" d="M26.9756 37.403C27.1892 37.3678 27.2698 37.5962 27.3232 37.8424C27.3631 37.825 27.4031 37.8248 27.4297 37.8248C29.2996 38.2471 30.288 40.3761 30.2881 43.4196C30.2881 47.1669 29.0458 49.1548 27.0557 49.2428C25.0121 49.3307 23.7168 47.3427 23.7168 43.5426C23.7169 39.8659 25.0389 37.7197 26.9756 37.403ZM27.002 39.3737C25.9204 39.7081 25.2657 41.0274 25.2656 43.525C25.2656 46.2696 26.0676 47.4138 27.0293 47.3258C28.1244 47.2201 28.7793 45.8824 28.7793 43.4547C28.7792 41.0626 28.218 40.1299 27.2432 39.7428C27.0963 39.6725 27.0287 39.6023 27.002 39.3737Z" fill="#A6BBCE"/>
<path d="M65.467 39.2008C65.467 33.9299 69.74 29.657 75.0109 29.657H77.0869C82.3578 29.657 86.6307 33.9299 86.6307 39.2008V47.204C86.6307 52.4749 82.3578 56.7479 77.0869 56.7479H75.0108C69.7399 56.7479 65.467 52.4749 65.467 47.204V39.2008Z" fill="#7D9AB2"/>
<path d="M77.343 28.6404C78.4445 28.625 79.5621 28.7835 80.6292 29.1189C80.6859 29.1337 80.7425 29.1494 80.7991 29.1657C81.2197 29.2871 81.6175 29.3925 82.0139 29.5212C82.1048 29.5508 82.1959 29.5814 82.2864 29.614C82.9889 29.8453 84.1171 30.7164 84.6409 31.281C84.6507 31.291 84.6603 31.3012 84.6702 31.3113C84.7977 31.4422 84.9194 31.565 85.0569 31.7136C85.3745 32.0722 85.8427 32.5515 86.4758 33.7517C86.676 34.0907 86.8572 34.4417 87.0168 34.8015C87.6309 36.1817 87.9361 37.6995 87.9143 39.2009C87.8781 41.6094 87.8136 44.018 87.7424 46.4265C87.743 46.4735 87.7438 46.5217 87.7444 46.57C87.7469 46.7729 87.75 46.9866 87.7522 47.2038C87.7653 48.0819 87.6317 49.0175 87.4514 49.6306C87.1615 50.6262 86.837 51.2535 86.5569 51.7497C85.0686 54.668 82.2007 56.7643 79.0393 57.321C78.3948 57.4379 77.7403 57.4944 77.0872 57.4919C76.764 57.4906 76.4406 57.49 76.1174 57.49C75.7487 57.49 75.3798 57.4907 75.011 57.4919C74.4851 57.4936 73.9596 57.4564 73.4397 57.3806C72.9036 57.323 72.396 57.2313 71.9319 57.115C71.2788 56.9516 70.7111 56.739 70.2629 56.5222C69.1741 56.0082 68.1124 55.1197 67.4524 54.363C67.343 54.2403 67.2424 54.1214 67.1516 54.0105C66.6179 53.418 66.1497 52.7628 65.762 52.0613C65.7452 52.0097 65.729 51.9572 65.7131 51.904C65.5224 51.2398 65.1718 50.4838 64.9075 49.2019C64.7972 48.6442 64.7133 47.9871 64.7209 47.2126C64.721 47.2098 64.7209 47.2067 64.7209 47.2038C64.7272 46.7464 64.7752 46.5103 64.8147 46.3171C64.8264 46.26 64.8371 46.2063 64.8459 46.1521C64.8762 45.966 64.8436 45.7695 64.8049 45.5378C64.7548 45.2374 64.695 44.8771 64.7493 44.4011C64.9225 42.8835 64.805 42.2146 64.7161 41.7087C64.69 41.5603 64.6667 41.4255 64.6536 41.2878C64.6112 40.8413 64.6525 40.2051 64.7102 39.7243C64.7264 39.5893 64.7319 39.4065 64.7288 39.2009C64.7218 38.7962 64.719 38.3119 64.7336 37.904C64.7414 37.6664 64.789 37.3464 64.8694 36.9763C64.9524 36.593 65.0717 36.1545 65.2131 35.6882C65.5818 34.5103 65.9227 33.9319 66.1838 33.4714C66.2605 33.341 66.335 33.221 66.4114 33.1023C66.6521 32.7265 66.9872 32.2814 67.3655 31.864C67.8162 31.3622 68.3305 30.9043 68.7385 30.5749C69.853 29.7987 71.1172 29.2467 72.4319 28.9548C73.1077 28.8029 73.7859 28.8212 74.2698 28.9626C74.7567 29.1041 75.0112 29.3397 75.011 29.574C75.0099 29.8108 74.7626 30.0323 74.3606 30.2351C73.9578 30.4376 73.4333 30.6148 72.8879 30.7722C71.7868 31.0866 70.7581 31.6213 69.8704 32.324C68.7878 33.1793 67.9151 34.2808 67.3235 35.5134C66.9089 36.3754 66.6369 37.306 66.5227 38.2585C66.5109 38.3571 66.501 38.454 66.4924 38.5525C66.4917 38.7716 66.4986 38.9875 66.5129 39.2009C66.5517 39.8436 66.5841 40.4475 66.5979 40.9099C66.6134 41.4325 66.5824 41.814 66.5559 42.1404C66.5377 42.365 66.5211 42.5643 66.5237 42.7654C66.5251 42.8732 66.5292 43.0205 66.5334 43.198C66.551 43.9244 66.5803 45.1585 66.5237 46.2839C66.5093 46.5706 66.4867 46.8841 66.4612 47.2038C66.4423 47.4182 66.4294 47.6335 66.425 47.8484C66.407 48.5663 66.5019 49.2441 66.6145 49.5661C66.8065 50.1323 67.0342 50.7775 67.301 51.3249C67.5523 51.8477 67.8313 52.2794 68.0374 52.4851C68.2841 52.7302 68.455 52.9667 68.7385 53.3015C68.9362 53.5318 69.1894 53.81 69.5833 54.1325C70.0394 54.5025 70.3792 54.7474 70.675 54.947C71.0934 55.2235 71.4305 55.416 71.9778 55.5603C72.5858 55.7188 73.223 55.8278 73.7249 55.9187C73.9528 55.9609 74.2177 55.9871 74.4944 56.0007C74.664 56.0091 74.8371 56.0133 75.011 56.0144C75.2278 56.0156 75.443 56.0203 75.6477 56.032C75.9615 56.0499 76.2209 56.095 76.4504 56.1355C76.522 56.1481 76.5909 56.16 76.6575 56.1706C76.8006 56.1703 76.944 56.1702 77.0872 56.1697C77.1882 56.1692 77.2888 56.1667 77.3889 56.1628C77.4266 56.1542 77.4661 56.1448 77.5071 56.1345C77.7147 56.0824 77.964 56.0132 78.2717 55.946C78.7576 55.8387 79.1836 55.7695 79.6331 55.6638C79.9817 55.5807 80.3426 55.4742 80.7307 55.2907C80.9948 55.166 81.2834 54.9971 81.5569 54.8142C81.9646 54.5435 82.3363 54.2395 82.6057 54.0427C82.7067 53.9694 82.8071 53.9216 82.9065 53.8728H82.9084C82.915 53.8696 82.9215 53.8662 82.928 53.863C83.5289 53.3064 84.0494 52.6658 84.469 51.9704C84.501 51.9075 84.5331 51.8436 84.5637 51.78C84.7139 51.4694 84.836 51.1587 84.885 50.9441C84.9396 50.713 85.1503 50.1696 85.2854 49.5759C85.3764 49.1874 85.4372 48.7807 85.4563 48.446C85.4677 48.252 85.5182 48.071 85.5637 47.8835C85.6061 47.7078 85.6443 47.5251 85.6399 47.323C85.639 47.2846 85.6365 47.2445 85.6331 47.2038C85.6274 47.1298 85.6197 47.052 85.6116 46.9714C85.6 46.8573 85.5878 46.7363 85.5803 46.6101C85.5734 46.4925 85.5891 46.2312 85.6096 45.8962C85.6223 45.6891 85.6369 45.4537 85.6487 45.2068C85.6302 44.5536 85.6124 43.8999 85.5959 43.2468C85.57 43.1105 85.5367 42.9918 85.4934 42.8982C85.4624 42.8311 85.4249 42.7742 85.387 42.7156C85.3353 42.6356 85.282 42.5522 85.2395 42.4382C85.2064 42.3492 85.1935 42.244 85.2073 42.1736C85.2137 42.1409 85.2256 42.1153 85.2366 42.0925C85.2491 42.0664 85.2603 42.0429 85.26 42.0144C85.2597 41.9938 85.2512 41.9723 85.2405 41.946C85.2233 41.9039 85.2003 41.8487 85.1995 41.7654C85.1965 41.4552 85.2042 41.1028 85.2112 40.7575C85.219 40.3733 85.2266 39.9972 85.22 39.698C85.2168 39.5546 85.2213 39.3853 85.2297 39.2009C85.2411 38.9884 85.2509 38.7549 85.2502 38.5183C85.2499 38.2312 85.2325 37.9416 85.1965 37.696C85.1618 37.456 85.0871 37.2124 85.0042 36.9822C84.905 36.7064 84.7947 36.4494 84.7346 36.2165C84.7225 36.1694 84.7332 36.0998 84.7454 36.0124C84.754 35.9508 84.7633 35.8792 84.7649 35.8005C84.6388 35.5164 84.498 35.2378 84.343 34.9675C84.3333 34.9605 84.3228 34.9532 84.3127 34.946L84.1282 34.8132C83.9347 34.6681 83.721 34.4755 83.5559 34.1501C83.4992 34.0394 83.4839 33.952 83.469 33.8728C83.4543 33.7951 83.4398 33.7253 83.385 33.6521C83.3228 33.569 83.2228 33.4944 83.1125 33.4167C82.9573 33.3072 82.7823 33.1928 82.6536 33.0261C82.6448 33.0148 82.6352 33.0026 82.6252 32.99C82.5308 32.8695 82.3862 32.6946 82.2561 32.4939C81.7388 32.0676 81.1718 31.6982 80.5667 31.3982C79.5584 30.8973 78.4436 30.5916 77.2981 30.5134C77.2276 30.5085 77.1573 30.5026 77.0872 30.4968C76.5602 30.4565 76.0646 30.3546 75.6868 30.2029C75.2541 30.0289 75.011 29.8053 75.011 29.574C75.0111 29.3427 75.2542 29.119 75.6868 28.945C76.0646 28.7933 76.5602 28.6914 77.0872 28.6511C77.1719 28.6453 77.2574 28.6415 77.343 28.6404Z" fill="#CBD5DF"/>
<path fill-rule="evenodd" clip-rule="evenodd" d="M72.3926 37.403C72.606 37.368 72.6858 37.5964 72.7393 37.8425C72.7793 37.8249 72.82 37.8249 72.8467 37.8249C74.7165 38.2472 75.705 40.3762 75.7051 43.4196C75.7051 47.1669 74.4627 49.1548 72.4727 49.2429C70.4291 49.3308 69.1338 47.3428 69.1338 43.5427C69.1339 39.8659 70.4559 37.7197 72.3926 37.403ZM72.4189 39.3737C71.3372 39.7081 70.6827 41.0273 70.6826 43.5251C70.6826 46.2697 71.4846 47.4139 72.4463 47.3259C73.5413 47.22 74.1953 45.8823 74.1953 43.4548C74.1953 41.0623 73.6342 40.1299 72.6592 39.7429C72.5125 39.6726 72.4457 39.6021 72.4189 39.3737Z" fill="#A6BBCE"/>
<path fill-rule="evenodd" clip-rule="evenodd" d="M79.7363 37.403C79.9496 37.3682 80.0296 37.5965 80.083 37.8425C80.1231 37.8249 80.1637 37.8249 80.1904 37.8249C82.0601 38.2473 83.0488 40.3763 83.0488 43.4196C83.0488 47.1668 81.8064 49.1547 79.8164 49.2429C77.7728 49.3308 76.4766 47.3428 76.4766 43.5427C76.4767 39.8659 77.7996 37.7197 79.7363 37.403ZM79.7627 39.3737C78.6808 39.708 78.0264 41.0271 78.0264 43.5251C78.0264 46.2694 78.8275 47.4136 79.7891 47.3259C80.8843 47.2203 81.5391 45.8827 81.5391 43.4548C81.539 41.0623 80.9779 40.1299 80.0029 39.7429C79.8561 39.6725 79.7894 39.6022 79.7627 39.3737Z" fill="#A6BBCE"/>
</svg>