<svg width="100" height="100" viewBox="0 0 100 100" fill="none" xmlns="http://www.w3.org/2000/svg">
<rect width="100" height="100" fill="white"/>
<path d="M24.3114 20.9465C32.7844 23.3245 39.5845 25.4494 45.4975 30.3449C46.2895 31.0006 45.7839 32.2196 44.7542 32.1943L25.2782 31.7156C24.8534 31.7052 24.4665 31.4619 24.3022 31.0716C22.4429 26.6538 22.6844 20.4081 24.3114 20.9465Z" fill="#FF5D5D"/>
<path d="M74.2168 21.8256C65.7438 24.2036 58.9437 26.3285 53.0307 31.224C52.2387 31.8797 52.7443 33.0986 53.774 33.0733L73.25 32.5947C73.6748 32.5842 74.0617 32.3409 74.226 31.9507C76.0853 27.5329 75.8438 21.2872 74.2168 21.8256Z" fill="#FF5D5D"/>
<path d="M31.1084 14.1799C31.4513 13.9643 31.8828 13.9409 32.2472 14.1183C38.104 16.9686 41.0377 19.8315 45.6352 25.4189C45.8105 25.6319 45.9075 25.9008 45.9078 26.1762L45.9134 31.0043C45.9145 31.9334 44.8974 32.5082 44.095 32.034C37.0002 27.841 32.2139 25.1119 24.2726 23.0568C23.4651 22.8478 23.0876 21.9105 23.5705 21.233C25.7225 18.2135 27.7795 16.2726 31.1084 14.1799Z" fill="#FF8787"/>
<path d="M67.42 15.0594C67.077 14.8439 66.6454 14.8205 66.281 14.9978C60.4242 17.8481 57.4905 20.7111 52.893 26.2985C52.7177 26.5115 52.6207 26.7803 52.6204 27.0557L52.6148 31.8839C52.6137 32.8129 53.6308 33.3878 54.4332 32.9136C61.5224 28.7238 66.3068 25.9958 74.2369 23.9411C75.0496 23.7306 75.4249 22.7834 74.9354 22.1039C72.718 19.0263 70.7465 17.1493 67.42 15.0594Z" fill="#FF8787"/>
<path d="M44.7817 27.2576C44.7817 25.9346 45.8588 24.8621 47.1874 24.8621H51.8126C53.1412 24.8621 54.2183 25.9346 54.2183 27.2576V31.4397H44.7817V27.2576Z" fill="#FF5D5D"/>
<path d="M17.8873 42.2921C17.8873 40.969 18.9644 39.8965 20.293 39.8965H78.7069C80.0356 39.8965 81.1126 40.969 81.1126 42.2921V82.6044C81.1126 83.9275 80.0356 85 78.7069 85H20.293C18.9644 85 17.8873 83.9275 17.8873 82.6044V42.2921Z" fill="#76D36F"/>
<path d="M16 33.8352C16 32.5121 17.0771 31.4396 18.4057 31.4396H80.5943C81.9229 31.4396 83 32.5121 83 33.8352V45.9579C83 47.2809 81.9229 48.3534 80.5943 48.3534H18.4057C17.0771 48.3534 16 47.2809 16 45.9579V33.8352Z" fill="#B9E2B6"/>
<path d="M54.2183 56.8104H81.1128V66.2069H54.2183V85H44.7818V66.2069H17.8874V56.8104H44.7818L44.7817 31.4397H54.2183L54.2183 56.8104Z" fill="#FF8787"/>
</svg>
