<svg width="100" height="100" viewBox="0 0 100 100" fill="none" xmlns="http://www.w3.org/2000/svg">
<path d="M75.0665 39.115C75.1147 38.8253 75.531 38.8253 75.5792 39.115L76.1017 42.2859C76.1198 42.396 76.2065 42.4827 76.3165 42.5008L79.4864 43.0233C79.7769 43.0711 79.7769 43.4881 79.4864 43.5359L76.3165 44.0584C76.2065 44.0765 76.1198 44.1632 76.1017 44.2733L75.5792 47.4432C75.5314 47.7336 75.1144 47.7336 75.0665 47.4432L74.5441 44.2733C74.5259 44.1632 74.4392 44.0765 74.3292 44.0584L71.1583 43.5359C70.8685 43.4877 70.8685 43.0715 71.1583 43.0233L74.3292 42.5008C74.4392 42.4827 74.5259 42.396 74.5441 42.2859L75.0665 39.115Z" fill="#FFDB6E"/>
<path d="M71.6847 34.6932C71.7328 34.4033 72.1502 34.4033 72.1983 34.6932L72.3898 35.8543C72.4079 35.9643 72.4936 36.051 72.6036 36.0692L73.7648 36.2606C74.0549 36.3086 74.0549 36.7253 73.7648 36.7733L72.6036 36.9647C72.4936 36.9828 72.4079 37.0695 72.3898 37.1795L72.1983 38.3397C72.1505 38.6301 71.7325 38.6301 71.6847 38.3397L71.4933 37.1795C71.4752 37.0696 71.3893 36.9829 71.2794 36.9647L70.1183 36.7733C69.8279 36.7254 69.8279 36.3084 70.1183 36.2606L71.2794 36.0692C71.3893 36.051 71.4752 35.9643 71.4933 35.8543L71.6847 34.6932Z" fill="#FFDB6E"/>
<path d="M25.3634 26.5731C25.4155 26.268 25.8544 26.2703 25.9034 26.576L26.4376 29.9168C26.4563 30.0325 26.5466 30.1238 26.6622 30.1434L29.9972 30.7088C30.3026 30.7607 30.3002 31.2009 29.9942 31.2498L26.6544 31.783C26.5385 31.8015 26.4475 31.8919 26.4278 32.0076L25.8614 35.3426C25.8096 35.6481 25.3703 35.6456 25.3214 35.3397L24.7872 31.9998C24.7687 31.8839 24.6783 31.7929 24.5626 31.7733L21.2276 31.2068C20.9225 31.1547 20.9247 30.7157 21.2306 30.6668L24.5714 30.1326C24.6869 30.1139 24.7782 30.0243 24.798 29.909L25.3634 26.5731Z" fill="#FFDB6E"/>
<path d="M42.8019 49.8212C42.7787 49.3928 43.1199 49.0326 43.549 49.0326H57.1227C57.5504 49.0326 57.891 49.3904 57.8699 49.8175L56.0734 86.2883C56.0537 86.6867 55.725 86.9996 55.3261 86.9996H45.5252C45.1278 86.9996 44.7997 86.6889 44.7782 86.292L42.8019 49.8212Z" fill="#B4B3B3"/>
<path d="M40.6049 46.2276C40.3157 45.7289 40.6756 45.1043 41.2521 45.1043H59.5026C60.059 45.1043 60.4207 45.6899 60.1716 46.1874L59.2351 48.0576C59.1083 48.3109 58.8494 48.4708 58.5662 48.4708H42.3365C42.0697 48.4708 41.8231 48.3287 41.6892 48.0979L40.6049 46.2276Z" fill="#D1CCCC"/>
<path d="M44.6296 83.2598H56.2254L56.0739 86.2896C56.054 86.6878 55.7248 86.9996 55.3261 86.9996L45.5282 87.0004C45.1296 87.0004 44.801 86.6878 44.781 86.2896L44.6296 83.2598Z" fill="#D1CCCC"/>
<path d="M50.4276 72.2246C50.5309 72.2246 50.6151 72.3088 50.6151 72.4121V80.2666C50.6151 80.3699 50.5309 80.4541 50.4276 80.4541C50.3243 80.4541 50.2411 80.3699 50.2411 80.2666V72.4121C50.2411 72.3088 50.3243 72.2246 50.4276 72.2246Z" fill="#F1F1F1"/>
<path d="M50.8016 66.2393C51.2148 66.2393 51.5496 66.5742 51.5497 66.9873V67.5489C51.5495 67.9619 51.2147 68.2969 50.8016 68.2969H49.6795C49.2665 68.2969 48.9317 67.9618 48.9315 67.5489V66.9873C48.9315 66.5742 49.2664 66.2393 49.6795 66.2393H50.8016Z" fill="#F1F1F1"/>
<path d="M50.8016 63.6621C51.2148 63.6621 51.5496 63.997 51.5497 64.4102V64.9717C51.5495 65.3847 51.2147 65.7197 50.8016 65.7197H49.6795C49.2665 65.7197 48.9317 65.3847 48.9315 64.9717V64.4102C48.9315 63.9971 49.2664 63.6622 49.6795 63.6621H50.8016Z" fill="#F1F1F1"/>
<path d="M50.8016 53.001C51.2148 53.001 51.5496 53.3359 51.5497 53.749V62.1651C51.5497 62.5782 51.2148 62.9131 50.8016 62.9131H49.6795C49.2664 62.9131 48.9315 62.5782 48.9315 62.1651V53.749C48.9315 53.3359 49.2664 53.001 49.6795 53.001H50.8016Z" fill="#F1F1F1"/>
<path d="M50.24 13.8708C59.6397 13.8708 67.2595 21.4906 67.2595 30.8903C67.2595 36.4804 64.5648 41.4409 60.4031 44.5436H40.0779C35.9161 41.4409 33.2205 36.4805 33.2205 30.8903C33.2205 21.4907 40.8404 13.8709 50.24 13.8708Z" fill="#D5E8F9"/>
<path d="M53.6071 15.7406H47.2481L47.3307 12.7276C47.3418 12.3226 47.6733 12 48.0785 12H52.7766C53.1818 12 53.5133 12.3226 53.5244 12.7276L53.6071 15.7406Z" fill="#F1F1F1"/>
<path d="M35.7449 28.6452C36.1063 28.6452 36.4 28.9382 36.4002 29.2995C36.4002 29.6611 36.1065 29.9548 35.7449 29.9548C35.3835 29.9546 35.0906 29.661 35.0906 29.2995C35.0909 28.9383 35.3837 28.6454 35.7449 28.6452Z" fill="white"/>
<path d="M42.8817 17.4509C43.1245 17.364 43.392 17.4904 43.4793 17.7331C43.5666 17.9762 43.4401 18.2445 43.1971 18.3318C41.4794 18.9485 39.8413 20.2847 38.5897 21.9216C37.3376 23.5593 36.5078 25.4521 36.3563 27.1404C36.333 27.3972 36.1054 27.5871 35.8484 27.5642C35.5914 27.5409 35.4016 27.3134 35.4246 27.0564C35.5958 25.1488 36.5169 23.0924 37.8465 21.3533C39.1769 19.6133 40.9527 18.1434 42.8817 17.4509Z" fill="white"/>
<path d="M50.0716 20.2022C50.1835 19.8576 50.6711 19.8576 50.7831 20.2022L53.0727 27.2491C53.1228 27.4032 53.2664 27.5075 53.4285 27.5075H60.838C61.2004 27.5075 61.351 27.9712 61.0579 28.1842L55.0634 32.5394C54.9323 32.6347 54.8775 32.8035 54.9276 32.9576L57.2172 40.0045C57.3292 40.3491 56.9348 40.6357 56.6416 40.4227L50.6472 36.0675C50.5161 35.9723 50.3385 35.9723 50.2074 36.0675L44.213 40.4227C43.9199 40.6357 43.5254 40.3491 43.6374 40.0045L45.9271 32.9576C45.9771 32.8035 45.9223 32.6347 45.7912 32.5394L39.7968 28.1842C39.5036 27.9712 39.6543 27.5075 40.0166 27.5075H47.4261C47.5882 27.5075 47.7318 27.4032 47.7819 27.2491L50.0716 20.2022Z" fill="#FFDB6E"/>
</svg>