<svg width="100" height="100" viewBox="0 0 100 100" fill="none" xmlns="http://www.w3.org/2000/svg">
<rect width="100" height="100" fill="white"/>
<path d="M45.7311 19.6466C46.007 18.2273 48.0427 18.2273 48.3186 19.6466L52.8633 43.0293C52.9598 43.5257 53.3331 43.9229 53.8235 44.051L74.7686 49.5191C76.0809 49.8617 76.0809 51.7204 74.7686 52.063L53.8235 57.5312C53.3331 57.6592 52.9598 58.0564 52.8633 58.5528L48.3186 81.9355C48.0427 83.3548 46.007 83.3548 45.7311 81.9355L41.1863 58.5528C41.0898 58.0564 40.7166 57.6592 40.2262 57.5312L19.281 52.063C17.9688 51.7204 17.9688 49.8617 19.2811 49.5191L40.2262 44.051C40.7166 43.9229 41.0898 43.5257 41.1863 43.0293L45.7311 19.6466Z" fill="#FFDB6E"/>
<path d="M22.0104 66.9827C22.2862 65.5632 24.3221 65.5632 24.5979 66.9827L25.3874 71.0467C25.4838 71.5432 25.8571 71.9404 26.3474 72.0685L30.6242 73.1855C31.9363 73.5283 31.9363 75.3867 30.6242 75.7294L26.3474 76.8465C25.8571 76.9745 25.4838 77.3718 25.3874 77.8682L24.5979 81.9323C24.3221 83.3517 22.2862 83.3517 22.0104 81.9323L21.2209 77.8682C21.1244 77.3718 20.7512 76.9745 20.2609 76.8465L15.9841 75.7294C14.672 75.3867 14.672 73.5283 15.9841 73.1855L20.2609 72.0685C20.7512 71.9404 21.1244 71.5432 21.2209 71.0467L22.0104 66.9827Z" fill="#FFE79E"/>
<path d="M69.4122 37.4771L81.4035 37.9566C81.9489 37.9784 82.3733 38.4374 82.3514 38.9815C82.3295 39.5257 81.8697 39.949 81.3243 39.9272L69.3331 39.4478C68.7878 39.4259 68.3633 38.9672 68.3852 38.4231C68.407 37.8789 68.8668 37.4554 69.4122 37.4771Z" fill="#FFE79E"/>
<path d="M82.4026 18.4773C82.8326 18.1417 83.4538 18.2174 83.7901 18.6464C84.1264 19.0753 84.0504 19.695 83.6205 20.0306L66.8287 33.136C66.3987 33.4715 65.7776 33.3958 65.4413 32.9669C65.105 32.538 65.1808 31.9182 65.6108 31.5826L82.4026 18.4773Z" fill="#FFE79E"/>
<path d="M67.0271 16.443C67.3277 15.9885 67.9408 15.8632 68.3964 16.1631C68.852 16.4631 68.9777 17.0746 68.6771 17.5292L62.0679 27.5231C61.7673 27.9776 61.1542 28.1031 60.6986 27.8032C60.243 27.5033 60.1173 26.8915 60.4179 26.437L67.0271 16.443Z" fill="#FFE79E"/>
</svg>
