<svg width="100" height="100" viewBox="0 0 100 100" fill="none" xmlns="http://www.w3.org/2000/svg">
<rect width="100" height="100" fill="white"/>
<path fill-rule="evenodd" clip-rule="evenodd" d="M70.3485 17.9637C70.4254 18.4943 70.7619 18.9666 71.2859 19.2783C71.8149 19.5929 72.4916 19.718 73.167 19.6263C73.8424 19.5345 74.4614 19.2333 74.8875 18.789C75.3101 18.3484 75.5087 17.8029 75.4412 17.2706L84.5639 16.029C86.2775 15.7957 87.8555 16.997 88.0886 18.712L91.9711 47.2868C92.2041 49.0019 91.0039 50.5813 89.2903 50.8145L31.3502 58.7002C29.6366 58.9335 28.0586 57.7322 27.8255 56.0172L27.6824 54.9635C28.2098 54.8843 28.6791 54.5478 28.9889 54.0252C29.303 53.4954 29.4277 52.8181 29.3357 52.1421C29.2437 51.4662 28.9424 50.847 28.4982 50.4208C28.0603 50.0006 27.5188 49.802 26.9899 49.8666L26.7115 47.8181C27.239 47.7389 27.7082 47.4024 28.0181 46.8798C28.3321 46.3501 28.4569 45.6727 28.3649 44.9968C28.2729 44.3208 27.9716 43.7016 27.5274 43.2754C27.0895 42.8552 26.548 42.6567 26.019 42.7213L25.7407 40.6728C26.2681 40.5936 26.7373 40.2571 27.0472 39.7344C27.3613 39.2047 27.486 38.5274 27.394 37.8514C27.302 37.1755 27.0007 36.5563 26.5565 36.13C26.1186 35.7098 25.5771 35.5113 25.0482 35.5759L24.7698 33.5274C25.2973 33.4482 25.7665 33.1116 26.0763 32.589C26.3904 32.0593 26.5152 31.382 26.4232 30.7061C26.3311 30.0301 26.0299 29.4109 25.5857 28.9847C25.1477 28.5645 24.6063 28.366 24.0773 28.4306L23.943 27.4424C23.71 25.7273 24.9102 24.1479 26.6238 23.9147L70.3485 17.9637ZM77.3435 50.3645C76.6681 50.4566 76.0494 50.7581 75.6236 51.2027C75.1977 51.6473 74.9996 52.1985 75.0728 52.7351L80.1657 52.0406C80.0926 51.504 79.7542 51.0259 79.2249 50.7116C78.6957 50.3973 78.0189 50.2724 77.3435 50.3645ZM91.1139 41.1389C90.5777 41.2116 90.0999 41.55 89.7855 42.0794C89.4712 42.6089 89.346 43.2861 89.4377 43.9621C89.5294 44.6381 89.8303 45.2575 90.2743 45.6841C90.7183 46.1106 91.269 46.3093 91.8053 46.2366L91.1139 41.1389ZM90.1431 33.9935C89.6068 34.0663 89.129 34.4046 88.8147 34.9341C88.5003 35.4635 88.3752 36.1408 88.4669 36.8168C88.5585 37.4928 88.8595 38.1122 89.3035 38.5387C89.7475 38.9653 90.2982 39.164 90.8344 39.0912L90.1431 33.9935ZM89.1722 26.8481C88.636 26.9209 88.1581 27.2593 87.8438 27.7887C87.5295 28.3182 87.4043 28.9954 87.496 29.6714C87.5877 30.3474 87.8886 30.9668 88.3326 31.3934C88.7766 31.8199 89.3273 32.0186 89.8635 31.9459L89.1722 26.8481ZM88.2014 19.7028C87.6651 19.7756 87.1873 20.1139 86.8729 20.6434C86.5586 21.1728 86.4335 21.8501 86.5252 22.5261C86.6168 23.202 86.9178 23.8214 87.3617 24.2479C87.8057 24.6745 88.3565 24.8733 88.8927 24.8005L88.2014 19.7028Z" fill="#D5E8F9"/>
<path fill-rule="evenodd" clip-rule="evenodd" d="M77.2527 49.6654L77.3475 50.3633L77.6458 50.3227L77.551 49.6248L77.2527 49.6654ZM76.8734 46.8737L77.063 48.2696L77.3614 48.229L77.1717 46.8331L76.8734 46.8737ZM76.494 44.0821L76.6837 45.4779L76.9821 45.4373L76.7924 44.0415L76.494 44.0821ZM76.1147 41.2905L76.3044 42.6863L76.6027 42.6457L76.4131 41.2499L76.1147 41.2905ZM75.7354 38.4988L75.9251 39.8946L76.2234 39.854L76.0338 38.4582L75.7354 38.4988ZM75.3561 35.7072L75.5458 37.103L75.8441 37.0624L75.6545 35.6666L75.3561 35.7072ZM74.9768 32.9155L75.1665 34.3113L75.4648 34.2707L75.2752 32.8749L74.9768 32.9155ZM74.5975 30.1239L74.7872 31.5197L75.0855 31.4791L74.8959 30.0833L74.5975 30.1239ZM74.2182 27.3322L74.4079 28.7281L74.7062 28.6874L74.5166 27.2916L74.2182 27.3322ZM73.8389 24.5406L74.0285 25.9364L74.3269 25.8958L74.1373 24.5L73.8389 24.5406ZM73.4596 21.7489L73.6492 23.1448L73.9476 23.1042L73.7579 21.7083L73.4596 21.7489ZM73.1751 19.6552L73.2699 20.3531L73.5683 20.3125L73.4735 19.6146L73.1751 19.6552Z" fill="#A6BBCE"/>
<path d="M30.8995 34.5803C30.6082 32.4365 32.1085 30.4623 34.2505 30.1708L67.1277 25.6961C69.2697 25.4046 71.2423 26.9062 71.5336 29.05L73.2937 42.0044C73.585 44.1482 72.0847 46.1224 69.9427 46.414L37.0655 50.8886C34.9235 51.1801 32.9509 49.6786 32.6597 47.5348L30.8995 34.5803Z" fill="#EEF7FC"/>
<path d="M56.5552 32.8413C57.378 32.7693 57.5094 32.8309 58.4472 32.7084C59.385 32.586 60.3309 32.5319 60.7459 32.4539C61.1608 32.376 61.2155 32.4647 61.8073 32.3772C62.3991 32.2897 62.7606 32.2615 63.2836 32.2336C63.8067 32.2057 65.406 32.0526 65.9823 31.95C66.5586 31.8474 67.2281 31.8379 67.628 31.8086C67.7526 31.7995 67.8509 31.7951 67.9265 31.7935C67.9585 31.7929 67.9738 31.7972 67.9745 31.8032C67.9754 31.8106 67.9535 31.8205 67.9128 31.826C67.7156 31.8528 67.4213 31.8981 67.0752 31.9643C66.4298 32.0878 66.3524 32.0401 65.4761 32.1647C64.5999 32.2892 64.0775 32.4003 63.0393 32.483C62.0011 32.5657 61.7792 32.7323 60.3102 32.8169C58.8411 32.9015 58.7038 33.0651 57.2509 33.2479C55.798 33.4307 53.952 33.5563 53.0756 33.6614C52.1992 33.7666 51.0231 33.916 49.7774 34.0363C48.5318 34.1566 47.0022 34.3776 45.6258 34.4973C44.2493 34.6169 42.3039 34.7913 41.4041 34.8628C40.5044 34.9343 40.2851 34.9522 39.4242 35.0669C38.9293 35.1328 38.2449 35.1999 37.6635 35.227C37.3709 35.2407 37.4338 35.2069 37.7247 35.1614C38.1502 35.095 38.5026 35.0679 38.7192 35.0102C39.1519 34.8949 39.3362 34.8485 39.8962 34.8245C40.4562 34.8005 40.7082 34.6839 41.0333 34.6576C41.3583 34.6313 41.3588 34.6833 43.0014 34.4588C44.644 34.2342 45.5459 34.1227 46.1686 34.0431C46.7913 33.9636 48.0987 33.862 49.1134 33.7318C50.1281 33.6015 52.1964 33.3842 53.0265 33.2643C53.8565 33.1444 53.8647 33.2018 54.5415 33.1584C55.2183 33.115 55.7324 32.9134 56.5552 32.8413Z" fill="#82BEF5"/>
<path d="M56.5552 36.2658C57.378 36.1938 57.5094 36.2554 58.4472 36.1329C59.385 36.0104 60.3309 35.9564 60.7459 35.8784C61.1608 35.8004 61.2155 35.8892 61.8073 35.8017C62.3991 35.7142 62.7606 35.6859 63.2836 35.6581C63.8067 35.6302 65.406 35.477 65.9823 35.3744C66.5586 35.2718 67.2281 35.2624 67.628 35.2331C67.7526 35.2239 67.8509 35.2196 67.9265 35.218C67.9585 35.2173 67.9738 35.2217 67.9745 35.2277C67.9754 35.2351 67.9535 35.245 67.9128 35.2505C67.7156 35.2773 67.4213 35.3226 67.0752 35.3888C66.4298 35.5122 66.3524 35.4646 65.4761 35.5891C64.5999 35.7137 64.0775 35.8247 63.0393 35.9074C62.0011 35.9901 61.7792 36.1567 60.3102 36.2414C58.8411 36.326 58.7038 36.4895 57.2509 36.6724C55.798 36.8552 53.952 36.9807 53.0756 37.0859C52.1992 37.1911 51.0231 37.3404 49.7774 37.4607C48.5318 37.581 47.0022 37.8021 45.6258 37.9217C44.2493 38.0414 42.3039 38.2158 41.4041 38.2872C40.5044 38.3587 40.2851 38.3767 39.4242 38.4914C38.9293 38.5573 38.2449 38.6244 37.6635 38.6515C37.3709 38.6651 37.4338 38.6314 37.7247 38.5859C38.1502 38.5194 38.5026 38.4924 38.7192 38.4347C39.1519 38.3193 39.3362 38.273 39.8962 38.2489C40.4562 38.2249 40.7082 38.1084 41.0333 38.0821C41.3583 38.0557 41.3588 38.1078 43.0014 37.8832C44.644 37.6587 45.5459 37.5471 46.1686 37.4676C46.7913 37.388 48.0987 37.2865 49.1134 37.1562C50.1281 37.026 52.1964 36.8087 53.0265 36.6888C53.8565 36.5689 53.8647 36.6263 54.5415 36.5829C55.2183 36.5395 55.7324 36.3378 56.5552 36.2658Z" fill="#82BEF5"/>
<path fill-rule="evenodd" clip-rule="evenodd" d="M64.6636 40.1648C64.6695 40.819 64.9987 41.4454 65.5811 41.9084C66.169 42.3759 66.9666 42.6386 67.7983 42.6388C68.6299 42.639 69.4277 42.3767 70.016 41.9096C70.5992 41.4465 70.9291 40.8195 70.9349 40.1648H82.8581C84.5874 40.1648 85.9893 41.5679 85.9893 43.2987V79.8661C85.9893 81.5969 84.5874 83 82.8581 83H10.1313C8.40193 83 7.00001 81.5969 7 79.8661V77.8784C7.65074 77.8695 8.27332 77.5399 8.73384 76.959C9.20057 76.3702 9.46264 75.5718 9.46243 74.7394C9.46222 73.907 9.19969 73.1088 8.73266 72.5204C8.27221 71.9403 7.65018 71.6111 7 71.6021V69.0796C7.65074 69.0707 8.27332 68.7411 8.73384 68.1602C9.20058 67.5714 9.46263 66.773 9.46243 65.9406C9.46223 65.1082 9.19969 64.3099 8.73266 63.7215C8.27222 63.1414 7.65016 62.8122 7 62.8033V60.2808C7.65074 60.2719 8.27332 59.9423 8.73384 59.3613C9.20057 58.7726 9.46263 57.9741 9.46243 57.1418C9.46223 56.3094 9.19969 55.5111 8.73266 54.9226C8.27222 54.3426 7.65017 54.0134 7 54.0045V51.4819C7.65074 51.4729 8.27332 51.1433 8.73384 50.5624C9.20057 49.9736 9.46264 49.1752 9.46243 48.3428C9.46222 47.5104 9.19969 46.7122 8.73266 46.1238C8.27221 45.5437 7.65018 45.2145 7 45.2055V43.2987C7 41.5679 8.40193 40.1648 10.1313 40.1648H64.6636ZM67.7983 80.4901C66.9666 80.4903 66.169 80.7531 65.5811 81.2205C64.9932 81.6879 64.6632 82.3217 64.6634 82.9825L70.9351 82.981C70.9349 82.3202 70.6042 81.6865 70.016 81.2194C69.4277 80.7523 68.6299 80.4899 67.7983 80.4901ZM85.9629 71.6018C85.3026 71.6015 84.6693 71.932 84.2023 72.5204C83.7353 73.1088 83.4727 73.907 83.4725 74.7394C83.4723 75.5718 83.7345 76.3702 84.2012 76.959C84.668 77.5477 85.3011 77.8787 85.9613 77.8789L85.9629 71.6018ZM85.9629 62.803C85.3026 62.8027 84.6693 63.1331 84.2023 63.7215C83.7353 64.3099 83.4727 65.1082 83.4725 65.9406C83.4723 66.773 83.7345 67.5714 84.2012 68.1602C84.668 68.7489 85.3011 69.0798 85.9613 69.0801L85.9629 62.803ZM85.9629 54.0041C85.3026 54.0039 84.6693 54.3343 84.2023 54.9226C83.7353 55.5111 83.4727 56.3094 83.4725 57.1418C83.4723 57.9741 83.7345 58.7726 84.2012 59.3613C84.668 59.9501 85.3011 60.281 85.9613 60.2813L85.9629 54.0041ZM85.9629 45.2052C85.3026 45.2049 84.6693 45.5354 84.2023 46.1238C83.7353 46.7122 83.4727 47.5104 83.4725 48.3428C83.4723 49.1752 83.7345 49.9736 84.2012 50.5624C84.668 51.1511 85.3011 51.4821 85.9613 51.4823L85.9629 45.2052Z" fill="#99CCFF"/>
<path fill-rule="evenodd" clip-rule="evenodd" d="M67.8034 79.6299V80.4893H68.1708V79.6299H67.8034ZM67.8034 76.1923V77.9111H68.1708V76.1923H67.8034ZM67.8034 72.7546V74.4734H68.1708V72.7546H67.8034ZM67.8034 69.317V71.0358H68.1708V69.317H67.8034ZM67.8034 65.8793V67.5981H68.1708V65.8793H67.8034ZM67.8034 62.4417V64.1605H68.1708V62.4417H67.8034ZM67.8034 59.004V60.7228H68.1708V59.004H67.8034ZM67.8034 55.5663V57.2852H68.1708V55.5663H67.8034ZM67.8034 52.1287V53.8475H68.1708V52.1287H67.8034ZM67.8034 48.691V50.4099H68.1708V48.691H67.8034ZM67.8034 45.2534V46.9722H68.1708V45.2534H67.8034ZM67.8034 42.6751V43.5345H68.1708V42.6751H67.8034Z" fill="#7D9AB2"/>
<path d="M14.238 52.9013C14.238 50.7377 15.9904 48.9838 18.1522 48.9838H60.361C62.5227 48.9838 64.2751 50.7377 64.2751 52.9013V70.5785C64.2751 72.7421 62.5227 74.496 60.361 74.496H18.1522C15.9904 74.496 14.238 72.7421 14.238 70.5785V52.9013Z" fill="#EEF7FC"/>
<path d="M38.811 58.162C38.947 58.162 39.1848 58.196 39.1848 58.3661L39.2075 62.38C40.4197 61.0307 41.6093 59.6473 42.7875 58.264C42.8328 58.2186 42.8442 58.1846 42.9122 58.1846C43.0028 58.1846 43.2973 58.264 43.2974 58.3773C43.2974 58.4794 40.8391 61.2459 40.601 61.5182C41.5414 62.8788 42.5383 64.2168 43.7619 65.3394C43.7619 65.3507 43.7844 65.3847 43.7845 65.4073C43.7845 65.5321 43.5239 65.6001 43.4219 65.6001C42.9347 65.6 40.6691 62.4028 40.2952 61.8584L39.2075 63.1056C39.2188 63.7973 39.2868 64.6477 39.1735 65.3507C39.1509 65.5207 39.0942 65.6115 38.9016 65.6115C38.7431 65.6115 38.7544 65.5208 38.7544 65.3848C38.7544 63.6386 38.7544 61.8924 38.7204 60.1349C38.7091 59.5339 38.6524 58.865 38.6524 58.2754C38.6524 58.1733 38.7204 58.162 38.811 58.162Z" fill="#7D9AB2"/>
<path d="M27.3787 58.3775C27.4806 58.3775 27.492 58.4907 27.492 58.5701C27.492 58.7402 27.4466 58.7856 27.288 58.7856L24.9429 58.8083L24.9656 64.2055C24.9656 64.5683 24.9883 64.9652 24.9316 65.3167C24.909 65.4981 24.8183 65.5775 24.637 65.5775C24.4898 65.5775 24.4784 65.4981 24.4784 65.3621C24.4784 63.1737 24.4557 60.9966 24.4557 58.8083L22.0313 58.8197C21.8614 58.8197 21.8161 58.7742 21.8161 58.6042C21.8161 58.5362 21.7934 58.4 21.9067 58.4L27.3787 58.3775Z" fill="#7D9AB2"/>
<path d="M56.1994 58.3775C56.3013 58.3775 56.3127 58.4907 56.3127 58.5701C56.3127 58.7402 56.2673 58.7856 56.1087 58.7856L53.7636 58.8083L53.7863 64.2055C53.7863 64.5683 53.809 64.9652 53.7523 65.3167C53.7297 65.4981 53.639 65.5775 53.4577 65.5775C53.3105 65.5775 53.2991 65.4981 53.2991 65.3621C53.2991 63.1737 53.2765 60.9966 53.2765 58.8083L50.852 58.8197C50.6821 58.8197 50.6368 58.7742 50.6368 58.6042C50.6368 58.5362 50.6141 58.4 50.7274 58.4L56.1994 58.3775Z" fill="#7D9AB2"/>
<path d="M35.077 58.2073C36.0513 58.2073 36.9124 58.5814 37.3542 59.4885C37.3769 59.5339 37.3882 59.5793 37.3882 59.636C37.3881 59.738 37.2296 59.8627 37.1389 59.8627C37.1049 59.8627 37.0822 59.84 37.0709 59.8173C36.6291 59.0237 36.1419 58.6382 35.2016 58.6382C33.4229 58.6382 32.4827 60.2596 32.4827 61.8924C32.4827 63.5025 33.1398 65.1239 34.9864 65.1239C35.938 65.1239 36.6177 64.8404 37.1842 64.058C37.2182 64.0467 37.2636 64.0467 37.2976 64.0467C37.4222 64.0468 37.5467 64.1148 37.5354 64.2622C36.9916 65.1806 36.0853 65.5661 35.043 65.5661C32.8792 65.5661 31.9955 63.854 31.9955 61.8924C31.9955 60.1009 33.1057 58.2073 35.077 58.2073Z" fill="#7D9AB2"/>
<path d="M30.8516 58.3661C30.9536 58.3661 30.9649 58.4794 30.9649 58.5588C30.9649 58.7289 30.9196 58.7743 30.761 58.7743L29.9453 58.7856L29.968 63.9107C29.968 64.2735 29.9566 64.6364 29.9226 64.9992L30.8516 64.9878C30.9536 64.9879 30.9649 65.1012 30.9649 65.1806C30.9649 65.3507 30.9196 65.396 30.761 65.3961L28.6425 65.43C28.4725 65.43 28.4385 65.3733 28.4385 65.2146C28.4385 65.1352 28.4273 65.0105 28.5292 65.0105L29.5035 64.9992C29.4921 62.9356 29.5262 60.8606 29.4129 58.797L28.6425 58.8083C28.4725 58.8083 28.4385 58.7515 28.4385 58.5928C28.4385 58.5134 28.4273 58.3888 28.5292 58.3888L30.8516 58.3661Z" fill="#7D9AB2"/>
<path d="M49.4328 58.3775C49.5687 58.3775 49.5913 58.4794 49.5913 58.5928C49.5913 58.7402 49.5574 58.8083 49.4101 58.8083L45.4676 58.8537L45.4903 61.5182L49.1382 61.4842C49.2515 61.4842 49.2515 61.6203 49.2515 61.6996C49.2515 61.8357 49.1835 61.9151 49.0476 61.9151L45.4789 61.9604C45.4902 62.9695 45.5016 63.9787 45.5016 64.9878L49.716 64.9312C49.818 64.9312 49.818 65.0786 49.818 65.1466C49.818 65.294 49.7613 65.3621 49.614 65.3621L45.6036 65.4075C45.1617 65.4075 45.0258 65.3053 45.0258 64.8518C45.0258 64.1261 45.037 63.3891 45.037 62.6634C45.037 61.6996 45.0257 60.7358 45.0144 59.7721C45.003 59.3866 44.9804 58.9897 44.9804 58.6042C44.9804 58.4682 45.0937 58.3775 45.2296 58.3775H49.4328Z" fill="#7D9AB2"/>
</svg>
